M48
; DRILL file {KiCad 9.0.5} date 2025-10-20T16:26:19+0530
; FORMAT={-:-/ absolute / metric / decimal}
; #@! TF.CreationDate,2025-10-20T16:26:19+05:30
; #@! TF.GenerationSoftware,Kicad,Pcbnew,9.0.5
; #@! TF.FileFunction,Plated,1,2,PTH
FMAT,2
METRIC
; #@! TA.AperFunction,Plated,PTH,ViaDrill
T1C0.300
; #@! TA.AperFunction,Plated,PTH,ComponentDrill
T2C0.300
; #@! TA.AperFunction,Plated,PTH,ComponentDrill
T3C1.000
; #@! TA.AperFunction,Plated,PTH,ComponentDrill
T4C3.200
%
G90
G05
T1
X122.52Y-95.052
X122.52Y-97.592
X122.52Y-100.132
X122.52Y-102.672
X122.52Y-105.212
X122.52Y-107.752
X122.52Y-110.292
X122.52Y-112.832
X122.52Y-115.372
X122.52Y-117.912
X122.52Y-120.452
X125.06Y-95.052
X125.06Y-97.592
X126.746Y-102.337
X127.6Y-89.972
X127.6Y-92.512
X127.6Y-95.052
X127.6Y-122.992
X127.6Y-125.532
X130.14Y-89.972
X130.14Y-92.512
X130.14Y-122.992
X130.14Y-125.532
X131.496Y-101.549
X131.664Y-104.555
X132.68Y-89.972
X132.68Y-92.512
X132.68Y-122.992
X132.68Y-125.532
X133.823Y-103.053
X133.823Y-103.815
X134.62Y-103.378
X135.077Y-93.98
X135.077Y-99.695
X135.22Y-89.972
X135.22Y-92.512
X135.22Y-107.752
X135.22Y-110.292
X135.22Y-122.992
X135.22Y-125.532
X135.347Y-103.053
X135.347Y-103.79
X137.76Y-89.972
X137.76Y-92.512
X137.76Y-95.052
X137.76Y-107.752
X137.76Y-110.292
X137.76Y-122.992
X137.76Y-125.532
X140.3Y-89.972
X140.3Y-92.512
X140.3Y-95.052
X140.3Y-97.592
X140.3Y-107.752
X140.3Y-122.992
X140.3Y-125.532
X142.84Y-89.972
X142.84Y-92.512
X142.84Y-95.052
X142.84Y-105.212
X142.84Y-110.292
X142.84Y-122.992
X142.84Y-125.532
X144.618Y-112.883
X145.38Y-89.972
X145.38Y-92.512
X145.38Y-95.052
X145.38Y-107.752
X145.38Y-122.992
X145.38Y-125.532
X147.92Y-89.972
X147.92Y-92.512
X147.92Y-95.052
X147.92Y-105.212
X147.92Y-107.752
X147.92Y-110.292
X147.92Y-122.992
X147.92Y-125.532
X150.46Y-95.052
X150.46Y-97.592
X150.46Y-107.752
X153.0Y-95.052
X153.0Y-97.592
X153.0Y-100.132
X153.0Y-102.672
X153.0Y-105.212
X153.0Y-107.752
X153.0Y-110.292
X153.0Y-112.832
X153.0Y-115.372
X153.0Y-117.912
X153.0Y-120.452
T2
X125.13Y-99.704
X126.33Y-99.704
T3
X143.51Y-97.282
X146.05Y-97.282
X148.59Y-97.282
X149.698Y-102.921
X149.698Y-105.461
X149.698Y-110.043
X149.698Y-112.583
T4
X124.298Y-91.242
X124.298Y-124.008
X151.984Y-91.242
X151.984Y-124.008
M30
