%TF.GenerationSoftware,KiCad,Pcbnew,9.0.5*%
%TF.CreationDate,2025-10-20T16:26:15+05:30*%
%TF.ProjectId,adp2384,61647032-3338-4342-9e6b-696361645f70,A1*%
%TF.SameCoordinates,Original*%
%TF.FileFunction,Copper,L1,Top*%
%TF.FilePolarity,Positive*%
%FSLAX46Y46*%
G04 Gerber Fmt 4.6, Leading zero omitted, Abs format (unit mm)*
G04 Created by KiCad (PCBNEW 9.0.5) date 2025-10-20 16:26:15*
%MOMM*%
%LPD*%
G01*
G04 APERTURE LIST*
G04 Aperture macros list*
%AMRoundRect*
0 Rectangle with rounded corners*
0 $1 Rounding radius*
0 $2 $3 $4 $5 $6 $7 $8 $9 X,Y pos of 4 corners*
0 Add a 4 corners polygon primitive as box body*
4,1,4,$2,$3,$4,$5,$6,$7,$8,$9,$2,$3,0*
0 Add four circle primitives for the rounded corners*
1,1,$1+$1,$2,$3*
1,1,$1+$1,$4,$5*
1,1,$1+$1,$6,$7*
1,1,$1+$1,$8,$9*
0 Add four rect primitives between the rounded corners*
20,1,$1+$1,$2,$3,$4,$5,0*
20,1,$1+$1,$4,$5,$6,$7,0*
20,1,$1+$1,$6,$7,$8,$9,0*
20,1,$1+$1,$8,$9,$2,$3,0*%
%AMFreePoly0*
4,1,5,1.350000,-0.538000,-1.350000,-0.538000,-1.350000,0.412000,1.350000,0.412000,1.350000,-0.538000,1.350000,-0.538000,$1*%
%AMFreePoly1*
4,1,5,1.350000,-0.762000,-1.350000,-0.762000,-1.350000,0.638000,1.350000,0.638000,1.350000,-0.762000,1.350000,-0.762000,$1*%
G04 Aperture macros list end*
%TA.AperFunction,Conductor*%
%ADD10C,0.200000*%
%TD*%
%TA.AperFunction,EtchedComponent*%
%ADD11C,0.000000*%
%TD*%
%TA.AperFunction,ConnectorPad*%
%ADD12C,5.600000*%
%TD*%
%TA.AperFunction,ComponentPad*%
%ADD13C,3.600000*%
%TD*%
%TA.AperFunction,SMDPad,CuDef*%
%ADD14RoundRect,0.250000X-0.650000X0.325000X-0.650000X-0.325000X0.650000X-0.325000X0.650000X0.325000X0*%
%TD*%
%TA.AperFunction,SMDPad,CuDef*%
%ADD15FreePoly0,0.000000*%
%TD*%
%TA.AperFunction,SMDPad,CuDef*%
%ADD16FreePoly1,0.000000*%
%TD*%
%TA.AperFunction,SMDPad,CuDef*%
%ADD17R,0.250000X0.799999*%
%TD*%
%TA.AperFunction,SMDPad,CuDef*%
%ADD18R,0.799999X0.250000*%
%TD*%
%TA.AperFunction,SMDPad,CuDef*%
%ADD19RoundRect,0.225000X-0.250000X0.225000X-0.250000X-0.225000X0.250000X-0.225000X0.250000X0.225000X0*%
%TD*%
%TA.AperFunction,ComponentPad*%
%ADD20C,1.700000*%
%TD*%
%TA.AperFunction,ComponentPad*%
%ADD21R,1.700000X1.700000*%
%TD*%
%TA.AperFunction,SMDPad,CuDef*%
%ADD22RoundRect,0.225000X0.250000X-0.225000X0.250000X0.225000X-0.250000X0.225000X-0.250000X-0.225000X0*%
%TD*%
%TA.AperFunction,SMDPad,CuDef*%
%ADD23RoundRect,0.200000X0.200000X0.275000X-0.200000X0.275000X-0.200000X-0.275000X0.200000X-0.275000X0*%
%TD*%
%TA.AperFunction,SMDPad,CuDef*%
%ADD24C,1.000000*%
%TD*%
%TA.AperFunction,SMDPad,CuDef*%
%ADD25RoundRect,0.250000X0.650000X-0.325000X0.650000X0.325000X-0.650000X0.325000X-0.650000X-0.325000X0*%
%TD*%
%TA.AperFunction,SMDPad,CuDef*%
%ADD26RoundRect,0.200000X0.275000X-0.200000X0.275000X0.200000X-0.275000X0.200000X-0.275000X-0.200000X0*%
%TD*%
%TA.AperFunction,SMDPad,CuDef*%
%ADD27RoundRect,0.200000X-0.275000X0.200000X-0.275000X-0.200000X0.275000X-0.200000X0.275000X0.200000X0*%
%TD*%
%TA.AperFunction,SMDPad,CuDef*%
%ADD28RoundRect,0.225000X-0.225000X-0.250000X0.225000X-0.250000X0.225000X0.250000X-0.225000X0.250000X0*%
%TD*%
%TA.AperFunction,ComponentPad*%
%ADD29C,0.600000*%
%TD*%
%TA.AperFunction,SMDPad,CuDef*%
%ADD30R,3.251200X2.921000*%
%TD*%
%TA.AperFunction,ViaPad*%
%ADD31C,0.600000*%
%TD*%
%TA.AperFunction,Conductor*%
%ADD32C,0.500000*%
%TD*%
G04 APERTURE END LIST*
D10*
%TO.N,/SW*%
X135838463Y-104613303D02*
X135844133Y-105308400D01*
X133597330Y-105308400D01*
X133400800Y-105470744D01*
X133400800Y-106934000D01*
X134035800Y-107746800D01*
X134035800Y-110540800D01*
X123924278Y-110540800D01*
X123933798Y-106680000D01*
X130327400Y-106680000D01*
X131646417Y-105374550D01*
X132233702Y-104851200D01*
X133200841Y-104851200D01*
X133415281Y-104606227D01*
X135838463Y-104613303D01*
%TA.AperFunction,Conductor*%
G36*
X135838463Y-104613303D02*
G01*
X135844133Y-105308400D01*
X133597330Y-105308400D01*
X133400800Y-105470744D01*
X133400800Y-106934000D01*
X134035800Y-107746800D01*
X134035800Y-110540800D01*
X123924278Y-110540800D01*
X123933798Y-106680000D01*
X130327400Y-106680000D01*
X131646417Y-105374550D01*
X132233702Y-104851200D01*
X133200841Y-104851200D01*
X133415281Y-104606227D01*
X135838463Y-104613303D01*
G37*
%TD.AperFunction*%
%TO.N,VCC_3V3*%
X151638000Y-119797139D02*
X149952000Y-121362694D01*
X126584000Y-121359791D01*
X126155031Y-121155944D01*
X125075151Y-120794035D01*
X123952000Y-120706000D01*
X123939300Y-115570000D01*
X133604000Y-115570000D01*
X134619423Y-114910510D01*
X134620187Y-112420279D01*
X135026426Y-112014000D01*
X146557999Y-112014000D01*
X147828000Y-111760000D01*
X151638000Y-111760000D01*
X151638000Y-119797139D01*
%TA.AperFunction,Conductor*%
G36*
X151638000Y-119797139D02*
G01*
X149952000Y-121362694D01*
X126584000Y-121359791D01*
X126155031Y-121155944D01*
X125075151Y-120794035D01*
X123952000Y-120706000D01*
X123939300Y-115570000D01*
X133604000Y-115570000D01*
X134619423Y-114910510D01*
X134620187Y-112420279D01*
X135026426Y-112014000D01*
X146557999Y-112014000D01*
X147828000Y-111760000D01*
X151638000Y-111760000D01*
X151638000Y-119797139D01*
G37*
%TD.AperFunction*%
%TO.N,GND*%
X137414000Y-105714800D02*
X137414000Y-106527600D01*
X134140234Y-106526673D01*
X134010400Y-106375200D01*
X133858000Y-106375200D01*
X133858000Y-105791000D01*
X136271000Y-105791000D01*
X136271000Y-105359200D01*
X136982200Y-105359200D01*
X137414000Y-105714800D01*
%TA.AperFunction,Conductor*%
G36*
X137414000Y-105714800D02*
G01*
X137414000Y-106527600D01*
X134140234Y-106526673D01*
X134010400Y-106375200D01*
X133858000Y-106375200D01*
X133858000Y-105791000D01*
X136271000Y-105791000D01*
X136271000Y-105359200D01*
X136982200Y-105359200D01*
X137414000Y-105714800D01*
G37*
%TD.AperFunction*%
%TO.N,GNDA*%
X134321468Y-95758000D02*
X134334686Y-96746953D01*
X134705657Y-97174992D01*
X136802086Y-97173358D01*
X137236200Y-97572028D01*
X137236200Y-98323400D01*
X136855200Y-98653600D01*
X133375400Y-98653600D01*
X133096000Y-98323400D01*
X133096000Y-96189800D01*
X132719482Y-95732600D01*
X131415769Y-95732600D01*
X131005958Y-96215200D01*
X130992336Y-98330662D01*
X130708400Y-98628200D01*
X129438400Y-98628200D01*
X127482600Y-100584000D01*
X127482600Y-103606600D01*
X127812800Y-103936800D01*
X128752600Y-103936800D01*
X129032000Y-104190800D01*
X129032000Y-105001224D01*
X128727408Y-105291572D01*
X127762000Y-105294186D01*
X127254000Y-104627431D01*
X126218899Y-104633369D01*
X125730000Y-104029436D01*
X125730000Y-99704018D01*
X130276600Y-94996000D01*
X133766664Y-94996000D01*
X134321468Y-95758000D01*
%TA.AperFunction,Conductor*%
G36*
X134321468Y-95758000D02*
G01*
X134334686Y-96746953D01*
X134705657Y-97174992D01*
X136802086Y-97173358D01*
X137236200Y-97572028D01*
X137236200Y-98323400D01*
X136855200Y-98653600D01*
X133375400Y-98653600D01*
X133096000Y-98323400D01*
X133096000Y-96189800D01*
X132719482Y-95732600D01*
X131415769Y-95732600D01*
X131005958Y-96215200D01*
X130992336Y-98330662D01*
X130708400Y-98628200D01*
X129438400Y-98628200D01*
X127482600Y-100584000D01*
X127482600Y-103606600D01*
X127812800Y-103936800D01*
X128752600Y-103936800D01*
X129032000Y-104190800D01*
X129032000Y-105001224D01*
X128727408Y-105291572D01*
X127762000Y-105294186D01*
X127254000Y-104627431D01*
X126218899Y-104633369D01*
X125730000Y-104029436D01*
X125730000Y-99704018D01*
X130276600Y-94996000D01*
X133766664Y-94996000D01*
X134321468Y-95758000D01*
G37*
%TD.AperFunction*%
%TO.N,VIN*%
X151202907Y-103750323D02*
X138307460Y-103787441D01*
X137652893Y-103914441D01*
X136271000Y-103914441D01*
X136271000Y-102598255D01*
X136151972Y-102482041D01*
X135864600Y-102482041D01*
X135864600Y-101875614D01*
X135915767Y-101824802D01*
X140312099Y-101808650D01*
X141859000Y-100330000D01*
X151228347Y-100303628D01*
X151202907Y-103750323D01*
%TA.AperFunction,Conductor*%
G36*
X151202907Y-103750323D02*
G01*
X138307460Y-103787441D01*
X137652893Y-103914441D01*
X136271000Y-103914441D01*
X136271000Y-102598255D01*
X136151972Y-102482041D01*
X135864600Y-102482041D01*
X135864600Y-101875614D01*
X135915767Y-101824802D01*
X140312099Y-101808650D01*
X141859000Y-100330000D01*
X151228347Y-100303628D01*
X151202907Y-103750323D01*
G37*
%TD.AperFunction*%
D11*
%TA.AperFunction,EtchedComponent*%
%TD*%
%TO.C,NT1*%
G36*
X126330000Y-100004018D02*
G01*
X125130000Y-100004018D01*
X125130000Y-99404018D01*
X126330000Y-99404018D01*
X126330000Y-100004018D01*
G37*
%TD.AperFunction*%
D12*
%TO.P,H4,1,1*%
%TO.N,GND*%
X151984000Y-124008000D03*
D13*
X151984000Y-124008000D03*
%TD*%
D14*
%TO.P,C10,2*%
%TO.N,VCC_3V3*%
X136652000Y-113035000D03*
%TO.P,C10,1*%
%TO.N,GND*%
X136652000Y-110085000D03*
%TD*%
D12*
%TO.P,H1,1,1*%
%TO.N,GND*%
X124298000Y-91242000D03*
D13*
X124298000Y-91242000D03*
%TD*%
D15*
%TO.P,U1,26,E_SW*%
%TO.N,/SW*%
X134620000Y-104902000D03*
D16*
%TO.P,U1,25,E_GND*%
%TO.N,GND*%
X134620000Y-103378000D03*
D17*
%TO.P,U1,24,SS*%
%TO.N,/SS*%
X133370000Y-102189999D03*
%TO.P,U1,23,SYNC*%
%TO.N,/SYNC*%
X133869999Y-102189999D03*
%TO.P,U1,22,RT*%
%TO.N,/RT*%
X134370000Y-102189999D03*
%TO.P,U1,21,PGOOD*%
%TO.N,/PG*%
X134870000Y-102189999D03*
%TO.P,U1,20,EN*%
%TO.N,/EN*%
X135370001Y-102189999D03*
%TO.P,U1,19,PVIN*%
%TO.N,VIN*%
X135870000Y-102189999D03*
D18*
%TO.P,U1,18,PVIN*%
X136570001Y-102890000D03*
%TO.P,U1,17,PVIN*%
X136570001Y-103389999D03*
%TO.P,U1,16,PVIN*%
X136570001Y-103890000D03*
%TO.P,U1,15,BST*%
%TO.N,/BST*%
X136570001Y-104390000D03*
%TO.P,U1,14,SW*%
%TO.N,/SW*%
X136570001Y-104890001D03*
%TO.P,U1,13,PGND*%
%TO.N,GND*%
X136570001Y-105390000D03*
D17*
%TO.P,U1,12,PGND*%
X135870000Y-106090001D03*
%TO.P,U1,11,PGND*%
X135370001Y-106090001D03*
%TO.P,U1,10,PGND*%
X134870000Y-106090001D03*
%TO.P,U1,9,PGND*%
X134370000Y-106090001D03*
%TO.P,U1,8,PGND*%
X133869999Y-106090001D03*
%TO.P,U1,7,SW*%
%TO.N,/SW*%
X133370000Y-106090001D03*
D18*
%TO.P,U1,6,SW*%
X132669999Y-105390000D03*
%TO.P,U1,5,SW*%
X132669999Y-104890001D03*
%TO.P,U1,4,GND*%
%TO.N,GNDA*%
X132669999Y-104390000D03*
%TO.P,U1,3,VREG*%
%TO.N,VREG_5V*%
X132669999Y-103890000D03*
%TO.P,U1,2,FB*%
%TO.N,/FB*%
X132669999Y-103389999D03*
%TO.P,U1,1,COMP*%
%TO.N,/COMP*%
X132669999Y-102890000D03*
%TD*%
D19*
%TO.P,C7,2*%
%TO.N,/COMP*%
X130302000Y-99835000D03*
%TO.P,C7,1*%
%TO.N,GNDA*%
X130302000Y-98285000D03*
%TD*%
D20*
%TO.P,J1,2,Pin_2*%
%TO.N,GND*%
X149698000Y-105461000D03*
D21*
%TO.P,J1,1,Pin_1*%
%TO.N,VIN*%
X149698000Y-102921000D03*
%TD*%
D22*
%TO.P,C4,2*%
%TO.N,/BST*%
X138684000Y-104635000D03*
%TO.P,C4,1*%
%TO.N,/SW*%
X138684000Y-106185000D03*
%TD*%
D20*
%TO.P,J3,2,Pin_2*%
%TO.N,GND*%
X149698000Y-110043000D03*
D21*
%TO.P,J3,1,Pin_1*%
%TO.N,VCC_3V3*%
X149698000Y-112583000D03*
%TD*%
D19*
%TO.P,C3,2*%
%TO.N,/SS*%
X133858000Y-99835000D03*
%TO.P,C3,1*%
%TO.N,GNDA*%
X133858000Y-98285000D03*
%TD*%
D23*
%TO.P,R5,2*%
%TO.N,GNDA*%
X128461000Y-104902000D03*
%TO.P,R5,1*%
%TO.N,/FB*%
X130111000Y-104902000D03*
%TD*%
D24*
%TO.P,TP3,1,1*%
%TO.N,/SYNC*%
X136652000Y-93980000D03*
%TD*%
D25*
%TO.P,C1,2*%
%TO.N,VIN*%
X141478000Y-102919000D03*
%TO.P,C1,1*%
%TO.N,GND*%
X141478000Y-105869000D03*
%TD*%
D20*
%TO.P,J2,3,Pin_3*%
%TO.N,GND*%
X143510000Y-97282000D03*
%TO.P,J2,2,Pin_2*%
%TO.N,/EN*%
X146050000Y-97282000D03*
D21*
%TO.P,J2,1,Pin_1*%
%TO.N,VIN*%
X148590000Y-97282000D03*
%TD*%
D26*
%TO.P,R3,2*%
%TO.N,VCC_3V3*%
X138684000Y-98235000D03*
%TO.P,R3,1*%
%TO.N,/PG*%
X138684000Y-99885000D03*
%TD*%
D27*
%TO.P,R4,2*%
%TO.N,/FB*%
X130302000Y-103187000D03*
%TO.P,R4,1*%
%TO.N,VCC_3V3*%
X130302000Y-101537000D03*
%TD*%
D19*
%TO.P,C5,2*%
%TO.N,VREG_5V*%
X126238000Y-105423000D03*
%TO.P,C5,1*%
%TO.N,GNDA*%
X126238000Y-103873000D03*
%TD*%
D26*
%TO.P,R2,2*%
%TO.N,Net-(C6-Pad2)*%
X132080000Y-98235000D03*
%TO.P,R2,1*%
%TO.N,/COMP*%
X132080000Y-99885000D03*
%TD*%
%TO.P,R1,2*%
%TO.N,GNDA*%
X136652000Y-98235000D03*
%TO.P,R1,1*%
%TO.N,/RT*%
X136652000Y-99885000D03*
%TD*%
D12*
%TO.P,H2,1,1*%
%TO.N,GND*%
X151984000Y-91242000D03*
D13*
X151984000Y-91242000D03*
%TD*%
D12*
%TO.P,H3,1,1*%
%TO.N,GND*%
X124298000Y-124008000D03*
D13*
X124298000Y-124008000D03*
%TD*%
D25*
%TO.P,C2,2*%
%TO.N,VIN*%
X145034000Y-102919000D03*
%TO.P,C2,1*%
%TO.N,GND*%
X145034000Y-105869000D03*
%TD*%
D22*
%TO.P,C11,2*%
%TO.N,VCC_3V3*%
X128270000Y-101574000D03*
%TO.P,C11,1*%
%TO.N,/FB*%
X128270000Y-103124000D03*
%TD*%
D28*
%TO.P,C6,2*%
%TO.N,Net-(C6-Pad2)*%
X132067600Y-96520000D03*
%TO.P,C6,1*%
%TO.N,GNDA*%
X130517600Y-96520000D03*
%TD*%
D29*
%TO.P,NT1,1,1*%
%TO.N,GNDA*%
X126330000Y-99704018D03*
%TO.P,NT1,2,2*%
%TO.N,GND*%
X125130000Y-99704018D03*
%TD*%
D14*
%TO.P,C9,2*%
%TO.N,VCC_3V3*%
X140002000Y-113035000D03*
%TO.P,C9,1*%
%TO.N,GND*%
X140002000Y-110085000D03*
%TD*%
D30*
%TO.P,L1,2,2*%
%TO.N,VCC_3V3*%
X129032000Y-117525800D03*
%TO.P,L1,1,1*%
%TO.N,/SW*%
X129032000Y-108966000D03*
%TD*%
D31*
%TO.N,GND*%
X127600000Y-125532000D03*
X122520000Y-97592000D03*
X142840000Y-105212000D03*
X134620000Y-103378000D03*
X122520000Y-100132000D03*
X135347000Y-103053000D03*
X140300000Y-95052000D03*
X153000000Y-100132000D03*
X153000000Y-105212000D03*
X153000000Y-107752000D03*
X142840000Y-89972000D03*
X140300000Y-125532000D03*
X135220000Y-92512000D03*
X147920000Y-92512000D03*
X130140000Y-89972000D03*
X132680000Y-89972000D03*
X145380000Y-122992000D03*
X122520000Y-115372000D03*
X133823000Y-103815000D03*
X135347000Y-103789600D03*
X135220000Y-110292000D03*
X137760000Y-92512000D03*
X153000000Y-110292000D03*
X147920000Y-89972000D03*
X145380000Y-125532000D03*
X153000000Y-97592000D03*
X153000000Y-120452000D03*
X127600000Y-122992000D03*
X122520000Y-117912000D03*
X137760000Y-107752000D03*
X137760000Y-122992000D03*
X145380000Y-89972000D03*
X127600000Y-92512000D03*
X135220000Y-89972000D03*
X127600000Y-95052000D03*
X150460000Y-97592000D03*
X142840000Y-125532000D03*
X137760000Y-89972000D03*
X142840000Y-122992000D03*
X122520000Y-107752000D03*
X132680000Y-92512000D03*
X145380000Y-92512000D03*
X122520000Y-112832000D03*
X140300000Y-122992000D03*
X142840000Y-110292000D03*
X135220000Y-122992000D03*
X125060000Y-95052000D03*
X137760000Y-125532000D03*
X122520000Y-110292000D03*
X140300000Y-97592000D03*
X147920000Y-95052000D03*
X137760000Y-95052000D03*
X150460000Y-95052000D03*
X140300000Y-107752000D03*
X132680000Y-122992000D03*
X153000000Y-115372000D03*
X122520000Y-102672000D03*
X125060000Y-97592000D03*
X127600000Y-89972000D03*
X153000000Y-112832000D03*
X140300000Y-92512000D03*
X137760000Y-110292000D03*
X122520000Y-95052000D03*
X147920000Y-122992000D03*
X150460000Y-107752000D03*
X135220000Y-107752000D03*
X153000000Y-117912000D03*
X147920000Y-125532000D03*
X147920000Y-105212000D03*
X142840000Y-92512000D03*
X153000000Y-102672000D03*
X145380000Y-107752000D03*
X145380000Y-95052000D03*
X147920000Y-110292000D03*
X142840000Y-95052000D03*
X132680000Y-125532000D03*
X122520000Y-105212000D03*
X135220000Y-125532000D03*
X122520000Y-120452000D03*
X130140000Y-125532000D03*
X130140000Y-92512000D03*
X140300000Y-89972000D03*
X130140000Y-122992000D03*
X153000000Y-95052000D03*
X147920000Y-107752000D03*
X133823000Y-103053000D03*
%TO.N,VCC_3V3*%
X131495800Y-101549200D03*
X144618000Y-112882800D03*
%TO.N,/SYNC*%
X135077200Y-99695000D03*
X135077200Y-93980000D03*
%TO.N,GNDA*%
X131664000Y-104555213D03*
X126746000Y-102336600D03*
%TD*%
D10*
%TO.N,GND*%
X154178000Y-122428000D02*
X153670000Y-121920000D01*
D32*
%TO.N,VIN*%
X148590000Y-97282000D02*
X148590000Y-101351000D01*
X148590000Y-101351000D02*
X150114000Y-102875000D01*
D10*
%TO.N,VREG_5V*%
X131064000Y-104140000D02*
X131064000Y-105138064D01*
X127013000Y-105423000D02*
X126238000Y-105423000D01*
X127521000Y-105931000D02*
X127013000Y-105423000D01*
X130271064Y-105931000D02*
X127521000Y-105931000D01*
X131314000Y-103890000D02*
X131064000Y-104140000D01*
X131064000Y-105138064D02*
X130271064Y-105931000D01*
X132669999Y-103890000D02*
X131314000Y-103890000D01*
%TO.N,Net-(C6-Pad2)*%
X132067600Y-96520000D02*
X132067600Y-98222600D01*
%TO.N,VCC_3V3*%
X137859000Y-99060000D02*
X138684000Y-98235000D01*
D32*
X131483600Y-101537000D02*
X131495800Y-101549200D01*
X130302000Y-101537000D02*
X128307000Y-101537000D01*
X130302000Y-101537000D02*
X131483600Y-101537000D01*
D10*
X128270000Y-101574000D02*
X128270000Y-100641890D01*
X128270000Y-100641890D02*
X129851890Y-99060000D01*
X129851890Y-99060000D02*
X137859000Y-99060000D01*
%TO.N,/SS*%
X133370000Y-100323000D02*
X133370000Y-102189999D01*
X133858000Y-99835000D02*
X133370000Y-100323000D01*
%TO.N,/BST*%
X136570001Y-104390000D02*
X138439000Y-104390000D01*
%TO.N,/SW*%
X136570001Y-104890001D02*
X134758999Y-104890001D01*
X137389001Y-104890001D02*
X138684000Y-106185000D01*
X136570001Y-104890001D02*
X137389001Y-104890001D01*
%TO.N,/COMP*%
X132080000Y-100482400D02*
X132669999Y-101072399D01*
X130302000Y-99835000D02*
X132030000Y-99835000D01*
X132669999Y-101072399D02*
X132669999Y-102890000D01*
X132080000Y-99885000D02*
X132080000Y-100482400D01*
%TO.N,/RT*%
X136652000Y-99885000D02*
X135782110Y-99885000D01*
X135782110Y-99885000D02*
X134370000Y-101297110D01*
X134370000Y-101297110D02*
X134370000Y-102189999D01*
%TO.N,/PG*%
X135470471Y-100922430D02*
X134870000Y-101522901D01*
X137646570Y-100922430D02*
X135470471Y-100922430D01*
X134870000Y-101522901D02*
X134870000Y-102189999D01*
X138684000Y-99885000D02*
X137646570Y-100922430D01*
%TO.N,/FB*%
X128270000Y-103124000D02*
X130239000Y-103124000D01*
X130302000Y-104140000D02*
X130302000Y-103187000D01*
X132669999Y-103389999D02*
X130504999Y-103389999D01*
X130111000Y-104331000D02*
X130302000Y-104140000D01*
X130111000Y-104902000D02*
X130111000Y-104331000D01*
%TO.N,/SYNC*%
X133858000Y-102108000D02*
X133858000Y-101242010D01*
X134899400Y-100200610D02*
X134899400Y-99999800D01*
X135077200Y-99822000D02*
X135077200Y-99695000D01*
X134899400Y-99999800D02*
X135077200Y-99822000D01*
X135077200Y-93980000D02*
X136652000Y-93980000D01*
X133858000Y-101242010D02*
X134899400Y-100200610D01*
%TO.N,/EN*%
X141579600Y-99771200D02*
X145567400Y-99771200D01*
X135370001Y-101590000D02*
X135636571Y-101323430D01*
X140027370Y-101323430D02*
X141579600Y-99771200D01*
X146050000Y-99288600D02*
X146050000Y-97282000D01*
X135636571Y-101323430D02*
X140027370Y-101323430D01*
X145567400Y-99771200D02*
X146050000Y-99288600D01*
X135370001Y-102189999D02*
X135370001Y-101590000D01*
%TO.N,GNDA*%
X131804600Y-104390000D02*
X132669999Y-104390000D01*
X131664000Y-104555213D02*
X131704600Y-104514613D01*
X131704600Y-104514613D02*
X131704600Y-104490000D01*
X131704600Y-104490000D02*
X131804600Y-104390000D01*
%TD*%
%TA.AperFunction,Conductor*%
%TO.N,GND*%
G36*
X134137513Y-103084088D02*
G01*
X134137517Y-103084090D01*
X134197127Y-103090499D01*
X134542872Y-103090498D01*
X134602483Y-103084090D01*
X134602486Y-103084088D01*
X134606744Y-103083631D01*
X134633254Y-103083631D01*
X134637514Y-103084088D01*
X134637517Y-103084090D01*
X134697127Y-103090499D01*
X135042872Y-103090498D01*
X135042876Y-103090497D01*
X135042885Y-103090497D01*
X135059071Y-103088756D01*
X135102483Y-103084090D01*
X135102487Y-103084088D01*
X135106742Y-103083631D01*
X135133256Y-103083631D01*
X135137514Y-103084088D01*
X135137518Y-103084090D01*
X135197128Y-103090499D01*
X135541500Y-103090498D01*
X135608539Y-103110182D01*
X135654294Y-103162986D01*
X135665500Y-103214498D01*
X135665500Y-103860500D01*
X135645815Y-103927539D01*
X135593011Y-103973294D01*
X135541500Y-103984500D01*
X133694499Y-103984500D01*
X133687875Y-103982555D01*
X133681078Y-103983772D01*
X133654777Y-103972836D01*
X133627460Y-103964815D01*
X133622939Y-103959598D01*
X133616563Y-103956947D01*
X133600349Y-103933527D01*
X133581705Y-103912011D01*
X133579771Y-103903804D01*
X133576792Y-103899501D01*
X133572520Y-103873029D01*
X133570572Y-103864759D01*
X133570498Y-103862621D01*
X133570498Y-103717128D01*
X133564090Y-103657517D01*
X133563384Y-103655626D01*
X133562994Y-103644255D01*
X133563631Y-103641771D01*
X133563632Y-103626740D01*
X133570498Y-103562879D01*
X133570499Y-103562872D01*
X133570498Y-103217127D01*
X133570498Y-103214498D01*
X133590182Y-103147459D01*
X133642986Y-103101704D01*
X133694498Y-103090498D01*
X133697117Y-103090498D01*
X133697126Y-103090499D01*
X134042871Y-103090498D01*
X134042874Y-103090497D01*
X134042884Y-103090497D01*
X134059070Y-103088756D01*
X134102482Y-103084090D01*
X134102486Y-103084088D01*
X134106741Y-103083631D01*
X134133255Y-103083631D01*
X134137513Y-103084088D01*
G37*
%TD.AperFunction*%
%TA.AperFunction,Conductor*%
G36*
X155184539Y-88084185D02*
G01*
X155230294Y-88136989D01*
X155241500Y-88188500D01*
X155241500Y-126939500D01*
X155221815Y-127006539D01*
X155169011Y-127052294D01*
X155117500Y-127063500D01*
X121366500Y-127063500D01*
X121299461Y-127043815D01*
X121253706Y-126991011D01*
X121242500Y-126939500D01*
X121242500Y-110540791D01*
X123318778Y-110540791D01*
X123318778Y-110540804D01*
X123339409Y-110697513D01*
X123339410Y-110697515D01*
X123399898Y-110843547D01*
X123399899Y-110843549D01*
X123399900Y-110843550D01*
X123496125Y-110968953D01*
X123621528Y-111065178D01*
X123621529Y-111065178D01*
X123621530Y-111065179D01*
X123642915Y-111074037D01*
X123767563Y-111125668D01*
X123831486Y-111134083D01*
X123895381Y-111162349D01*
X123933853Y-111220673D01*
X123939300Y-111257022D01*
X123939300Y-114855826D01*
X123919615Y-114922865D01*
X123866811Y-114968620D01*
X123831790Y-114978725D01*
X123781137Y-114985521D01*
X123781136Y-114985521D01*
X123635259Y-115046369D01*
X123635253Y-115046372D01*
X123510088Y-115142907D01*
X123510087Y-115142908D01*
X123414175Y-115268547D01*
X123414175Y-115268548D01*
X123354046Y-115414731D01*
X123333802Y-115571495D01*
X123346502Y-120707498D01*
X123346502Y-120707502D01*
X123356673Y-120816531D01*
X123405567Y-120966848D01*
X123491699Y-121099387D01*
X123609198Y-121205116D01*
X123609200Y-121205117D01*
X123750061Y-121276834D01*
X123904685Y-121309649D01*
X123904684Y-121309649D01*
X124107604Y-121325554D01*
X124938245Y-121390661D01*
X124967954Y-121396708D01*
X125920988Y-121716106D01*
X125934792Y-121721675D01*
X126324116Y-121906683D01*
X126427212Y-121944640D01*
X126559342Y-121962051D01*
X126583916Y-121965290D01*
X126583917Y-121965290D01*
X126583925Y-121965291D01*
X149951925Y-121968194D01*
X150086958Y-121952962D01*
X150235132Y-121897920D01*
X150364011Y-121806403D01*
X152050011Y-120240848D01*
X152066153Y-120225292D01*
X152162378Y-120099889D01*
X152222868Y-119953854D01*
X152243500Y-119797139D01*
X152243500Y-111760000D01*
X152222868Y-111603285D01*
X152162378Y-111457250D01*
X152066153Y-111331847D01*
X151940750Y-111235622D01*
X151940749Y-111235621D01*
X151940747Y-111235620D01*
X151846344Y-111196517D01*
X151794715Y-111175132D01*
X151775125Y-111172553D01*
X151638007Y-111154500D01*
X151638000Y-111154500D01*
X150507308Y-111154500D01*
X150440269Y-111134815D01*
X150419627Y-111118181D01*
X149827408Y-110525962D01*
X149890993Y-110508925D01*
X150005007Y-110443099D01*
X150098099Y-110350007D01*
X150163925Y-110235993D01*
X150180962Y-110172409D01*
X150813270Y-110804717D01*
X150813270Y-110804716D01*
X150852622Y-110750554D01*
X150949095Y-110561217D01*
X151014757Y-110359130D01*
X151014757Y-110359127D01*
X151048000Y-110149246D01*
X151048000Y-109936753D01*
X151014757Y-109726872D01*
X151014757Y-109726869D01*
X150949095Y-109524782D01*
X150852624Y-109335449D01*
X150813270Y-109281282D01*
X150813269Y-109281282D01*
X150180962Y-109913590D01*
X150163925Y-109850007D01*
X150098099Y-109735993D01*
X150005007Y-109642901D01*
X149890993Y-109577075D01*
X149827409Y-109560037D01*
X150459716Y-108927728D01*
X150405550Y-108888375D01*
X150216217Y-108791904D01*
X150014129Y-108726242D01*
X149804246Y-108693000D01*
X149591754Y-108693000D01*
X149381872Y-108726242D01*
X149381869Y-108726242D01*
X149179782Y-108791904D01*
X148990439Y-108888380D01*
X148936282Y-108927727D01*
X148936282Y-108927728D01*
X149568591Y-109560037D01*
X149505007Y-109577075D01*
X149390993Y-109642901D01*
X149297901Y-109735993D01*
X149232075Y-109850007D01*
X149215037Y-109913591D01*
X148582728Y-109281282D01*
X148582727Y-109281282D01*
X148543380Y-109335439D01*
X148446904Y-109524782D01*
X148381242Y-109726869D01*
X148381242Y-109726872D01*
X148348000Y-109936753D01*
X148348000Y-110149246D01*
X148381242Y-110359127D01*
X148381242Y-110359130D01*
X148446904Y-110561217D01*
X148543375Y-110750550D01*
X148582728Y-110804716D01*
X149215037Y-110172408D01*
X149232075Y-110235993D01*
X149297901Y-110350007D01*
X149390993Y-110443099D01*
X149505007Y-110508925D01*
X149568591Y-110525962D01*
X148976373Y-111118181D01*
X148915050Y-111151666D01*
X148888692Y-111154500D01*
X147828000Y-111154500D01*
X147743180Y-111162898D01*
X147709250Y-111166258D01*
X147709249Y-111166258D01*
X146510081Y-111406092D01*
X146485763Y-111408500D01*
X135026385Y-111408500D01*
X134869684Y-111429139D01*
X134869683Y-111429139D01*
X134723649Y-111489637D01*
X134723646Y-111489639D01*
X134598260Y-111585860D01*
X134598253Y-111585866D01*
X134336385Y-111847760D01*
X134275064Y-111881248D01*
X134205372Y-111876267D01*
X134149436Y-111834398D01*
X134125016Y-111768935D01*
X134124700Y-111760083D01*
X134124700Y-111236611D01*
X134144385Y-111169572D01*
X134197189Y-111123817D01*
X134201217Y-111122063D01*
X134338545Y-111065180D01*
X134338546Y-111065180D01*
X134338546Y-111065179D01*
X134338550Y-111065178D01*
X134463953Y-110968953D01*
X134560178Y-110843550D01*
X134620668Y-110697515D01*
X134641300Y-110540800D01*
X134641300Y-107746800D01*
X134635409Y-107662544D01*
X134593171Y-107510225D01*
X134512949Y-107374028D01*
X134073084Y-106811000D01*
X134032585Y-106759161D01*
X134006824Y-106694213D01*
X134006300Y-106682821D01*
X134006300Y-106069500D01*
X134025985Y-106002461D01*
X134078789Y-105956706D01*
X134130300Y-105945500D01*
X135970000Y-105945500D01*
X136041940Y-105940355D01*
X136179992Y-105899819D01*
X136301032Y-105822031D01*
X136395254Y-105713294D01*
X136433280Y-105630026D01*
X136452480Y-105587988D01*
X136498235Y-105535184D01*
X136565274Y-105515500D01*
X137017872Y-105515500D01*
X137017873Y-105515500D01*
X137077484Y-105509092D01*
X137077483Y-105509092D01*
X137085197Y-105508263D01*
X137085377Y-105509945D01*
X137145767Y-105513179D01*
X137192202Y-105542437D01*
X137672181Y-106022416D01*
X137705666Y-106083739D01*
X137708500Y-106110097D01*
X137708500Y-106458337D01*
X137708501Y-106458355D01*
X137718650Y-106557707D01*
X137718651Y-106557710D01*
X137771996Y-106718694D01*
X137772001Y-106718705D01*
X137861029Y-106863040D01*
X137861032Y-106863044D01*
X137980955Y-106982967D01*
X137980959Y-106982970D01*
X138125294Y-107071998D01*
X138125297Y-107071999D01*
X138125303Y-107072003D01*
X138286292Y-107125349D01*
X138385655Y-107135500D01*
X138982344Y-107135499D01*
X138982352Y-107135498D01*
X138982355Y-107135498D01*
X139036760Y-107129940D01*
X139081708Y-107125349D01*
X139242697Y-107072003D01*
X139387044Y-106982968D01*
X139506968Y-106863044D01*
X139596003Y-106718697D01*
X139649349Y-106557708D01*
X139659500Y-106458345D01*
X139659499Y-105911656D01*
X139649349Y-105812292D01*
X139596003Y-105651303D01*
X139595999Y-105651297D01*
X139595998Y-105651294D01*
X139506970Y-105506959D01*
X139506967Y-105506955D01*
X139497693Y-105497681D01*
X139464208Y-105436358D01*
X139469192Y-105366666D01*
X139485758Y-105336158D01*
X139491212Y-105328799D01*
X139506968Y-105313044D01*
X139534748Y-105268007D01*
X139595998Y-105168705D01*
X139595997Y-105168705D01*
X139596003Y-105168697D01*
X139649349Y-105007708D01*
X139659500Y-104908345D01*
X139659499Y-104512693D01*
X139679183Y-104445655D01*
X139731987Y-104399900D01*
X139783141Y-104388695D01*
X148901286Y-104362449D01*
X148968379Y-104381940D01*
X148989321Y-104398767D01*
X149568591Y-104978037D01*
X149505007Y-104995075D01*
X149390993Y-105060901D01*
X149297901Y-105153993D01*
X149232075Y-105268007D01*
X149215037Y-105331591D01*
X148582728Y-104699282D01*
X148582727Y-104699282D01*
X148543380Y-104753439D01*
X148446904Y-104942782D01*
X148381242Y-105144869D01*
X148381242Y-105144872D01*
X148348000Y-105354753D01*
X148348000Y-105567246D01*
X148381242Y-105777127D01*
X148381242Y-105777130D01*
X148446904Y-105979217D01*
X148543375Y-106168550D01*
X148582728Y-106222716D01*
X149215037Y-105590408D01*
X149232075Y-105653993D01*
X149297901Y-105768007D01*
X149390993Y-105861099D01*
X149505007Y-105926925D01*
X149568590Y-105943962D01*
X148936282Y-106576269D01*
X148936282Y-106576270D01*
X148990449Y-106615624D01*
X149179782Y-106712095D01*
X149381870Y-106777757D01*
X149591754Y-106811000D01*
X149804246Y-106811000D01*
X150014127Y-106777757D01*
X150014130Y-106777757D01*
X150216217Y-106712095D01*
X150405554Y-106615622D01*
X150459716Y-106576270D01*
X150459717Y-106576270D01*
X149827408Y-105943962D01*
X149890993Y-105926925D01*
X150005007Y-105861099D01*
X150098099Y-105768007D01*
X150163925Y-105653993D01*
X150180962Y-105590409D01*
X150813270Y-106222717D01*
X150813270Y-106222716D01*
X150852622Y-106168554D01*
X150949095Y-105979217D01*
X151014757Y-105777130D01*
X151014757Y-105777127D01*
X151048000Y-105567246D01*
X151048000Y-105354753D01*
X151014757Y-105144872D01*
X151014757Y-105144869D01*
X150949095Y-104942782D01*
X150852624Y-104753449D01*
X150813270Y-104699282D01*
X150813269Y-104699282D01*
X150180962Y-105331590D01*
X150163925Y-105268007D01*
X150098099Y-105153993D01*
X150005007Y-105060901D01*
X149890993Y-104995075D01*
X149827409Y-104978037D01*
X150411275Y-104394169D01*
X150472598Y-104360684D01*
X150498587Y-104357852D01*
X151204650Y-104355820D01*
X151204664Y-104355818D01*
X151204666Y-104355818D01*
X151257428Y-104348992D01*
X151355301Y-104336332D01*
X151501778Y-104276922D01*
X151627888Y-104181625D01*
X151725037Y-104056935D01*
X151786602Y-103911350D01*
X151808391Y-103754792D01*
X151833831Y-100308097D01*
X151833845Y-100301924D01*
X151812772Y-100145267D01*
X151751871Y-99999403D01*
X151751870Y-99999401D01*
X151655292Y-99874270D01*
X151655287Y-99874265D01*
X151529624Y-99778402D01*
X151529614Y-99778397D01*
X151383420Y-99718322D01*
X151383415Y-99718321D01*
X151383413Y-99718320D01*
X151383409Y-99718320D01*
X151226645Y-99698130D01*
X151226643Y-99698130D01*
X151065651Y-99698583D01*
X149464849Y-99703088D01*
X149397754Y-99683592D01*
X149351851Y-99630917D01*
X149340500Y-99579088D01*
X149340500Y-98756499D01*
X149360185Y-98689460D01*
X149412989Y-98643705D01*
X149464500Y-98632499D01*
X149487871Y-98632499D01*
X149487872Y-98632499D01*
X149547483Y-98626091D01*
X149682331Y-98575796D01*
X149797546Y-98489546D01*
X149883796Y-98374331D01*
X149934091Y-98239483D01*
X149940500Y-98179873D01*
X149940499Y-96384128D01*
X149934091Y-96324517D01*
X149932810Y-96321083D01*
X149883797Y-96189671D01*
X149883793Y-96189664D01*
X149797547Y-96074455D01*
X149797544Y-96074452D01*
X149682335Y-95988206D01*
X149682328Y-95988202D01*
X149547482Y-95937908D01*
X149547483Y-95937908D01*
X149487883Y-95931501D01*
X149487881Y-95931500D01*
X149487873Y-95931500D01*
X149487864Y-95931500D01*
X147692129Y-95931500D01*
X147692123Y-95931501D01*
X147632516Y-95937908D01*
X147497671Y-95988202D01*
X147497664Y-95988206D01*
X147382455Y-96074452D01*
X147382452Y-96074455D01*
X147296206Y-96189664D01*
X147296203Y-96189669D01*
X147247189Y-96321083D01*
X147205317Y-96377016D01*
X147139853Y-96401433D01*
X147071580Y-96386581D01*
X147043326Y-96365430D01*
X146929786Y-96251890D01*
X146757820Y-96126951D01*
X146568414Y-96030444D01*
X146568413Y-96030443D01*
X146568412Y-96030443D01*
X146366243Y-95964754D01*
X146366241Y-95964753D01*
X146366240Y-95964753D01*
X146204957Y-95939208D01*
X146156287Y-95931500D01*
X145943713Y-95931500D01*
X145895042Y-95939208D01*
X145733760Y-95964753D01*
X145531585Y-96030444D01*
X145342179Y-96126951D01*
X145170213Y-96251890D01*
X145019890Y-96402213D01*
X144894949Y-96574182D01*
X144890202Y-96583499D01*
X144842227Y-96634293D01*
X144774405Y-96651087D01*
X144708271Y-96628548D01*
X144669234Y-96583495D01*
X144664626Y-96574452D01*
X144625270Y-96520282D01*
X144625269Y-96520282D01*
X143992962Y-97152590D01*
X143975925Y-97089007D01*
X143910099Y-96974993D01*
X143817007Y-96881901D01*
X143702993Y-96816075D01*
X143639409Y-96799037D01*
X144271716Y-96166728D01*
X144217550Y-96127375D01*
X144028217Y-96030904D01*
X143826129Y-95965242D01*
X143616246Y-95932000D01*
X143403754Y-95932000D01*
X143193872Y-95965242D01*
X143193869Y-95965242D01*
X142991782Y-96030904D01*
X142802439Y-96127380D01*
X142748282Y-96166727D01*
X142748282Y-96166728D01*
X143380591Y-96799037D01*
X143317007Y-96816075D01*
X143202993Y-96881901D01*
X143109901Y-96974993D01*
X143044075Y-97089007D01*
X143027037Y-97152591D01*
X142394728Y-96520282D01*
X142394727Y-96520282D01*
X142355380Y-96574439D01*
X142258904Y-96763782D01*
X142193242Y-96965869D01*
X142193242Y-96965872D01*
X142160000Y-97175753D01*
X142160000Y-97388246D01*
X142193242Y-97598127D01*
X142193242Y-97598130D01*
X142258904Y-97800217D01*
X142355375Y-97989550D01*
X142394728Y-98043716D01*
X143027037Y-97411408D01*
X143044075Y-97474993D01*
X143109901Y-97589007D01*
X143202993Y-97682099D01*
X143317007Y-97747925D01*
X143380590Y-97764962D01*
X142748282Y-98397269D01*
X142748282Y-98397270D01*
X142802449Y-98436624D01*
X142991782Y-98533095D01*
X143193870Y-98598757D01*
X143403754Y-98632000D01*
X143616246Y-98632000D01*
X143826127Y-98598757D01*
X143826130Y-98598757D01*
X144028217Y-98533095D01*
X144217554Y-98436622D01*
X144271716Y-98397270D01*
X144271717Y-98397270D01*
X143639408Y-97764962D01*
X143702993Y-97747925D01*
X143817007Y-97682099D01*
X143910099Y-97589007D01*
X143975925Y-97474993D01*
X143992962Y-97411409D01*
X144625270Y-98043717D01*
X144625270Y-98043716D01*
X144664622Y-97989555D01*
X144669232Y-97980507D01*
X144717205Y-97929709D01*
X144785025Y-97912912D01*
X144851161Y-97935447D01*
X144890204Y-97980504D01*
X144894949Y-97989817D01*
X145019890Y-98161786D01*
X145170213Y-98312109D01*
X145342184Y-98437051D01*
X145342184Y-98437052D01*
X145381793Y-98457233D01*
X145432590Y-98505206D01*
X145449500Y-98567718D01*
X145449500Y-98988503D01*
X145440855Y-99017943D01*
X145434332Y-99047930D01*
X145430577Y-99052945D01*
X145429815Y-99055542D01*
X145413181Y-99076184D01*
X145354984Y-99134381D01*
X145293661Y-99167866D01*
X145267303Y-99170700D01*
X141666270Y-99170700D01*
X141666254Y-99170699D01*
X141658658Y-99170699D01*
X141500543Y-99170699D01*
X141424179Y-99191161D01*
X141347814Y-99211623D01*
X141347809Y-99211626D01*
X141210890Y-99290675D01*
X141210882Y-99290681D01*
X139814954Y-100686611D01*
X139788026Y-100701314D01*
X139762208Y-100717907D01*
X139756007Y-100718798D01*
X139753631Y-100720096D01*
X139727273Y-100722930D01*
X139610303Y-100722930D01*
X139543264Y-100703245D01*
X139497509Y-100650441D01*
X139487565Y-100581283D01*
X139510851Y-100526761D01*
X139510591Y-100526604D01*
X139511708Y-100524754D01*
X139512689Y-100522460D01*
X139514464Y-100520192D01*
X139514472Y-100520185D01*
X139602478Y-100374606D01*
X139653086Y-100212196D01*
X139659500Y-100141616D01*
X139659500Y-99628384D01*
X139653086Y-99557804D01*
X139602478Y-99395394D01*
X139514472Y-99249815D01*
X139514470Y-99249813D01*
X139514469Y-99249811D01*
X139412339Y-99147681D01*
X139378854Y-99086358D01*
X139383838Y-99016666D01*
X139412339Y-98972319D01*
X139514468Y-98870189D01*
X139514469Y-98870188D01*
X139514472Y-98870185D01*
X139602478Y-98724606D01*
X139653086Y-98562196D01*
X139659500Y-98491616D01*
X139659500Y-97978384D01*
X139653086Y-97907804D01*
X139602478Y-97745394D01*
X139514472Y-97599815D01*
X139514470Y-97599813D01*
X139514469Y-97599811D01*
X139394188Y-97479530D01*
X139392014Y-97478216D01*
X139248606Y-97391522D01*
X139086196Y-97340914D01*
X139086194Y-97340913D01*
X139086192Y-97340913D01*
X139036778Y-97336423D01*
X139015616Y-97334500D01*
X138352384Y-97334500D01*
X138333145Y-97336248D01*
X138281807Y-97340913D01*
X138119393Y-97391522D01*
X137998009Y-97464902D01*
X137983170Y-97468819D01*
X137970372Y-97477287D01*
X137950077Y-97477556D01*
X137930454Y-97482738D01*
X137915854Y-97478011D01*
X137900509Y-97478216D01*
X137883290Y-97467470D01*
X137863980Y-97461220D01*
X137853371Y-97448800D01*
X137841234Y-97441226D01*
X137830042Y-97421488D01*
X137821759Y-97411791D01*
X137815136Y-97397785D01*
X137813875Y-97390585D01*
X137747230Y-97247254D01*
X137645760Y-97126056D01*
X137645756Y-97126052D01*
X137211648Y-96727387D01*
X137107621Y-96651087D01*
X137104427Y-96648744D01*
X137087611Y-96641794D01*
X136958345Y-96588368D01*
X136801614Y-96567858D01*
X136801610Y-96567858D01*
X135060314Y-96569214D01*
X135052379Y-96566891D01*
X135044212Y-96568177D01*
X135019341Y-96557218D01*
X134993259Y-96549582D01*
X134987839Y-96543337D01*
X134980274Y-96540004D01*
X134965274Y-96517336D01*
X134947463Y-96496813D01*
X134945283Y-96487126D01*
X134941717Y-96481736D01*
X134936228Y-96446875D01*
X134926914Y-95749908D01*
X134923587Y-95694099D01*
X134886531Y-95540436D01*
X134886529Y-95540432D01*
X134810968Y-95401600D01*
X134341740Y-94757136D01*
X134256164Y-94639601D01*
X134222465Y-94600185D01*
X134194821Y-94567851D01*
X134194819Y-94567849D01*
X134194817Y-94567847D01*
X134069414Y-94471622D01*
X134069410Y-94471620D01*
X134003246Y-94444214D01*
X133923379Y-94411132D01*
X133903789Y-94408553D01*
X133766671Y-94390500D01*
X133766664Y-94390500D01*
X130276600Y-94390500D01*
X130276561Y-94390500D01*
X130266045Y-94390591D01*
X130109709Y-94413953D01*
X129964748Y-94476982D01*
X129841050Y-94575374D01*
X129841041Y-94575382D01*
X125613266Y-98953255D01*
X125552536Y-98987804D01*
X125482768Y-98984036D01*
X125476616Y-98981677D01*
X125363351Y-98934761D01*
X125363343Y-98934759D01*
X125208797Y-98904018D01*
X125051202Y-98904018D01*
X124896656Y-98934759D01*
X124896648Y-98934761D01*
X124767705Y-98988171D01*
X125139765Y-99360230D01*
X125173250Y-99421553D01*
X125168266Y-99491244D01*
X125166646Y-99495362D01*
X125145132Y-99547302D01*
X125145132Y-99547303D01*
X125144248Y-99554018D01*
X125100163Y-99554018D01*
X125045032Y-99576854D01*
X125002836Y-99619050D01*
X124980000Y-99674181D01*
X124980000Y-99733855D01*
X125002836Y-99788986D01*
X125045032Y-99831182D01*
X125100163Y-99854018D01*
X125124500Y-99854018D01*
X125124500Y-100011708D01*
X125104815Y-100078747D01*
X125088181Y-100099389D01*
X124767705Y-100419863D01*
X124896652Y-100473275D01*
X124896656Y-100473276D01*
X125024691Y-100498744D01*
X125086602Y-100531128D01*
X125121176Y-100591844D01*
X125124500Y-100620361D01*
X125124500Y-104029440D01*
X125131939Y-104124056D01*
X125131941Y-104124071D01*
X125176809Y-104275628D01*
X125177602Y-104276922D01*
X125259379Y-104410416D01*
X125287906Y-104445655D01*
X125409533Y-104595900D01*
X125436415Y-104660392D01*
X125424162Y-104729179D01*
X125418694Y-104739018D01*
X125325998Y-104889300D01*
X125325996Y-104889305D01*
X125272651Y-105050290D01*
X125262500Y-105149647D01*
X125262500Y-105696337D01*
X125262501Y-105696355D01*
X125272650Y-105795707D01*
X125272651Y-105795710D01*
X125311019Y-105911496D01*
X125313421Y-105981325D01*
X125277689Y-106041366D01*
X125215169Y-106072559D01*
X125193313Y-106074500D01*
X123933791Y-106074500D01*
X123778526Y-106094747D01*
X123632344Y-106154876D01*
X123632343Y-106154876D01*
X123506703Y-106250790D01*
X123506702Y-106250791D01*
X123410168Y-106375956D01*
X123349318Y-106521843D01*
X123328299Y-106678506D01*
X123321237Y-109543000D01*
X123319842Y-110108826D01*
X123318780Y-110539377D01*
X123318778Y-110540791D01*
X121242500Y-110540791D01*
X121242500Y-99625220D01*
X124330000Y-99625220D01*
X124330000Y-99782815D01*
X124360741Y-99937361D01*
X124360743Y-99937369D01*
X124414153Y-100066311D01*
X124776446Y-99704019D01*
X124776446Y-99704017D01*
X124414153Y-99341723D01*
X124360743Y-99470666D01*
X124360741Y-99470674D01*
X124330000Y-99625220D01*
X121242500Y-99625220D01*
X121242500Y-93901153D01*
X134276700Y-93901153D01*
X134276700Y-94058846D01*
X134307461Y-94213489D01*
X134307464Y-94213501D01*
X134367802Y-94359172D01*
X134367809Y-94359185D01*
X134455410Y-94490288D01*
X134455413Y-94490292D01*
X134566907Y-94601786D01*
X134566911Y-94601789D01*
X134698014Y-94689390D01*
X134698027Y-94689397D01*
X134843698Y-94749735D01*
X134843703Y-94749737D01*
X134998353Y-94780499D01*
X134998356Y-94780500D01*
X134998358Y-94780500D01*
X135156044Y-94780500D01*
X135156045Y-94780499D01*
X135310697Y-94749737D01*
X135456379Y-94689394D01*
X135456385Y-94689390D01*
X135588075Y-94601398D01*
X135606121Y-94595747D01*
X135622031Y-94585523D01*
X135652992Y-94581071D01*
X135654753Y-94580520D01*
X135656966Y-94580500D01*
X135786216Y-94580500D01*
X135853255Y-94600185D01*
X135873897Y-94616819D01*
X136014214Y-94757136D01*
X136014218Y-94757139D01*
X136178079Y-94866628D01*
X136178092Y-94866635D01*
X136360160Y-94942049D01*
X136360165Y-94942051D01*
X136360169Y-94942051D01*
X136360170Y-94942052D01*
X136553456Y-94980500D01*
X136553459Y-94980500D01*
X136750543Y-94980500D01*
X136880582Y-94954632D01*
X136943835Y-94942051D01*
X137125914Y-94866632D01*
X137289782Y-94757139D01*
X137429139Y-94617782D01*
X137538632Y-94453914D01*
X137614051Y-94271835D01*
X137652500Y-94078541D01*
X137652500Y-93881459D01*
X137652500Y-93881456D01*
X137614052Y-93688170D01*
X137614051Y-93688169D01*
X137614051Y-93688165D01*
X137577872Y-93600821D01*
X137538635Y-93506092D01*
X137538628Y-93506079D01*
X137429139Y-93342218D01*
X137429136Y-93342214D01*
X137289785Y-93202863D01*
X137289781Y-93202860D01*
X137125920Y-93093371D01*
X137125907Y-93093364D01*
X136943839Y-93017950D01*
X136943829Y-93017947D01*
X136750543Y-92979500D01*
X136750541Y-92979500D01*
X136553459Y-92979500D01*
X136553457Y-92979500D01*
X136360170Y-93017947D01*
X136360160Y-93017950D01*
X136178092Y-93093364D01*
X136178079Y-93093371D01*
X136014218Y-93202860D01*
X136014214Y-93202863D01*
X135873897Y-93343181D01*
X135846969Y-93357884D01*
X135821151Y-93374477D01*
X135814950Y-93375368D01*
X135812574Y-93376666D01*
X135786216Y-93379500D01*
X135656966Y-93379500D01*
X135589927Y-93359815D01*
X135588075Y-93358602D01*
X135456385Y-93270609D01*
X135456372Y-93270602D01*
X135310701Y-93210264D01*
X135310689Y-93210261D01*
X135156045Y-93179500D01*
X135156042Y-93179500D01*
X134998358Y-93179500D01*
X134998355Y-93179500D01*
X134843710Y-93210261D01*
X134843698Y-93210264D01*
X134698027Y-93270602D01*
X134698014Y-93270609D01*
X134566911Y-93358210D01*
X134566907Y-93358213D01*
X134455413Y-93469707D01*
X134455410Y-93469711D01*
X134367809Y-93600814D01*
X134367802Y-93600827D01*
X134307464Y-93746498D01*
X134307461Y-93746510D01*
X134276700Y-93901153D01*
X121242500Y-93901153D01*
X121242500Y-88188500D01*
X121262185Y-88121461D01*
X121314989Y-88075706D01*
X121366500Y-88064500D01*
X155117500Y-88064500D01*
X155184539Y-88084185D01*
G37*
%TD.AperFunction*%
%TD*%
M02*
