%TF.GenerationSoftware,KiCad,Pcbnew,9.0.5*%
%TF.CreationDate,2025-10-20T16:26:16+05:30*%
%TF.ProjectId,adp2384,61647032-3338-4342-9e6b-696361645f70,A1*%
%TF.SameCoordinates,Original*%
%TF.FileFunction,Legend,Top*%
%TF.FilePolarity,Positive*%
%FSLAX46Y46*%
G04 Gerber Fmt 4.6, Leading zero omitted, Abs format (unit mm)*
G04 Created by KiCad (PCBNEW 9.0.5) date 2025-10-20 16:26:16*
%MOMM*%
%LPD*%
G01*
G04 APERTURE LIST*
%ADD10C,0.000000*%
%ADD11C,0.125000*%
%ADD12C,0.200000*%
%ADD13C,0.150000*%
%ADD14C,0.120000*%
%ADD15C,0.152400*%
G04 APERTURE END LIST*
D10*
G36*
X129860666Y-125275447D02*
G01*
X127841366Y-125275447D01*
X127841366Y-125017994D01*
X127841366Y-123561900D01*
X128256987Y-123561900D01*
X128256987Y-125017994D01*
X129523124Y-124273735D01*
X128256987Y-123561900D01*
X127841366Y-123561900D01*
X127841366Y-123246000D01*
X129860666Y-123246000D01*
X129860666Y-125275447D01*
G37*
D11*
G36*
X153950903Y-102310172D02*
G01*
X151556221Y-102310172D01*
X151556221Y-101132288D01*
X151667332Y-101132288D01*
X151670381Y-101156483D01*
X152003714Y-102156483D01*
X152015792Y-102177669D01*
X152019968Y-102179757D01*
X152022057Y-102183934D01*
X152040852Y-102190199D01*
X152058576Y-102199061D01*
X152063007Y-102197584D01*
X152067438Y-102199061D01*
X152085162Y-102190199D01*
X152103957Y-102183934D01*
X152106045Y-102179757D01*
X152110222Y-102177669D01*
X152122300Y-102156483D01*
X152455633Y-101156484D01*
X152458124Y-101136719D01*
X152667174Y-101136719D01*
X152667174Y-102136719D01*
X152671932Y-102160637D01*
X152705756Y-102194461D01*
X152753592Y-102194461D01*
X152787416Y-102160637D01*
X152792174Y-102136719D01*
X152792174Y-101136719D01*
X153143364Y-101136719D01*
X153143364Y-102136719D01*
X153148122Y-102160637D01*
X153181946Y-102194461D01*
X153229782Y-102194461D01*
X153263606Y-102160637D01*
X153268364Y-102136719D01*
X153268364Y-101372066D01*
X153723027Y-102167728D01*
X153739025Y-102186134D01*
X153747305Y-102188392D01*
X153753374Y-102194461D01*
X153769557Y-102194461D01*
X153785173Y-102198720D01*
X153792626Y-102194461D01*
X153801210Y-102194461D01*
X153812653Y-102183017D01*
X153826707Y-102174987D01*
X153828965Y-102166705D01*
X153835034Y-102160637D01*
X153839792Y-102136719D01*
X153839792Y-101136719D01*
X153835034Y-101112801D01*
X153801210Y-101078977D01*
X153753374Y-101078977D01*
X153719550Y-101112801D01*
X153714792Y-101136719D01*
X153714792Y-101901371D01*
X153260129Y-101105710D01*
X153244131Y-101087304D01*
X153235850Y-101085045D01*
X153229782Y-101078977D01*
X153213599Y-101078977D01*
X153197983Y-101074718D01*
X153190530Y-101078977D01*
X153181946Y-101078977D01*
X153170500Y-101090422D01*
X153156449Y-101098452D01*
X153154190Y-101106732D01*
X153148122Y-101112801D01*
X153143364Y-101136719D01*
X152792174Y-101136719D01*
X152787416Y-101112801D01*
X152753592Y-101078977D01*
X152705756Y-101078977D01*
X152671932Y-101112801D01*
X152667174Y-101136719D01*
X152458124Y-101136719D01*
X152458682Y-101132288D01*
X152437290Y-101089504D01*
X152391909Y-101074377D01*
X152349125Y-101095769D01*
X152337047Y-101116955D01*
X152063007Y-101939075D01*
X151788967Y-101116955D01*
X151776889Y-101095769D01*
X151734105Y-101074377D01*
X151688724Y-101089504D01*
X151667332Y-101132288D01*
X151556221Y-101132288D01*
X151556221Y-100963266D01*
X153950903Y-100963266D01*
X153950903Y-102310172D01*
G37*
G36*
X150318703Y-95096572D02*
G01*
X147924021Y-95096572D01*
X147924021Y-93918688D01*
X148035132Y-93918688D01*
X148038181Y-93942883D01*
X148371514Y-94942883D01*
X148383592Y-94964069D01*
X148387768Y-94966157D01*
X148389857Y-94970334D01*
X148408652Y-94976599D01*
X148426376Y-94985461D01*
X148430807Y-94983984D01*
X148435238Y-94985461D01*
X148452962Y-94976599D01*
X148471757Y-94970334D01*
X148473845Y-94966157D01*
X148478022Y-94964069D01*
X148490100Y-94942883D01*
X148823433Y-93942884D01*
X148825924Y-93923119D01*
X149034974Y-93923119D01*
X149034974Y-94923119D01*
X149039732Y-94947037D01*
X149073556Y-94980861D01*
X149121392Y-94980861D01*
X149155216Y-94947037D01*
X149159974Y-94923119D01*
X149159974Y-93923119D01*
X149511164Y-93923119D01*
X149511164Y-94923119D01*
X149515922Y-94947037D01*
X149549746Y-94980861D01*
X149597582Y-94980861D01*
X149631406Y-94947037D01*
X149636164Y-94923119D01*
X149636164Y-94158466D01*
X150090827Y-94954128D01*
X150106825Y-94972534D01*
X150115105Y-94974792D01*
X150121174Y-94980861D01*
X150137357Y-94980861D01*
X150152973Y-94985120D01*
X150160426Y-94980861D01*
X150169010Y-94980861D01*
X150180453Y-94969417D01*
X150194507Y-94961387D01*
X150196765Y-94953105D01*
X150202834Y-94947037D01*
X150207592Y-94923119D01*
X150207592Y-93923119D01*
X150202834Y-93899201D01*
X150169010Y-93865377D01*
X150121174Y-93865377D01*
X150087350Y-93899201D01*
X150082592Y-93923119D01*
X150082592Y-94687771D01*
X149627929Y-93892110D01*
X149611931Y-93873704D01*
X149603650Y-93871445D01*
X149597582Y-93865377D01*
X149581399Y-93865377D01*
X149565783Y-93861118D01*
X149558330Y-93865377D01*
X149549746Y-93865377D01*
X149538300Y-93876822D01*
X149524249Y-93884852D01*
X149521990Y-93893132D01*
X149515922Y-93899201D01*
X149511164Y-93923119D01*
X149159974Y-93923119D01*
X149155216Y-93899201D01*
X149121392Y-93865377D01*
X149073556Y-93865377D01*
X149039732Y-93899201D01*
X149034974Y-93923119D01*
X148825924Y-93923119D01*
X148826482Y-93918688D01*
X148805090Y-93875904D01*
X148759709Y-93860777D01*
X148716925Y-93882169D01*
X148704847Y-93903355D01*
X148430807Y-94725475D01*
X148156767Y-93903355D01*
X148144689Y-93882169D01*
X148101905Y-93860777D01*
X148056524Y-93875904D01*
X148035132Y-93918688D01*
X147924021Y-93918688D01*
X147924021Y-93749666D01*
X150318703Y-93749666D01*
X150318703Y-95096572D01*
G37*
G36*
X154114941Y-108909765D02*
G01*
X154192573Y-108987397D01*
X154232589Y-109067430D01*
X154276678Y-109243784D01*
X154276678Y-109371253D01*
X154232589Y-109547607D01*
X154192572Y-109627640D01*
X154114941Y-109705272D01*
X153995702Y-109745019D01*
X153830250Y-109745019D01*
X153830250Y-108870019D01*
X153995702Y-108870019D01*
X154114941Y-108909765D01*
G37*
G36*
X154512789Y-109981130D02*
G01*
X151498901Y-109981130D01*
X151498901Y-109236090D01*
X151610012Y-109236090D01*
X151610012Y-109378947D01*
X151611505Y-109386456D01*
X151611878Y-109394105D01*
X151659497Y-109584581D01*
X151662420Y-109590769D01*
X151664229Y-109597374D01*
X151711848Y-109692612D01*
X151717995Y-109700533D01*
X151723556Y-109708855D01*
X151818794Y-109804094D01*
X151821397Y-109805833D01*
X151822038Y-109807115D01*
X151830736Y-109812074D01*
X151839071Y-109817643D01*
X151840505Y-109817643D01*
X151843224Y-109819193D01*
X151986080Y-109866812D01*
X151996020Y-109868064D01*
X152005845Y-109870019D01*
X152101083Y-109870019D01*
X152110908Y-109868064D01*
X152120847Y-109866812D01*
X152263704Y-109819193D01*
X152266424Y-109817642D01*
X152267858Y-109817642D01*
X152276191Y-109812073D01*
X152284890Y-109807115D01*
X152285530Y-109805834D01*
X152288135Y-109804094D01*
X152335754Y-109756474D01*
X152349298Y-109736200D01*
X152349301Y-109736198D01*
X152354059Y-109712280D01*
X152354059Y-109378947D01*
X152349301Y-109355029D01*
X152315477Y-109321205D01*
X152291559Y-109316447D01*
X152101083Y-109316447D01*
X152077165Y-109321205D01*
X152043341Y-109355029D01*
X152043341Y-109402865D01*
X152077165Y-109436689D01*
X152101083Y-109441447D01*
X152229059Y-109441447D01*
X152229059Y-109686391D01*
X152210178Y-109705272D01*
X152090940Y-109745019D01*
X152015988Y-109745019D01*
X151896750Y-109705273D01*
X151819117Y-109627640D01*
X151779100Y-109547607D01*
X151735012Y-109371252D01*
X151735012Y-109243784D01*
X151779100Y-109067429D01*
X151819117Y-108987397D01*
X151896748Y-108909765D01*
X152015988Y-108870019D01*
X152133947Y-108870019D01*
X152215989Y-108911040D01*
X152239510Y-108917480D01*
X152284889Y-108902354D01*
X152306282Y-108859568D01*
X152291156Y-108814188D01*
X152282563Y-108807519D01*
X152657631Y-108807519D01*
X152657631Y-109807519D01*
X152662389Y-109831437D01*
X152696213Y-109865261D01*
X152744049Y-109865261D01*
X152777873Y-109831437D01*
X152782631Y-109807519D01*
X152782631Y-109042866D01*
X153237294Y-109838528D01*
X153253292Y-109856934D01*
X153261572Y-109859192D01*
X153267641Y-109865261D01*
X153283824Y-109865261D01*
X153299440Y-109869520D01*
X153306893Y-109865261D01*
X153315477Y-109865261D01*
X153326920Y-109853817D01*
X153340974Y-109845787D01*
X153343232Y-109837505D01*
X153349301Y-109831437D01*
X153354059Y-109807519D01*
X153354059Y-108807519D01*
X153705250Y-108807519D01*
X153705250Y-109807519D01*
X153710008Y-109831437D01*
X153743832Y-109865261D01*
X153767750Y-109870019D01*
X154005845Y-109870019D01*
X154015670Y-109868064D01*
X154025609Y-109866812D01*
X154168466Y-109819193D01*
X154171187Y-109817642D01*
X154172619Y-109817642D01*
X154180947Y-109812077D01*
X154189652Y-109807115D01*
X154190292Y-109805833D01*
X154192896Y-109804094D01*
X154288135Y-109708855D01*
X154293701Y-109700523D01*
X154299842Y-109692612D01*
X154347461Y-109597374D01*
X154349269Y-109590769D01*
X154352193Y-109584581D01*
X154399812Y-109394106D01*
X154400184Y-109386456D01*
X154401678Y-109378947D01*
X154401678Y-109236090D01*
X154400184Y-109228580D01*
X154399812Y-109220931D01*
X154352193Y-109030456D01*
X154349269Y-109024267D01*
X154347461Y-109017663D01*
X154299842Y-108922425D01*
X154293694Y-108914503D01*
X154288134Y-108906182D01*
X154192896Y-108810944D01*
X154190292Y-108809204D01*
X154189652Y-108807923D01*
X154180947Y-108802960D01*
X154172619Y-108797396D01*
X154171187Y-108797396D01*
X154168466Y-108795845D01*
X154025609Y-108748226D01*
X154015670Y-108746973D01*
X154005845Y-108745019D01*
X153767750Y-108745019D01*
X153743832Y-108749777D01*
X153710008Y-108783601D01*
X153705250Y-108807519D01*
X153354059Y-108807519D01*
X153349301Y-108783601D01*
X153315477Y-108749777D01*
X153267641Y-108749777D01*
X153233817Y-108783601D01*
X153229059Y-108807519D01*
X153229059Y-109572171D01*
X152774396Y-108776510D01*
X152758398Y-108758104D01*
X152750117Y-108755845D01*
X152744049Y-108749777D01*
X152727866Y-108749777D01*
X152712250Y-108745518D01*
X152704797Y-108749777D01*
X152696213Y-108749777D01*
X152684767Y-108761222D01*
X152670716Y-108769252D01*
X152668457Y-108777532D01*
X152662389Y-108783601D01*
X152657631Y-108807519D01*
X152282563Y-108807519D01*
X152271891Y-108799236D01*
X152176653Y-108751617D01*
X152173633Y-108750790D01*
X152172620Y-108749777D01*
X152162792Y-108747822D01*
X152153132Y-108745177D01*
X152151773Y-108745629D01*
X152148702Y-108745019D01*
X152005845Y-108745019D01*
X151996020Y-108746973D01*
X151986080Y-108748226D01*
X151843224Y-108795845D01*
X151840503Y-108797396D01*
X151839071Y-108797396D01*
X151830742Y-108802960D01*
X151822038Y-108807923D01*
X151821397Y-108809204D01*
X151818794Y-108810944D01*
X151723556Y-108906182D01*
X151717995Y-108914503D01*
X151711848Y-108922425D01*
X151664229Y-109017663D01*
X151662420Y-109024267D01*
X151659497Y-109030456D01*
X151611878Y-109220932D01*
X151611505Y-109228580D01*
X151610012Y-109236090D01*
X151498901Y-109236090D01*
X151498901Y-108633908D01*
X154512789Y-108633908D01*
X154512789Y-109981130D01*
G37*
G36*
X139137755Y-91794730D02*
G01*
X135319101Y-91794730D01*
X135319101Y-90811595D01*
X135430212Y-90811595D01*
X135430212Y-90906833D01*
X135430822Y-90909904D01*
X135430370Y-90911263D01*
X135433015Y-90920923D01*
X135434970Y-90930751D01*
X135435983Y-90931764D01*
X135436810Y-90934784D01*
X135484429Y-91030022D01*
X135490576Y-91037943D01*
X135496137Y-91046265D01*
X135543756Y-91093884D01*
X135552077Y-91099444D01*
X135559999Y-91105592D01*
X135655237Y-91153211D01*
X135661841Y-91155019D01*
X135668030Y-91157943D01*
X135851848Y-91203897D01*
X135931881Y-91243914D01*
X135965154Y-91277187D01*
X136001640Y-91350159D01*
X136001640Y-91415887D01*
X135965154Y-91488857D01*
X135931878Y-91522134D01*
X135858909Y-91558619D01*
X135645712Y-91558619D01*
X135512476Y-91514207D01*
X135488281Y-91511158D01*
X135445497Y-91532550D01*
X135430370Y-91577931D01*
X135451762Y-91620715D01*
X135472948Y-91632793D01*
X135615804Y-91680412D01*
X135625744Y-91681664D01*
X135635569Y-91683619D01*
X135873664Y-91683619D01*
X135876735Y-91683008D01*
X135878094Y-91683461D01*
X135887754Y-91680815D01*
X135897582Y-91678861D01*
X135898595Y-91677847D01*
X135901615Y-91677021D01*
X135996853Y-91629402D01*
X136004768Y-91623258D01*
X136013097Y-91617694D01*
X136060716Y-91570074D01*
X136066279Y-91561746D01*
X136072423Y-91553831D01*
X136120042Y-91458593D01*
X136120868Y-91455573D01*
X136121882Y-91454560D01*
X136123836Y-91444732D01*
X136126482Y-91435072D01*
X136126029Y-91433713D01*
X136126640Y-91430642D01*
X136126640Y-91335404D01*
X136126029Y-91332332D01*
X136126482Y-91330974D01*
X136123836Y-91321313D01*
X136121882Y-91311486D01*
X136120868Y-91310472D01*
X136120042Y-91307453D01*
X136072423Y-91212215D01*
X136066275Y-91204293D01*
X136060715Y-91195972D01*
X136013096Y-91148353D01*
X136004774Y-91142792D01*
X135996853Y-91136645D01*
X135901615Y-91089026D01*
X135895010Y-91087217D01*
X135888822Y-91084294D01*
X135705004Y-91038339D01*
X135624971Y-90998323D01*
X135591698Y-90965050D01*
X135555212Y-90892078D01*
X135555212Y-90826350D01*
X135591698Y-90753378D01*
X135624971Y-90720105D01*
X135697943Y-90683619D01*
X135911140Y-90683619D01*
X136044375Y-90728031D01*
X136068571Y-90731080D01*
X136111355Y-90709688D01*
X136126482Y-90664307D01*
X136110299Y-90631941D01*
X136288299Y-90631941D01*
X136297126Y-90654674D01*
X136620688Y-91163128D01*
X136620688Y-91621119D01*
X136625446Y-91645037D01*
X136659270Y-91678861D01*
X136707106Y-91678861D01*
X136740930Y-91645037D01*
X136745688Y-91621119D01*
X136745688Y-91163128D01*
X137069250Y-90654674D01*
X137078077Y-90631940D01*
X137075672Y-90621119D01*
X137287355Y-90621119D01*
X137287355Y-91621119D01*
X137292113Y-91645037D01*
X137325937Y-91678861D01*
X137373773Y-91678861D01*
X137407597Y-91645037D01*
X137412355Y-91621119D01*
X137412355Y-90856466D01*
X137867018Y-91652128D01*
X137883016Y-91670534D01*
X137891296Y-91672792D01*
X137897365Y-91678861D01*
X137913548Y-91678861D01*
X137929164Y-91683120D01*
X137936617Y-91678861D01*
X137945201Y-91678861D01*
X137956644Y-91667417D01*
X137970698Y-91659387D01*
X137972956Y-91651105D01*
X137979025Y-91645037D01*
X137983783Y-91621119D01*
X137983783Y-91049690D01*
X138287355Y-91049690D01*
X138287355Y-91192547D01*
X138288848Y-91200056D01*
X138289221Y-91207705D01*
X138336840Y-91398181D01*
X138339763Y-91404369D01*
X138341572Y-91410974D01*
X138389191Y-91506212D01*
X138395338Y-91514133D01*
X138400899Y-91522455D01*
X138496137Y-91617694D01*
X138498740Y-91619433D01*
X138499381Y-91620715D01*
X138508079Y-91625674D01*
X138516414Y-91631243D01*
X138517848Y-91631243D01*
X138520567Y-91632793D01*
X138663423Y-91680412D01*
X138673363Y-91681664D01*
X138683188Y-91683619D01*
X138778426Y-91683619D01*
X138788251Y-91681664D01*
X138798190Y-91680412D01*
X138941047Y-91632793D01*
X138943767Y-91631242D01*
X138945201Y-91631242D01*
X138953534Y-91625673D01*
X138962233Y-91620715D01*
X138962873Y-91619434D01*
X138965478Y-91617694D01*
X139013097Y-91570074D01*
X139026644Y-91549797D01*
X139026644Y-91501962D01*
X138992818Y-91468138D01*
X138944984Y-91468138D01*
X138924707Y-91481686D01*
X138887521Y-91518872D01*
X138768283Y-91558619D01*
X138693331Y-91558619D01*
X138574093Y-91518873D01*
X138496460Y-91441240D01*
X138456443Y-91361207D01*
X138412355Y-91184852D01*
X138412355Y-91057384D01*
X138456443Y-90881029D01*
X138496460Y-90800997D01*
X138574091Y-90723365D01*
X138693331Y-90683619D01*
X138768283Y-90683619D01*
X138887522Y-90723365D01*
X138924708Y-90760551D01*
X138944985Y-90774099D01*
X138992819Y-90774099D01*
X139026644Y-90740274D01*
X139026644Y-90692440D01*
X139013096Y-90672163D01*
X138965477Y-90624544D01*
X138962873Y-90622804D01*
X138962233Y-90621523D01*
X138953528Y-90616560D01*
X138945200Y-90610996D01*
X138943768Y-90610996D01*
X138941047Y-90609445D01*
X138798190Y-90561826D01*
X138788251Y-90560573D01*
X138778426Y-90558619D01*
X138683188Y-90558619D01*
X138673363Y-90560573D01*
X138663423Y-90561826D01*
X138520567Y-90609445D01*
X138517846Y-90610996D01*
X138516414Y-90610996D01*
X138508085Y-90616560D01*
X138499381Y-90621523D01*
X138498740Y-90622804D01*
X138496137Y-90624544D01*
X138400899Y-90719782D01*
X138395338Y-90728103D01*
X138389191Y-90736025D01*
X138341572Y-90831263D01*
X138339763Y-90837867D01*
X138336840Y-90844056D01*
X138289221Y-91034532D01*
X138288848Y-91042180D01*
X138287355Y-91049690D01*
X137983783Y-91049690D01*
X137983783Y-90621119D01*
X137979025Y-90597201D01*
X137945201Y-90563377D01*
X137897365Y-90563377D01*
X137863541Y-90597201D01*
X137858783Y-90621119D01*
X137858783Y-91385771D01*
X137404120Y-90590110D01*
X137388122Y-90571704D01*
X137379841Y-90569445D01*
X137373773Y-90563377D01*
X137357590Y-90563377D01*
X137341974Y-90559118D01*
X137334521Y-90563377D01*
X137325937Y-90563377D01*
X137314491Y-90574822D01*
X137300440Y-90582852D01*
X137298181Y-90591132D01*
X137292113Y-90597201D01*
X137287355Y-90621119D01*
X137075672Y-90621119D01*
X137067700Y-90585245D01*
X137027343Y-90559563D01*
X136980647Y-90569940D01*
X136963792Y-90587564D01*
X136683188Y-91028513D01*
X136402584Y-90587564D01*
X136385729Y-90569940D01*
X136339033Y-90559563D01*
X136298676Y-90585245D01*
X136288299Y-90631941D01*
X136110299Y-90631941D01*
X136105090Y-90621523D01*
X136083904Y-90609445D01*
X135941047Y-90561826D01*
X135931108Y-90560573D01*
X135921283Y-90558619D01*
X135683188Y-90558619D01*
X135680116Y-90559229D01*
X135678758Y-90558777D01*
X135669097Y-90561422D01*
X135659270Y-90563377D01*
X135658256Y-90564390D01*
X135655237Y-90565217D01*
X135559999Y-90612836D01*
X135552077Y-90618983D01*
X135543756Y-90624544D01*
X135496137Y-90672163D01*
X135490576Y-90680484D01*
X135484429Y-90688406D01*
X135436810Y-90783644D01*
X135435983Y-90786663D01*
X135434970Y-90787677D01*
X135433015Y-90797504D01*
X135430370Y-90807165D01*
X135430822Y-90808523D01*
X135430212Y-90811595D01*
X135319101Y-90811595D01*
X135319101Y-90447508D01*
X139137755Y-90447508D01*
X139137755Y-91794730D01*
G37*
G36*
X152940243Y-113427705D02*
G01*
X153016066Y-113503528D01*
X153057621Y-113669746D01*
X153057621Y-113987691D01*
X153016066Y-114153908D01*
X152940242Y-114229733D01*
X152867271Y-114266219D01*
X152706305Y-114266219D01*
X152633335Y-114229734D01*
X152557509Y-114153908D01*
X152515955Y-113987690D01*
X152515955Y-113669746D01*
X152557509Y-113503528D01*
X152633333Y-113427705D01*
X152706305Y-113391219D01*
X152867271Y-113391219D01*
X152940243Y-113427705D01*
G37*
G36*
X155193736Y-114502330D02*
G01*
X151327621Y-114502330D01*
X151327621Y-113324288D01*
X151438732Y-113324288D01*
X151441781Y-113348483D01*
X151775114Y-114348483D01*
X151787192Y-114369669D01*
X151791368Y-114371757D01*
X151793457Y-114375934D01*
X151812252Y-114382199D01*
X151829976Y-114391061D01*
X151834407Y-114389584D01*
X151838838Y-114391061D01*
X151856562Y-114382199D01*
X151875357Y-114375934D01*
X151877445Y-114371757D01*
X151881622Y-114369669D01*
X151893700Y-114348483D01*
X152122510Y-113662052D01*
X152390955Y-113662052D01*
X152390955Y-113995385D01*
X152392448Y-114002894D01*
X152392821Y-114010543D01*
X152440440Y-114201019D01*
X152443332Y-114207140D01*
X152443332Y-114209778D01*
X152447585Y-114216144D01*
X152450857Y-114223069D01*
X152453119Y-114224426D01*
X152456880Y-114230055D01*
X152552118Y-114325294D01*
X152560443Y-114330857D01*
X152568361Y-114337002D01*
X152663599Y-114384621D01*
X152666618Y-114385447D01*
X152667632Y-114386461D01*
X152677459Y-114388415D01*
X152687120Y-114391061D01*
X152688478Y-114390608D01*
X152691550Y-114391219D01*
X152882026Y-114391219D01*
X152885097Y-114390608D01*
X152886456Y-114391061D01*
X152896116Y-114388415D01*
X152905944Y-114386461D01*
X152906957Y-114385447D01*
X152909977Y-114384621D01*
X153005215Y-114337002D01*
X153013136Y-114330854D01*
X153021458Y-114325294D01*
X153116697Y-114230055D01*
X153120458Y-114224425D01*
X153122719Y-114223069D01*
X153125988Y-114216149D01*
X153130245Y-114209778D01*
X153130245Y-114207138D01*
X153133136Y-114201019D01*
X153180755Y-114010544D01*
X153181127Y-114002894D01*
X153182621Y-113995385D01*
X153182621Y-113662052D01*
X153181127Y-113654542D01*
X153180755Y-113646893D01*
X153133136Y-113456418D01*
X153130244Y-113450296D01*
X153130244Y-113447659D01*
X153125990Y-113441292D01*
X153122719Y-113434368D01*
X153120456Y-113433010D01*
X153116696Y-113427382D01*
X153021458Y-113332144D01*
X153016333Y-113328719D01*
X153486193Y-113328719D01*
X153486193Y-114138242D01*
X153486803Y-114141313D01*
X153486351Y-114142672D01*
X153488996Y-114152332D01*
X153490951Y-114162160D01*
X153491964Y-114163173D01*
X153492791Y-114166193D01*
X153540410Y-114261431D01*
X153546550Y-114269342D01*
X153552117Y-114277674D01*
X153599736Y-114325294D01*
X153608064Y-114330858D01*
X153615980Y-114337002D01*
X153711218Y-114384621D01*
X153714237Y-114385447D01*
X153715251Y-114386461D01*
X153725078Y-114388415D01*
X153734739Y-114391061D01*
X153736097Y-114390608D01*
X153739169Y-114391219D01*
X153929645Y-114391219D01*
X153932716Y-114390608D01*
X153934075Y-114391061D01*
X153943735Y-114388415D01*
X153953563Y-114386461D01*
X153954576Y-114385447D01*
X153957596Y-114384621D01*
X154052834Y-114337002D01*
X154060749Y-114330858D01*
X154069078Y-114325294D01*
X154116697Y-114277674D01*
X154122260Y-114269346D01*
X154128404Y-114261431D01*
X154176023Y-114166193D01*
X154176849Y-114163173D01*
X154177863Y-114162160D01*
X154179817Y-114152332D01*
X154182463Y-114142672D01*
X154182010Y-114141313D01*
X154182621Y-114138242D01*
X154182621Y-113328719D01*
X154177863Y-113304801D01*
X154395713Y-113304801D01*
X154395713Y-113352637D01*
X154429537Y-113386461D01*
X154453455Y-113391219D01*
X154676669Y-113391219D01*
X154676669Y-114328719D01*
X154681427Y-114352637D01*
X154715251Y-114386461D01*
X154763087Y-114386461D01*
X154796911Y-114352637D01*
X154801669Y-114328719D01*
X154801669Y-113391219D01*
X155024883Y-113391219D01*
X155048801Y-113386461D01*
X155082625Y-113352637D01*
X155082625Y-113304801D01*
X155048801Y-113270977D01*
X155024883Y-113266219D01*
X154453455Y-113266219D01*
X154429537Y-113270977D01*
X154395713Y-113304801D01*
X154177863Y-113304801D01*
X154144039Y-113270977D01*
X154096203Y-113270977D01*
X154062379Y-113304801D01*
X154057621Y-113328719D01*
X154057621Y-114123487D01*
X154021135Y-114196457D01*
X153987859Y-114229734D01*
X153914890Y-114266219D01*
X153753924Y-114266219D01*
X153680954Y-114229734D01*
X153647678Y-114196457D01*
X153611193Y-114123487D01*
X153611193Y-113328719D01*
X153606435Y-113304801D01*
X153572611Y-113270977D01*
X153524775Y-113270977D01*
X153490951Y-113304801D01*
X153486193Y-113328719D01*
X153016333Y-113328719D01*
X153013136Y-113326583D01*
X153005215Y-113320436D01*
X152909977Y-113272817D01*
X152906957Y-113271990D01*
X152905944Y-113270977D01*
X152896116Y-113269022D01*
X152886456Y-113266377D01*
X152885097Y-113266829D01*
X152882026Y-113266219D01*
X152691550Y-113266219D01*
X152688478Y-113266829D01*
X152687120Y-113266377D01*
X152677459Y-113269022D01*
X152667632Y-113270977D01*
X152666618Y-113271990D01*
X152663599Y-113272817D01*
X152568361Y-113320436D01*
X152560439Y-113326583D01*
X152552118Y-113332144D01*
X152456880Y-113427382D01*
X152453119Y-113433010D01*
X152450857Y-113434368D01*
X152447585Y-113441292D01*
X152443332Y-113447659D01*
X152443332Y-113450296D01*
X152440440Y-113456418D01*
X152392821Y-113646894D01*
X152392448Y-113654542D01*
X152390955Y-113662052D01*
X152122510Y-113662052D01*
X152227033Y-113348484D01*
X152230082Y-113324288D01*
X152208690Y-113281504D01*
X152163309Y-113266377D01*
X152120525Y-113287769D01*
X152108447Y-113308955D01*
X151834407Y-114131075D01*
X151560367Y-113308955D01*
X151548289Y-113287769D01*
X151505505Y-113266377D01*
X151460124Y-113281504D01*
X151438732Y-113324288D01*
X151327621Y-113324288D01*
X151327621Y-113155108D01*
X155193736Y-113155108D01*
X155193736Y-114502330D01*
G37*
D12*
G36*
X132711243Y-123692059D02*
G01*
X132825933Y-123806748D01*
X132885198Y-123925276D01*
X132950977Y-124188393D01*
X132950977Y-124378062D01*
X132885198Y-124641179D01*
X132825933Y-124759707D01*
X132711244Y-124874396D01*
X132534750Y-124933228D01*
X132293834Y-124933228D01*
X132293834Y-123633228D01*
X132534750Y-123633228D01*
X132711243Y-123692059D01*
G37*
G36*
X138634597Y-124329699D02*
G01*
X138683076Y-124378177D01*
X138736691Y-124485407D01*
X138736691Y-124723906D01*
X138683075Y-124831137D01*
X138634598Y-124879613D01*
X138527369Y-124933228D01*
X138288869Y-124933228D01*
X138181641Y-124879614D01*
X138133161Y-124831134D01*
X138079548Y-124723907D01*
X138079548Y-124485406D01*
X138133162Y-124378177D01*
X138181638Y-124329700D01*
X138288869Y-124276085D01*
X138527369Y-124276085D01*
X138634597Y-124329699D01*
G37*
G36*
X138634597Y-123686842D02*
G01*
X138683075Y-123735319D01*
X138736691Y-123842549D01*
X138736691Y-123866763D01*
X138683075Y-123973994D01*
X138634598Y-124022470D01*
X138527369Y-124076085D01*
X138288869Y-124076085D01*
X138181641Y-124022471D01*
X138133161Y-123973991D01*
X138079548Y-123866764D01*
X138079548Y-123842548D01*
X138133161Y-123735320D01*
X138181638Y-123686843D01*
X138288869Y-123633228D01*
X138527369Y-123633228D01*
X138634597Y-123686842D01*
G37*
G36*
X131412236Y-124504657D02*
G01*
X130975434Y-124504657D01*
X131193835Y-123849455D01*
X131412236Y-124504657D01*
G37*
G36*
X134348886Y-123686844D02*
G01*
X134397363Y-123735320D01*
X134450977Y-123842548D01*
X134450977Y-124009621D01*
X134397363Y-124116848D01*
X134348883Y-124165328D01*
X134241656Y-124218942D01*
X133793834Y-124218942D01*
X133793834Y-123633228D01*
X134241655Y-123633228D01*
X134348886Y-123686844D01*
G37*
G36*
X140601436Y-125299895D02*
G01*
X130427953Y-125299895D01*
X130427953Y-125020721D01*
X130594620Y-125020721D01*
X130597386Y-125059641D01*
X130614836Y-125094540D01*
X130644312Y-125120105D01*
X130681328Y-125132443D01*
X130720248Y-125129677D01*
X130755147Y-125112227D01*
X130780712Y-125082751D01*
X130788703Y-125064851D01*
X130908768Y-124704657D01*
X131478902Y-124704657D01*
X131598967Y-125064851D01*
X131606958Y-125082751D01*
X131632524Y-125112228D01*
X131667422Y-125129677D01*
X131706342Y-125132443D01*
X131743358Y-125120105D01*
X131772834Y-125094540D01*
X131790284Y-125059641D01*
X131793050Y-125020721D01*
X131788703Y-125001605D01*
X131299244Y-123533228D01*
X132093834Y-123533228D01*
X132093834Y-125033228D01*
X132095755Y-125052737D01*
X132110687Y-125088785D01*
X132138277Y-125116375D01*
X132174325Y-125131307D01*
X132193834Y-125133228D01*
X132550977Y-125133228D01*
X132560850Y-125132255D01*
X132563484Y-125132443D01*
X132566947Y-125131655D01*
X132570486Y-125131307D01*
X132572928Y-125130295D01*
X132582600Y-125128096D01*
X132796885Y-125056668D01*
X132814786Y-125048677D01*
X132817501Y-125046321D01*
X132820821Y-125044947D01*
X132835974Y-125032510D01*
X132978831Y-124889652D01*
X132985121Y-124881987D01*
X132987120Y-124880254D01*
X132989016Y-124877241D01*
X132991267Y-124874499D01*
X132992276Y-124872062D01*
X132997563Y-124863664D01*
X133068992Y-124720807D01*
X133069538Y-124719378D01*
X133069968Y-124718799D01*
X133072886Y-124710628D01*
X133075998Y-124702498D01*
X133076049Y-124701775D01*
X133076563Y-124700338D01*
X133147991Y-124414625D01*
X133148491Y-124411243D01*
X133149056Y-124409880D01*
X133149779Y-124402529D01*
X133150859Y-124395232D01*
X133150641Y-124393773D01*
X133150977Y-124390371D01*
X133150977Y-124176085D01*
X133150641Y-124172682D01*
X133150859Y-124171224D01*
X133149779Y-124163926D01*
X133149056Y-124156576D01*
X133148491Y-124155212D01*
X133147991Y-124151831D01*
X133076563Y-123866118D01*
X133076049Y-123864680D01*
X133075998Y-123863958D01*
X133072886Y-123855827D01*
X133069968Y-123847657D01*
X133069538Y-123847077D01*
X133068992Y-123845649D01*
X132997563Y-123702792D01*
X132992277Y-123694394D01*
X132991267Y-123691956D01*
X132989014Y-123689211D01*
X132987120Y-123686202D01*
X132985122Y-123684469D01*
X132978830Y-123676803D01*
X132835974Y-123533946D01*
X132835099Y-123533228D01*
X133593834Y-123533228D01*
X133593834Y-125033228D01*
X133595755Y-125052737D01*
X133610687Y-125088785D01*
X133638277Y-125116375D01*
X133674325Y-125131307D01*
X133713343Y-125131307D01*
X133749391Y-125116375D01*
X133776981Y-125088785D01*
X133791913Y-125052737D01*
X133793834Y-125033228D01*
X133793834Y-125013719D01*
X134952898Y-125013719D01*
X134952898Y-125052737D01*
X134967830Y-125088785D01*
X134995420Y-125116375D01*
X135031468Y-125131307D01*
X135050977Y-125133228D01*
X135979549Y-125133228D01*
X135999058Y-125131307D01*
X136035106Y-125116375D01*
X136062696Y-125088785D01*
X136077628Y-125052737D01*
X136077628Y-125013719D01*
X136062696Y-124977671D01*
X136035106Y-124950081D01*
X135999058Y-124935149D01*
X135979549Y-124933228D01*
X135292399Y-124933228D01*
X135978830Y-124246796D01*
X135991267Y-124231643D01*
X135992642Y-124228321D01*
X135994996Y-124225608D01*
X136002988Y-124207708D01*
X136074417Y-123993423D01*
X136076616Y-123983750D01*
X136077628Y-123981309D01*
X136077976Y-123977771D01*
X136078764Y-123974308D01*
X136078576Y-123971673D01*
X136079549Y-123961800D01*
X136079549Y-123818942D01*
X136077628Y-123799433D01*
X136076252Y-123796112D01*
X136075998Y-123792529D01*
X136068992Y-123774220D01*
X135997563Y-123631363D01*
X135992277Y-123622965D01*
X135991267Y-123620527D01*
X135989014Y-123617782D01*
X135987120Y-123614773D01*
X135985122Y-123613040D01*
X135978830Y-123605374D01*
X135907403Y-123533946D01*
X135899736Y-123527654D01*
X135898004Y-123525657D01*
X135894992Y-123523761D01*
X135892249Y-123521510D01*
X135889811Y-123520500D01*
X135881413Y-123515214D01*
X135878423Y-123513719D01*
X136381469Y-123513719D01*
X136381469Y-123552737D01*
X136396401Y-123588785D01*
X136423991Y-123616375D01*
X136460039Y-123631307D01*
X136479548Y-123633228D01*
X137187743Y-123633228D01*
X136832862Y-124038807D01*
X136826832Y-124047240D01*
X136824973Y-124049100D01*
X136824242Y-124050863D01*
X136821461Y-124054754D01*
X136816256Y-124070142D01*
X136810041Y-124085148D01*
X136810041Y-124088521D01*
X136808961Y-124091715D01*
X136810041Y-124107917D01*
X136810041Y-124124166D01*
X136811331Y-124127281D01*
X136811556Y-124130647D01*
X136818756Y-124145207D01*
X136824973Y-124160214D01*
X136827357Y-124162598D01*
X136828853Y-124165622D01*
X136841078Y-124176319D01*
X136852563Y-124187804D01*
X136855677Y-124189094D01*
X136858217Y-124191316D01*
X136873605Y-124196520D01*
X136888611Y-124202736D01*
X136893370Y-124203204D01*
X136895178Y-124203816D01*
X136897802Y-124203641D01*
X136908120Y-124204657D01*
X137098798Y-124204657D01*
X137206027Y-124258271D01*
X137254504Y-124306747D01*
X137308120Y-124413978D01*
X137308120Y-124723906D01*
X137254504Y-124831137D01*
X137206027Y-124879613D01*
X137098798Y-124933228D01*
X136717441Y-124933228D01*
X136610213Y-124879614D01*
X136550259Y-124819660D01*
X136535105Y-124807224D01*
X136499057Y-124792292D01*
X136460039Y-124792292D01*
X136423991Y-124807224D01*
X136396401Y-124834814D01*
X136381469Y-124870862D01*
X136381469Y-124909880D01*
X136396401Y-124945928D01*
X136408837Y-124961082D01*
X136480266Y-125032511D01*
X136487936Y-125038805D01*
X136489666Y-125040800D01*
X136492673Y-125042693D01*
X136495420Y-125044947D01*
X136497859Y-125045957D01*
X136506256Y-125051243D01*
X136649113Y-125122671D01*
X136667422Y-125129677D01*
X136671004Y-125129931D01*
X136674325Y-125131307D01*
X136693834Y-125133228D01*
X137122405Y-125133228D01*
X137141914Y-125131307D01*
X137145234Y-125129931D01*
X137148817Y-125129677D01*
X137167126Y-125122671D01*
X137309984Y-125051243D01*
X137318380Y-125045957D01*
X137320821Y-125044947D01*
X137323566Y-125042693D01*
X137326575Y-125040800D01*
X137328307Y-125038802D01*
X137335974Y-125032510D01*
X137407402Y-124961081D01*
X137413694Y-124953414D01*
X137415691Y-124951683D01*
X137417584Y-124948674D01*
X137419839Y-124945928D01*
X137420849Y-124943487D01*
X137426134Y-124935093D01*
X137497563Y-124792236D01*
X137504569Y-124773927D01*
X137504823Y-124770343D01*
X137506199Y-124767023D01*
X137508120Y-124747514D01*
X137508120Y-124390371D01*
X137506199Y-124370862D01*
X137504823Y-124367541D01*
X137504569Y-124363958D01*
X137497563Y-124345649D01*
X137426134Y-124202792D01*
X137420849Y-124194397D01*
X137419839Y-124191957D01*
X137417584Y-124189210D01*
X137415691Y-124186202D01*
X137413694Y-124184470D01*
X137407402Y-124176804D01*
X137335974Y-124105375D01*
X137328307Y-124099082D01*
X137326575Y-124097085D01*
X137323566Y-124095191D01*
X137320821Y-124092938D01*
X137318380Y-124091927D01*
X137309984Y-124086642D01*
X137167126Y-124015214D01*
X137148817Y-124008208D01*
X137145234Y-124007953D01*
X137141914Y-124006578D01*
X137128013Y-124005209D01*
X137290997Y-123818942D01*
X137879548Y-123818942D01*
X137879548Y-123890371D01*
X137881469Y-123909880D01*
X137882844Y-123913200D01*
X137883099Y-123916784D01*
X137890105Y-123935092D01*
X137961533Y-124077949D01*
X137966819Y-124086347D01*
X137967829Y-124088785D01*
X137970080Y-124091528D01*
X137971976Y-124094540D01*
X137973973Y-124096272D01*
X137980265Y-124103939D01*
X138051694Y-124175368D01*
X138052568Y-124176085D01*
X138051695Y-124176803D01*
X137980266Y-124248231D01*
X137973973Y-124255897D01*
X137971976Y-124257630D01*
X137970082Y-124260638D01*
X137967829Y-124263384D01*
X137966818Y-124265824D01*
X137961533Y-124274221D01*
X137890105Y-124417079D01*
X137883099Y-124435388D01*
X137882844Y-124438970D01*
X137881469Y-124442291D01*
X137879548Y-124461800D01*
X137879548Y-124747514D01*
X137881469Y-124767023D01*
X137882844Y-124770343D01*
X137883099Y-124773927D01*
X137890105Y-124792235D01*
X137961533Y-124935092D01*
X137966819Y-124943490D01*
X137967829Y-124945928D01*
X137970080Y-124948671D01*
X137971976Y-124951683D01*
X137973973Y-124953415D01*
X137980265Y-124961082D01*
X138051694Y-125032511D01*
X138059364Y-125038805D01*
X138061094Y-125040800D01*
X138064101Y-125042693D01*
X138066848Y-125044947D01*
X138069287Y-125045957D01*
X138077684Y-125051243D01*
X138220541Y-125122671D01*
X138238850Y-125129677D01*
X138242432Y-125129931D01*
X138245753Y-125131307D01*
X138265262Y-125133228D01*
X138550976Y-125133228D01*
X138570485Y-125131307D01*
X138573805Y-125129931D01*
X138577388Y-125129677D01*
X138595697Y-125122671D01*
X138738555Y-125051243D01*
X138746951Y-125045957D01*
X138749392Y-125044947D01*
X138752137Y-125042693D01*
X138755146Y-125040800D01*
X138756878Y-125038802D01*
X138764545Y-125032510D01*
X138835973Y-124961081D01*
X138842265Y-124953414D01*
X138844262Y-124951683D01*
X138846155Y-124948674D01*
X138848410Y-124945928D01*
X138849420Y-124943487D01*
X138854705Y-124935093D01*
X138926134Y-124792236D01*
X138933140Y-124773927D01*
X138933394Y-124770343D01*
X138934770Y-124767023D01*
X138936691Y-124747514D01*
X138936691Y-124520721D01*
X139308904Y-124520721D01*
X139310040Y-124536705D01*
X139310040Y-124552737D01*
X139311415Y-124556057D01*
X139311670Y-124559641D01*
X139318836Y-124573973D01*
X139324972Y-124588785D01*
X139327513Y-124591326D01*
X139329120Y-124594539D01*
X139341227Y-124605040D01*
X139352562Y-124616375D01*
X139355880Y-124617749D01*
X139358596Y-124620105D01*
X139373805Y-124625174D01*
X139388610Y-124631307D01*
X139393710Y-124631809D01*
X139395612Y-124632443D01*
X139398245Y-124632255D01*
X139408119Y-124633228D01*
X140022405Y-124633228D01*
X140022405Y-125033228D01*
X140024326Y-125052737D01*
X140039258Y-125088785D01*
X140066848Y-125116375D01*
X140102896Y-125131307D01*
X140141914Y-125131307D01*
X140177962Y-125116375D01*
X140205552Y-125088785D01*
X140220484Y-125052737D01*
X140222405Y-125033228D01*
X140222405Y-124633228D01*
X140336690Y-124633228D01*
X140356199Y-124631307D01*
X140392247Y-124616375D01*
X140419837Y-124588785D01*
X140434769Y-124552737D01*
X140434769Y-124513719D01*
X140419837Y-124477671D01*
X140392247Y-124450081D01*
X140356199Y-124435149D01*
X140336690Y-124433228D01*
X140222405Y-124433228D01*
X140222405Y-124033228D01*
X140220484Y-124013719D01*
X140205552Y-123977671D01*
X140177962Y-123950081D01*
X140141914Y-123935149D01*
X140102896Y-123935149D01*
X140066848Y-123950081D01*
X140039258Y-123977671D01*
X140024326Y-124013719D01*
X140022405Y-124033228D01*
X140022405Y-124433228D01*
X139546861Y-124433228D01*
X139860130Y-123493423D01*
X139864477Y-123474308D01*
X139861711Y-123435388D01*
X139844261Y-123400489D01*
X139814785Y-123374924D01*
X139777769Y-123362585D01*
X139738849Y-123365352D01*
X139703950Y-123382801D01*
X139678385Y-123412277D01*
X139670394Y-123430178D01*
X139313251Y-124501605D01*
X139311051Y-124511276D01*
X139310040Y-124513719D01*
X139310040Y-124515725D01*
X139308904Y-124520721D01*
X138936691Y-124520721D01*
X138936691Y-124461800D01*
X138934770Y-124442291D01*
X138933394Y-124438970D01*
X138933140Y-124435387D01*
X138926134Y-124417079D01*
X138854705Y-124274221D01*
X138849419Y-124265824D01*
X138848409Y-124263384D01*
X138846155Y-124260638D01*
X138844262Y-124257630D01*
X138842264Y-124255897D01*
X138835972Y-124248231D01*
X138764545Y-124176803D01*
X138763670Y-124176085D01*
X138764545Y-124175367D01*
X138835973Y-124103938D01*
X138842265Y-124096271D01*
X138844262Y-124094540D01*
X138846155Y-124091531D01*
X138848410Y-124088785D01*
X138849420Y-124086344D01*
X138854705Y-124077950D01*
X138926134Y-123935093D01*
X138933140Y-123916784D01*
X138933394Y-123913200D01*
X138934770Y-123909880D01*
X138936691Y-123890371D01*
X138936691Y-123818942D01*
X138934770Y-123799433D01*
X138933394Y-123796112D01*
X138933140Y-123792529D01*
X138926134Y-123774220D01*
X138854705Y-123631363D01*
X138849419Y-123622965D01*
X138848409Y-123620527D01*
X138846156Y-123617782D01*
X138844262Y-123614773D01*
X138842264Y-123613040D01*
X138835972Y-123605374D01*
X138764545Y-123533946D01*
X138756878Y-123527654D01*
X138755146Y-123525657D01*
X138752134Y-123523761D01*
X138749391Y-123521510D01*
X138746953Y-123520500D01*
X138738555Y-123515214D01*
X138595697Y-123443785D01*
X138577389Y-123436779D01*
X138573805Y-123436524D01*
X138570485Y-123435149D01*
X138550976Y-123433228D01*
X138265262Y-123433228D01*
X138245753Y-123435149D01*
X138242432Y-123436524D01*
X138238849Y-123436779D01*
X138220540Y-123443785D01*
X138077683Y-123515214D01*
X138069288Y-123520498D01*
X138066848Y-123521509D01*
X138064101Y-123523763D01*
X138061093Y-123525657D01*
X138059361Y-123527653D01*
X138051695Y-123533946D01*
X137980266Y-123605374D01*
X137973973Y-123613040D01*
X137971976Y-123614773D01*
X137970082Y-123617781D01*
X137967829Y-123620527D01*
X137966818Y-123622967D01*
X137961533Y-123631364D01*
X137890105Y-123774221D01*
X137883099Y-123792529D01*
X137882844Y-123796112D01*
X137881469Y-123799433D01*
X137879548Y-123818942D01*
X137290997Y-123818942D01*
X137483377Y-123599079D01*
X137489406Y-123590645D01*
X137491267Y-123588785D01*
X137491997Y-123587020D01*
X137494778Y-123583132D01*
X137499981Y-123567748D01*
X137506199Y-123552737D01*
X137506199Y-123549363D01*
X137507279Y-123546170D01*
X137506199Y-123529973D01*
X137506199Y-123513719D01*
X137504907Y-123510600D01*
X137504683Y-123507238D01*
X137497486Y-123492684D01*
X137491267Y-123477671D01*
X137488881Y-123475285D01*
X137487387Y-123472263D01*
X137475164Y-123461568D01*
X137463677Y-123450081D01*
X137460560Y-123448789D01*
X137458023Y-123446570D01*
X137442644Y-123441368D01*
X137427629Y-123435149D01*
X137422868Y-123434680D01*
X137421061Y-123434069D01*
X137418437Y-123434243D01*
X137408120Y-123433228D01*
X136479548Y-123433228D01*
X136460039Y-123435149D01*
X136423991Y-123450081D01*
X136396401Y-123477671D01*
X136381469Y-123513719D01*
X135878423Y-123513719D01*
X135738555Y-123443785D01*
X135720247Y-123436779D01*
X135716663Y-123436524D01*
X135713343Y-123435149D01*
X135693834Y-123433228D01*
X135336692Y-123433228D01*
X135317183Y-123435149D01*
X135313862Y-123436524D01*
X135310279Y-123436779D01*
X135291971Y-123443785D01*
X135149113Y-123515214D01*
X135140716Y-123520499D01*
X135138276Y-123521510D01*
X135135530Y-123523763D01*
X135132522Y-123525657D01*
X135130789Y-123527654D01*
X135123123Y-123533947D01*
X135051695Y-123605374D01*
X135039259Y-123620528D01*
X135024327Y-123656576D01*
X135024327Y-123695594D01*
X135039259Y-123731642D01*
X135066849Y-123759232D01*
X135102897Y-123774164D01*
X135141915Y-123774164D01*
X135177963Y-123759232D01*
X135193117Y-123746796D01*
X135253069Y-123686842D01*
X135360299Y-123633228D01*
X135670227Y-123633228D01*
X135777455Y-123686842D01*
X135825933Y-123735319D01*
X135879549Y-123842549D01*
X135879549Y-123945572D01*
X135820717Y-124122066D01*
X134980266Y-124962517D01*
X134967830Y-124977671D01*
X134952898Y-125013719D01*
X133793834Y-125013719D01*
X133793834Y-124418942D01*
X134265263Y-124418942D01*
X134284772Y-124417021D01*
X134288092Y-124415645D01*
X134291676Y-124415391D01*
X134309984Y-124408385D01*
X134452841Y-124336957D01*
X134461239Y-124331670D01*
X134463677Y-124330661D01*
X134466420Y-124328409D01*
X134469432Y-124326514D01*
X134471164Y-124324516D01*
X134478831Y-124318225D01*
X134550260Y-124246796D01*
X134556554Y-124239125D01*
X134558549Y-124237396D01*
X134560442Y-124234388D01*
X134562696Y-124231642D01*
X134563706Y-124229202D01*
X134568992Y-124220806D01*
X134640420Y-124077949D01*
X134647426Y-124059640D01*
X134647680Y-124056057D01*
X134649056Y-124052737D01*
X134650977Y-124033228D01*
X134650977Y-123818942D01*
X134649056Y-123799433D01*
X134647680Y-123796112D01*
X134647426Y-123792530D01*
X134640420Y-123774221D01*
X134568992Y-123631364D01*
X134563707Y-123622968D01*
X134562696Y-123620527D01*
X134560440Y-123617779D01*
X134558549Y-123614774D01*
X134556554Y-123613043D01*
X134550259Y-123605374D01*
X134478830Y-123533946D01*
X134471163Y-123527653D01*
X134469432Y-123525657D01*
X134466424Y-123523763D01*
X134463677Y-123521509D01*
X134461235Y-123520497D01*
X134452841Y-123515214D01*
X134309985Y-123443785D01*
X134291676Y-123436779D01*
X134288092Y-123436524D01*
X134284772Y-123435149D01*
X134265263Y-123433228D01*
X133693834Y-123433228D01*
X133674325Y-123435149D01*
X133638277Y-123450081D01*
X133610687Y-123477671D01*
X133595755Y-123513719D01*
X133593834Y-123533228D01*
X132835099Y-123533228D01*
X132820820Y-123521510D01*
X132817501Y-123520135D01*
X132814786Y-123517780D01*
X132796886Y-123509789D01*
X132582600Y-123438360D01*
X132572927Y-123436160D01*
X132570486Y-123435149D01*
X132566948Y-123434800D01*
X132563485Y-123434013D01*
X132560850Y-123434200D01*
X132550977Y-123433228D01*
X132193834Y-123433228D01*
X132174325Y-123435149D01*
X132138277Y-123450081D01*
X132110687Y-123477671D01*
X132095755Y-123513719D01*
X132093834Y-123533228D01*
X131299244Y-123533228D01*
X131288703Y-123501605D01*
X131280712Y-123483705D01*
X131276028Y-123478305D01*
X131272834Y-123471916D01*
X131263362Y-123463700D01*
X131255147Y-123454229D01*
X131248757Y-123451034D01*
X131243358Y-123446351D01*
X131231460Y-123442385D01*
X131220248Y-123436779D01*
X131213120Y-123436272D01*
X131206342Y-123434013D01*
X131193835Y-123434901D01*
X131181328Y-123434013D01*
X131174549Y-123436272D01*
X131167422Y-123436779D01*
X131156208Y-123442385D01*
X131144312Y-123446351D01*
X131138913Y-123451033D01*
X131132524Y-123454228D01*
X131124308Y-123463700D01*
X131114836Y-123471916D01*
X131111641Y-123478305D01*
X131106958Y-123483705D01*
X131098967Y-123501605D01*
X130598967Y-125001605D01*
X130594620Y-125020721D01*
X130427953Y-125020721D01*
X130427953Y-123195918D01*
X140601436Y-123195918D01*
X140601436Y-125299895D01*
G37*
G36*
X136393616Y-118530837D02*
G01*
X136424971Y-118562193D01*
X136466682Y-118645614D01*
X136466682Y-118776970D01*
X136424971Y-118860391D01*
X136388399Y-118896963D01*
X136304980Y-118938673D01*
X135952397Y-118938673D01*
X135952397Y-118483911D01*
X136252836Y-118483911D01*
X136393616Y-118530837D01*
G37*
G36*
X136328874Y-117930382D02*
G01*
X136365448Y-117966956D01*
X136407158Y-118050375D01*
X136407158Y-118122209D01*
X136365448Y-118205628D01*
X136328874Y-118242202D01*
X136245456Y-118283911D01*
X135952397Y-118283911D01*
X135952397Y-117888673D01*
X136245456Y-117888673D01*
X136328874Y-117930382D01*
G37*
G36*
X138774567Y-117935599D02*
G01*
X138865448Y-118026480D01*
X138912806Y-118121195D01*
X138966682Y-118336698D01*
X138966682Y-118490648D01*
X138912806Y-118706150D01*
X138865448Y-118800867D01*
X138774567Y-118891747D01*
X138633790Y-118938673D01*
X138452397Y-118938673D01*
X138452397Y-117888673D01*
X138633789Y-117888673D01*
X138774567Y-117935599D01*
G37*
G36*
X142400304Y-117930382D02*
G01*
X142488290Y-118018370D01*
X142538111Y-118217650D01*
X142538111Y-118609696D01*
X142488290Y-118808976D01*
X142400304Y-118896963D01*
X142316885Y-118938673D01*
X142126004Y-118938673D01*
X142042583Y-118896963D01*
X141954598Y-118808977D01*
X141904778Y-118609697D01*
X141904778Y-118217650D01*
X141954598Y-118018369D01*
X142042584Y-117930383D01*
X142126005Y-117888673D01*
X142316885Y-117888673D01*
X142400304Y-117930382D01*
G37*
G36*
X137638399Y-117930382D02*
G01*
X137674971Y-117966955D01*
X137716682Y-118050376D01*
X137716682Y-118181732D01*
X137674972Y-118265151D01*
X137638398Y-118301726D01*
X137554980Y-118343435D01*
X137202397Y-118343435D01*
X137202397Y-117888673D01*
X137554980Y-117888673D01*
X137638399Y-117930382D01*
G37*
G36*
X150732222Y-119277562D02*
G01*
X135613508Y-119277562D01*
X135613508Y-117788673D01*
X135752397Y-117788673D01*
X135752397Y-119038673D01*
X135754318Y-119058181D01*
X135754318Y-119058182D01*
X135769250Y-119094230D01*
X135796840Y-119121820D01*
X135832888Y-119136752D01*
X135852397Y-119138673D01*
X136328587Y-119138673D01*
X136348096Y-119136752D01*
X136351416Y-119135376D01*
X136354999Y-119135122D01*
X136373308Y-119128116D01*
X136492356Y-119068593D01*
X136500751Y-119063308D01*
X136503193Y-119062297D01*
X136505940Y-119060041D01*
X136508946Y-119058150D01*
X136510676Y-119056154D01*
X136518346Y-119049860D01*
X136577869Y-118990336D01*
X136584161Y-118982669D01*
X136586158Y-118980938D01*
X136588051Y-118977930D01*
X136590306Y-118975183D01*
X136591317Y-118972741D01*
X136596601Y-118964347D01*
X136656125Y-118845299D01*
X136663131Y-118826991D01*
X136663385Y-118823407D01*
X136664761Y-118820087D01*
X136666682Y-118800578D01*
X136666682Y-118622007D01*
X136664761Y-118602498D01*
X136663385Y-118599177D01*
X136663131Y-118595594D01*
X136656125Y-118577286D01*
X136596601Y-118458238D01*
X136591317Y-118449843D01*
X136590306Y-118447402D01*
X136588051Y-118444654D01*
X136586158Y-118441647D01*
X136584161Y-118439915D01*
X136577869Y-118432249D01*
X136518346Y-118372725D01*
X136503193Y-118360288D01*
X136499873Y-118358912D01*
X136497267Y-118356652D01*
X136518346Y-118335574D01*
X136524640Y-118327904D01*
X136526635Y-118326175D01*
X136528526Y-118323170D01*
X136530783Y-118320421D01*
X136531795Y-118317977D01*
X136537078Y-118309585D01*
X136596601Y-118190537D01*
X136603607Y-118172228D01*
X136603861Y-118168645D01*
X136605237Y-118165325D01*
X136607158Y-118145816D01*
X136607158Y-118026769D01*
X136605237Y-118007260D01*
X136603861Y-118003939D01*
X136603607Y-118000357D01*
X136596601Y-117982048D01*
X136537078Y-117863000D01*
X136531795Y-117854607D01*
X136530783Y-117852164D01*
X136528526Y-117849414D01*
X136526635Y-117846410D01*
X136524640Y-117844680D01*
X136518346Y-117837011D01*
X136470009Y-117788673D01*
X137002397Y-117788673D01*
X137002397Y-119038673D01*
X137004318Y-119058182D01*
X137019250Y-119094230D01*
X137046840Y-119121820D01*
X137082888Y-119136752D01*
X137121906Y-119136752D01*
X137157954Y-119121820D01*
X137185544Y-119094230D01*
X137200476Y-119058182D01*
X137202397Y-119038673D01*
X137202397Y-118543435D01*
X137347951Y-118543435D01*
X137734759Y-119096019D01*
X137747520Y-119110900D01*
X137780425Y-119131869D01*
X137818849Y-119138649D01*
X137856944Y-119130210D01*
X137888909Y-119107835D01*
X137909878Y-119074930D01*
X137916658Y-119036505D01*
X137908219Y-118998411D01*
X137898605Y-118981327D01*
X137591210Y-118542191D01*
X137598096Y-118541514D01*
X137601416Y-118540138D01*
X137605000Y-118539884D01*
X137623308Y-118532878D01*
X137742357Y-118473354D01*
X137750755Y-118468067D01*
X137753192Y-118467058D01*
X137755935Y-118464806D01*
X137758947Y-118462911D01*
X137760679Y-118460913D01*
X137768346Y-118454622D01*
X137827869Y-118395099D01*
X137834162Y-118387430D01*
X137836158Y-118385700D01*
X137838051Y-118382692D01*
X137840305Y-118379946D01*
X137841315Y-118377505D01*
X137846601Y-118369109D01*
X137906125Y-118250061D01*
X137913131Y-118231753D01*
X137913385Y-118228169D01*
X137914761Y-118224849D01*
X137916682Y-118205340D01*
X137916682Y-118026769D01*
X137914761Y-118007260D01*
X137913385Y-118003939D01*
X137913131Y-118000356D01*
X137906125Y-117982048D01*
X137846601Y-117863000D01*
X137841317Y-117854605D01*
X137840306Y-117852164D01*
X137838051Y-117849416D01*
X137836158Y-117846409D01*
X137834161Y-117844677D01*
X137827869Y-117837011D01*
X137779532Y-117788673D01*
X138252397Y-117788673D01*
X138252397Y-119038673D01*
X138254318Y-119058181D01*
X138254318Y-119058182D01*
X138269250Y-119094230D01*
X138296840Y-119121820D01*
X138332888Y-119136752D01*
X138352397Y-119138673D01*
X138650016Y-119138673D01*
X138659889Y-119137700D01*
X138662523Y-119137888D01*
X138665985Y-119137100D01*
X138669525Y-119136752D01*
X138671967Y-119135740D01*
X138681638Y-119133541D01*
X138860209Y-119074018D01*
X138878110Y-119066027D01*
X138880825Y-119063671D01*
X138884144Y-119062297D01*
X138899298Y-119049861D01*
X139018345Y-118930813D01*
X139024639Y-118923143D01*
X139026635Y-118921413D01*
X139028526Y-118918407D01*
X139030782Y-118915660D01*
X139031793Y-118913218D01*
X139037078Y-118904823D01*
X139096601Y-118785775D01*
X139097146Y-118784348D01*
X139097577Y-118783768D01*
X139100503Y-118775576D01*
X139103607Y-118767466D01*
X139103658Y-118766746D01*
X139104172Y-118765308D01*
X139163696Y-118527212D01*
X139164195Y-118523832D01*
X139164761Y-118522468D01*
X139165484Y-118515116D01*
X139166564Y-118507820D01*
X139166346Y-118506361D01*
X139166682Y-118502959D01*
X139166682Y-118324388D01*
X139166346Y-118320985D01*
X139166564Y-118319527D01*
X139165484Y-118312230D01*
X139164761Y-118304879D01*
X139164195Y-118303514D01*
X139163696Y-118300135D01*
X139104172Y-118062038D01*
X139103658Y-118060599D01*
X139103607Y-118059879D01*
X139100500Y-118051760D01*
X139097577Y-118043578D01*
X139097146Y-118042997D01*
X139096601Y-118041571D01*
X139037078Y-117922524D01*
X139031793Y-117914128D01*
X139030782Y-117911687D01*
X139028526Y-117908939D01*
X139026635Y-117905934D01*
X139024640Y-117904203D01*
X139018345Y-117896534D01*
X138910485Y-117788673D01*
X140454778Y-117788673D01*
X140454778Y-119038673D01*
X140456699Y-119058182D01*
X140471631Y-119094230D01*
X140499221Y-119121820D01*
X140535269Y-119136752D01*
X140574287Y-119136752D01*
X140610335Y-119121820D01*
X140637925Y-119094230D01*
X140652857Y-119058182D01*
X140654778Y-119038673D01*
X140654778Y-118165229D01*
X141182239Y-119088287D01*
X141185157Y-119092398D01*
X141185916Y-119094230D01*
X141187781Y-119096095D01*
X141193586Y-119104273D01*
X141204105Y-119112419D01*
X141213506Y-119121820D01*
X141219393Y-119124258D01*
X141224435Y-119128163D01*
X141237267Y-119131662D01*
X141249554Y-119136752D01*
X141255930Y-119136752D01*
X141262079Y-119138429D01*
X141275272Y-119136752D01*
X141288572Y-119136752D01*
X141294460Y-119134312D01*
X141300785Y-119133509D01*
X141312338Y-119126907D01*
X141324620Y-119121820D01*
X141329123Y-119117316D01*
X141334663Y-119114151D01*
X141342811Y-119103628D01*
X141352210Y-119094230D01*
X141354648Y-119088342D01*
X141358553Y-119083301D01*
X141362052Y-119070468D01*
X141367142Y-119058182D01*
X141368124Y-119048204D01*
X141368819Y-119045658D01*
X141368568Y-119043690D01*
X141369063Y-119038673D01*
X141369063Y-118205340D01*
X141704778Y-118205340D01*
X141704778Y-118622007D01*
X141705113Y-118625409D01*
X141704896Y-118626868D01*
X141705975Y-118634165D01*
X141706699Y-118641516D01*
X141707263Y-118642879D01*
X141707764Y-118646261D01*
X141767288Y-118884356D01*
X141773883Y-118902816D01*
X141778308Y-118908788D01*
X141781154Y-118915659D01*
X141793591Y-118930812D01*
X141912638Y-119049861D01*
X141920307Y-119056155D01*
X141922038Y-119058150D01*
X141925045Y-119060043D01*
X141927792Y-119062297D01*
X141930231Y-119063307D01*
X141938628Y-119068593D01*
X142057676Y-119128116D01*
X142075985Y-119135122D01*
X142079567Y-119135376D01*
X142082888Y-119136752D01*
X142102397Y-119138673D01*
X142340492Y-119138673D01*
X142360001Y-119136752D01*
X142363321Y-119135376D01*
X142366904Y-119135122D01*
X142385213Y-119128116D01*
X142504261Y-119068593D01*
X142512656Y-119063308D01*
X142515098Y-119062297D01*
X142517845Y-119060041D01*
X142520851Y-119058150D01*
X142522581Y-119056154D01*
X142530251Y-119049860D01*
X142620469Y-118959641D01*
X143016223Y-118959641D01*
X143016223Y-118998659D01*
X143019083Y-119005563D01*
X143031155Y-119034708D01*
X143043592Y-119049861D01*
X143103116Y-119109384D01*
X143118269Y-119121821D01*
X143142529Y-119131869D01*
X143154317Y-119136752D01*
X143154318Y-119136752D01*
X143193335Y-119136752D01*
X143220381Y-119125549D01*
X143229384Y-119121820D01*
X143229388Y-119121815D01*
X143244537Y-119109384D01*
X143304060Y-119049861D01*
X143316496Y-119034708D01*
X143328179Y-119006502D01*
X143331427Y-118998660D01*
X143331428Y-118959642D01*
X143331428Y-118959641D01*
X150278128Y-118959641D01*
X150278128Y-118998659D01*
X150280988Y-119005563D01*
X150293060Y-119034708D01*
X150305497Y-119049861D01*
X150365021Y-119109384D01*
X150380174Y-119121821D01*
X150404434Y-119131869D01*
X150416222Y-119136752D01*
X150416223Y-119136752D01*
X150455240Y-119136752D01*
X150482286Y-119125549D01*
X150491289Y-119121820D01*
X150491293Y-119121815D01*
X150506442Y-119109384D01*
X150565965Y-119049861D01*
X150578401Y-119034708D01*
X150590084Y-119006502D01*
X150593332Y-118998660D01*
X150593333Y-118959642D01*
X150578402Y-118923593D01*
X150565965Y-118908440D01*
X150506442Y-118848916D01*
X150491294Y-118836483D01*
X150491289Y-118836478D01*
X150455240Y-118821547D01*
X150416222Y-118821547D01*
X150380174Y-118836478D01*
X150365021Y-118848915D01*
X150305496Y-118908439D01*
X150293064Y-118923587D01*
X150293059Y-118923593D01*
X150283373Y-118946978D01*
X150278128Y-118959641D01*
X143331428Y-118959641D01*
X143316497Y-118923593D01*
X143304060Y-118908440D01*
X143244537Y-118848916D01*
X143229389Y-118836483D01*
X143229384Y-118836478D01*
X143193335Y-118821547D01*
X143154317Y-118821547D01*
X143118269Y-118836478D01*
X143103116Y-118848915D01*
X143043591Y-118908439D01*
X143031159Y-118923587D01*
X143031154Y-118923593D01*
X143021468Y-118946978D01*
X143016223Y-118959641D01*
X142620469Y-118959641D01*
X142649298Y-118930812D01*
X142661735Y-118915659D01*
X142664580Y-118908788D01*
X142669006Y-118902816D01*
X142675601Y-118884356D01*
X142735125Y-118646260D01*
X142735624Y-118642880D01*
X142736190Y-118641516D01*
X142736913Y-118634164D01*
X142737993Y-118626868D01*
X142737775Y-118625409D01*
X142738111Y-118622007D01*
X142738111Y-118304879D01*
X143016223Y-118304879D01*
X143016223Y-118343897D01*
X143020405Y-118353992D01*
X143031155Y-118379946D01*
X143043592Y-118395099D01*
X143103116Y-118454622D01*
X143118269Y-118467059D01*
X143143759Y-118477616D01*
X143154317Y-118481990D01*
X143154318Y-118481990D01*
X143193335Y-118481990D01*
X143214452Y-118473242D01*
X143229384Y-118467058D01*
X143229388Y-118467053D01*
X143244537Y-118454622D01*
X143304060Y-118395099D01*
X143316496Y-118379946D01*
X143321816Y-118367102D01*
X143331427Y-118343898D01*
X143331428Y-118304880D01*
X143316497Y-118268831D01*
X143304060Y-118253678D01*
X143244537Y-118194154D01*
X143229389Y-118181721D01*
X143229384Y-118181716D01*
X143193335Y-118166785D01*
X143154317Y-118166785D01*
X143118269Y-118181716D01*
X143103116Y-118194153D01*
X143043591Y-118253677D01*
X143031159Y-118268825D01*
X143031154Y-118268831D01*
X143020596Y-118294321D01*
X143016223Y-118304879D01*
X142738111Y-118304879D01*
X142738111Y-118205340D01*
X142737775Y-118201937D01*
X142737993Y-118200479D01*
X142736913Y-118193182D01*
X142736190Y-118185831D01*
X142735624Y-118184466D01*
X142735125Y-118181087D01*
X142675601Y-117942991D01*
X142669006Y-117924531D01*
X142664580Y-117918558D01*
X142661735Y-117911688D01*
X142649298Y-117896535D01*
X142530251Y-117777487D01*
X142522584Y-117771194D01*
X142520852Y-117769197D01*
X142517842Y-117767302D01*
X142515098Y-117765050D01*
X142512659Y-117764039D01*
X142504262Y-117758754D01*
X142385213Y-117699230D01*
X142366905Y-117692224D01*
X142363321Y-117691969D01*
X142360001Y-117690594D01*
X142340492Y-117688673D01*
X142102397Y-117688673D01*
X142082888Y-117690594D01*
X142079567Y-117691969D01*
X142075984Y-117692224D01*
X142057676Y-117699230D01*
X141938628Y-117758754D01*
X141930229Y-117764040D01*
X141927792Y-117765050D01*
X141925048Y-117767301D01*
X141922037Y-117769197D01*
X141920304Y-117771194D01*
X141912638Y-117777486D01*
X141793591Y-117896535D01*
X141781154Y-117911688D01*
X141778308Y-117918558D01*
X141773883Y-117924531D01*
X141767288Y-117942991D01*
X141707764Y-118181086D01*
X141707263Y-118184467D01*
X141706699Y-118185831D01*
X141705975Y-118193181D01*
X141704896Y-118200479D01*
X141705113Y-118201937D01*
X141704778Y-118205340D01*
X141369063Y-118205340D01*
X141369063Y-117788673D01*
X141367142Y-117769164D01*
X141352210Y-117733116D01*
X141324620Y-117705526D01*
X141288572Y-117690594D01*
X141249554Y-117690594D01*
X141213506Y-117705526D01*
X141185916Y-117733116D01*
X141170984Y-117769164D01*
X141169063Y-117788673D01*
X141169063Y-118662116D01*
X140641602Y-117739059D01*
X140638683Y-117734948D01*
X140637925Y-117733116D01*
X140636058Y-117731249D01*
X140630255Y-117723074D01*
X140619740Y-117714931D01*
X140610335Y-117705526D01*
X140604444Y-117703086D01*
X140599406Y-117699184D01*
X140586577Y-117695685D01*
X140574287Y-117690594D01*
X140567912Y-117690594D01*
X140561763Y-117688917D01*
X140548570Y-117690594D01*
X140535269Y-117690594D01*
X140529380Y-117693033D01*
X140523056Y-117693837D01*
X140511506Y-117700437D01*
X140499221Y-117705526D01*
X140494713Y-117710033D01*
X140489179Y-117713196D01*
X140481036Y-117723710D01*
X140471631Y-117733116D01*
X140469191Y-117739006D01*
X140465289Y-117744045D01*
X140461790Y-117756873D01*
X140456699Y-117769164D01*
X140455716Y-117779141D01*
X140455022Y-117781688D01*
X140455272Y-117783655D01*
X140454778Y-117788673D01*
X138910485Y-117788673D01*
X138899298Y-117777486D01*
X138884144Y-117765050D01*
X138880825Y-117763675D01*
X138878110Y-117761320D01*
X138860209Y-117753329D01*
X138681639Y-117693805D01*
X138671966Y-117691605D01*
X138669525Y-117690594D01*
X138665987Y-117690245D01*
X138662524Y-117689458D01*
X138659889Y-117689645D01*
X138650016Y-117688673D01*
X138352397Y-117688673D01*
X138332888Y-117690594D01*
X138296840Y-117705526D01*
X138269250Y-117733116D01*
X138254318Y-117769164D01*
X138252397Y-117788673D01*
X137779532Y-117788673D01*
X137768346Y-117777487D01*
X137760679Y-117771194D01*
X137758947Y-117769197D01*
X137755937Y-117767302D01*
X137753193Y-117765050D01*
X137750754Y-117764039D01*
X137742357Y-117758754D01*
X137623308Y-117699230D01*
X137605000Y-117692224D01*
X137601416Y-117691969D01*
X137598096Y-117690594D01*
X137578587Y-117688673D01*
X137102397Y-117688673D01*
X137082888Y-117690594D01*
X137046840Y-117705526D01*
X137019250Y-117733116D01*
X137004318Y-117769164D01*
X137002397Y-117788673D01*
X136470009Y-117788673D01*
X136458822Y-117777486D01*
X136451155Y-117771194D01*
X136449423Y-117769197D01*
X136446411Y-117767301D01*
X136443668Y-117765050D01*
X136441231Y-117764040D01*
X136432833Y-117758754D01*
X136313784Y-117699230D01*
X136295476Y-117692224D01*
X136291892Y-117691969D01*
X136288572Y-117690594D01*
X136269063Y-117688673D01*
X135852397Y-117688673D01*
X135832888Y-117690594D01*
X135796840Y-117705526D01*
X135769250Y-117733116D01*
X135754318Y-117769164D01*
X135752397Y-117788673D01*
X135613508Y-117788673D01*
X135613508Y-117549784D01*
X150732222Y-117549784D01*
X150732222Y-119277562D01*
G37*
D11*
G36*
X147350132Y-95096730D02*
G01*
X145526720Y-95096730D01*
X145526720Y-93923119D01*
X145637831Y-93923119D01*
X145637831Y-94923119D01*
X145642589Y-94947037D01*
X145676413Y-94980861D01*
X145700331Y-94985619D01*
X146176521Y-94985619D01*
X146200439Y-94980861D01*
X146234263Y-94947037D01*
X146234263Y-94899201D01*
X146200439Y-94865377D01*
X146176521Y-94860619D01*
X145762831Y-94860619D01*
X145762831Y-94461809D01*
X146033664Y-94461809D01*
X146057582Y-94457051D01*
X146091406Y-94423227D01*
X146091406Y-94375391D01*
X146057582Y-94341567D01*
X146033664Y-94336809D01*
X145762831Y-94336809D01*
X145762831Y-93985619D01*
X146176521Y-93985619D01*
X146200439Y-93980861D01*
X146234263Y-93947037D01*
X146234263Y-93923119D01*
X146542593Y-93923119D01*
X146542593Y-94923119D01*
X146547351Y-94947037D01*
X146581175Y-94980861D01*
X146629011Y-94980861D01*
X146662835Y-94947037D01*
X146667593Y-94923119D01*
X146667593Y-94158466D01*
X147122256Y-94954128D01*
X147138254Y-94972534D01*
X147146534Y-94974792D01*
X147152603Y-94980861D01*
X147168786Y-94980861D01*
X147184402Y-94985120D01*
X147191855Y-94980861D01*
X147200439Y-94980861D01*
X147211882Y-94969417D01*
X147225936Y-94961387D01*
X147228194Y-94953105D01*
X147234263Y-94947037D01*
X147239021Y-94923119D01*
X147239021Y-93923119D01*
X147234263Y-93899201D01*
X147200439Y-93865377D01*
X147152603Y-93865377D01*
X147118779Y-93899201D01*
X147114021Y-93923119D01*
X147114021Y-94687771D01*
X146659358Y-93892110D01*
X146643360Y-93873704D01*
X146635079Y-93871445D01*
X146629011Y-93865377D01*
X146612828Y-93865377D01*
X146597212Y-93861118D01*
X146589759Y-93865377D01*
X146581175Y-93865377D01*
X146569729Y-93876822D01*
X146555678Y-93884852D01*
X146553419Y-93893132D01*
X146547351Y-93899201D01*
X146542593Y-93923119D01*
X146234263Y-93923119D01*
X146234263Y-93899201D01*
X146200439Y-93865377D01*
X146176521Y-93860619D01*
X145700331Y-93860619D01*
X145676413Y-93865377D01*
X145642589Y-93899201D01*
X145637831Y-93923119D01*
X145526720Y-93923119D01*
X145526720Y-93749508D01*
X147350132Y-93749508D01*
X147350132Y-95096730D01*
G37*
G36*
X154191141Y-105814365D02*
G01*
X154268773Y-105891997D01*
X154308789Y-105972030D01*
X154352878Y-106148384D01*
X154352878Y-106275853D01*
X154308789Y-106452207D01*
X154268772Y-106532240D01*
X154191141Y-106609872D01*
X154071902Y-106649619D01*
X153906450Y-106649619D01*
X153906450Y-105774619D01*
X154071902Y-105774619D01*
X154191141Y-105814365D01*
G37*
G36*
X154588989Y-106885730D02*
G01*
X151575101Y-106885730D01*
X151575101Y-106140690D01*
X151686212Y-106140690D01*
X151686212Y-106283547D01*
X151687705Y-106291056D01*
X151688078Y-106298705D01*
X151735697Y-106489181D01*
X151738620Y-106495369D01*
X151740429Y-106501974D01*
X151788048Y-106597212D01*
X151794195Y-106605133D01*
X151799756Y-106613455D01*
X151894994Y-106708694D01*
X151897597Y-106710433D01*
X151898238Y-106711715D01*
X151906936Y-106716674D01*
X151915271Y-106722243D01*
X151916705Y-106722243D01*
X151919424Y-106723793D01*
X152062280Y-106771412D01*
X152072220Y-106772664D01*
X152082045Y-106774619D01*
X152177283Y-106774619D01*
X152187108Y-106772664D01*
X152197047Y-106771412D01*
X152339904Y-106723793D01*
X152342624Y-106722242D01*
X152344058Y-106722242D01*
X152352391Y-106716673D01*
X152361090Y-106711715D01*
X152361730Y-106710434D01*
X152364335Y-106708694D01*
X152411954Y-106661074D01*
X152425498Y-106640800D01*
X152425501Y-106640798D01*
X152430259Y-106616880D01*
X152430259Y-106283547D01*
X152425501Y-106259629D01*
X152391677Y-106225805D01*
X152367759Y-106221047D01*
X152177283Y-106221047D01*
X152153365Y-106225805D01*
X152119541Y-106259629D01*
X152119541Y-106307465D01*
X152153365Y-106341289D01*
X152177283Y-106346047D01*
X152305259Y-106346047D01*
X152305259Y-106590991D01*
X152286378Y-106609872D01*
X152167140Y-106649619D01*
X152092188Y-106649619D01*
X151972950Y-106609873D01*
X151895317Y-106532240D01*
X151855300Y-106452207D01*
X151811212Y-106275852D01*
X151811212Y-106148384D01*
X151855300Y-105972029D01*
X151895317Y-105891997D01*
X151972948Y-105814365D01*
X152092188Y-105774619D01*
X152210147Y-105774619D01*
X152292189Y-105815640D01*
X152315710Y-105822080D01*
X152361089Y-105806954D01*
X152382482Y-105764168D01*
X152367356Y-105718788D01*
X152358763Y-105712119D01*
X152733831Y-105712119D01*
X152733831Y-106712119D01*
X152738589Y-106736037D01*
X152772413Y-106769861D01*
X152820249Y-106769861D01*
X152854073Y-106736037D01*
X152858831Y-106712119D01*
X152858831Y-105947466D01*
X153313494Y-106743128D01*
X153329492Y-106761534D01*
X153337772Y-106763792D01*
X153343841Y-106769861D01*
X153360024Y-106769861D01*
X153375640Y-106774120D01*
X153383093Y-106769861D01*
X153391677Y-106769861D01*
X153403120Y-106758417D01*
X153417174Y-106750387D01*
X153419432Y-106742105D01*
X153425501Y-106736037D01*
X153430259Y-106712119D01*
X153430259Y-105712119D01*
X153781450Y-105712119D01*
X153781450Y-106712119D01*
X153786208Y-106736037D01*
X153820032Y-106769861D01*
X153843950Y-106774619D01*
X154082045Y-106774619D01*
X154091870Y-106772664D01*
X154101809Y-106771412D01*
X154244666Y-106723793D01*
X154247387Y-106722242D01*
X154248819Y-106722242D01*
X154257147Y-106716677D01*
X154265852Y-106711715D01*
X154266492Y-106710433D01*
X154269096Y-106708694D01*
X154364335Y-106613455D01*
X154369901Y-106605123D01*
X154376042Y-106597212D01*
X154423661Y-106501974D01*
X154425469Y-106495369D01*
X154428393Y-106489181D01*
X154476012Y-106298706D01*
X154476384Y-106291056D01*
X154477878Y-106283547D01*
X154477878Y-106140690D01*
X154476384Y-106133180D01*
X154476012Y-106125531D01*
X154428393Y-105935056D01*
X154425469Y-105928867D01*
X154423661Y-105922263D01*
X154376042Y-105827025D01*
X154369894Y-105819103D01*
X154364334Y-105810782D01*
X154269096Y-105715544D01*
X154266492Y-105713804D01*
X154265852Y-105712523D01*
X154257147Y-105707560D01*
X154248819Y-105701996D01*
X154247387Y-105701996D01*
X154244666Y-105700445D01*
X154101809Y-105652826D01*
X154091870Y-105651573D01*
X154082045Y-105649619D01*
X153843950Y-105649619D01*
X153820032Y-105654377D01*
X153786208Y-105688201D01*
X153781450Y-105712119D01*
X153430259Y-105712119D01*
X153425501Y-105688201D01*
X153391677Y-105654377D01*
X153343841Y-105654377D01*
X153310017Y-105688201D01*
X153305259Y-105712119D01*
X153305259Y-106476771D01*
X152850596Y-105681110D01*
X152834598Y-105662704D01*
X152826317Y-105660445D01*
X152820249Y-105654377D01*
X152804066Y-105654377D01*
X152788450Y-105650118D01*
X152780997Y-105654377D01*
X152772413Y-105654377D01*
X152760967Y-105665822D01*
X152746916Y-105673852D01*
X152744657Y-105682132D01*
X152738589Y-105688201D01*
X152733831Y-105712119D01*
X152358763Y-105712119D01*
X152348091Y-105703836D01*
X152252853Y-105656217D01*
X152249833Y-105655390D01*
X152248820Y-105654377D01*
X152238992Y-105652422D01*
X152229332Y-105649777D01*
X152227973Y-105650229D01*
X152224902Y-105649619D01*
X152082045Y-105649619D01*
X152072220Y-105651573D01*
X152062280Y-105652826D01*
X151919424Y-105700445D01*
X151916703Y-105701996D01*
X151915271Y-105701996D01*
X151906942Y-105707560D01*
X151898238Y-105712523D01*
X151897597Y-105713804D01*
X151894994Y-105715544D01*
X151799756Y-105810782D01*
X151794195Y-105819103D01*
X151788048Y-105827025D01*
X151740429Y-105922263D01*
X151738620Y-105928867D01*
X151735697Y-105935056D01*
X151688078Y-106125532D01*
X151687705Y-106133180D01*
X151686212Y-106140690D01*
X151575101Y-106140690D01*
X151575101Y-105538508D01*
X154588989Y-105538508D01*
X154588989Y-106885730D01*
G37*
G36*
X144539141Y-94025365D02*
G01*
X144616773Y-94102997D01*
X144656789Y-94183030D01*
X144700878Y-94359384D01*
X144700878Y-94486853D01*
X144656789Y-94663207D01*
X144616772Y-94743240D01*
X144539141Y-94820872D01*
X144419902Y-94860619D01*
X144254450Y-94860619D01*
X144254450Y-93985619D01*
X144419902Y-93985619D01*
X144539141Y-94025365D01*
G37*
G36*
X144936989Y-95096730D02*
G01*
X141923101Y-95096730D01*
X141923101Y-94351690D01*
X142034212Y-94351690D01*
X142034212Y-94494547D01*
X142035705Y-94502056D01*
X142036078Y-94509705D01*
X142083697Y-94700181D01*
X142086620Y-94706369D01*
X142088429Y-94712974D01*
X142136048Y-94808212D01*
X142142195Y-94816133D01*
X142147756Y-94824455D01*
X142242994Y-94919694D01*
X142245597Y-94921433D01*
X142246238Y-94922715D01*
X142254936Y-94927674D01*
X142263271Y-94933243D01*
X142264705Y-94933243D01*
X142267424Y-94934793D01*
X142410280Y-94982412D01*
X142420220Y-94983664D01*
X142430045Y-94985619D01*
X142525283Y-94985619D01*
X142535108Y-94983664D01*
X142545047Y-94982412D01*
X142687904Y-94934793D01*
X142690624Y-94933242D01*
X142692058Y-94933242D01*
X142700391Y-94927673D01*
X142709090Y-94922715D01*
X142709730Y-94921434D01*
X142712335Y-94919694D01*
X142759954Y-94872074D01*
X142773498Y-94851800D01*
X142773501Y-94851798D01*
X142778259Y-94827880D01*
X142778259Y-94494547D01*
X142773501Y-94470629D01*
X142739677Y-94436805D01*
X142715759Y-94432047D01*
X142525283Y-94432047D01*
X142501365Y-94436805D01*
X142467541Y-94470629D01*
X142467541Y-94518465D01*
X142501365Y-94552289D01*
X142525283Y-94557047D01*
X142653259Y-94557047D01*
X142653259Y-94801991D01*
X142634378Y-94820872D01*
X142515140Y-94860619D01*
X142440188Y-94860619D01*
X142320950Y-94820873D01*
X142243317Y-94743240D01*
X142203300Y-94663207D01*
X142159212Y-94486852D01*
X142159212Y-94359384D01*
X142203300Y-94183029D01*
X142243317Y-94102997D01*
X142320948Y-94025365D01*
X142440188Y-93985619D01*
X142558147Y-93985619D01*
X142640189Y-94026640D01*
X142663710Y-94033080D01*
X142709089Y-94017954D01*
X142730482Y-93975168D01*
X142715356Y-93929788D01*
X142706763Y-93923119D01*
X143081831Y-93923119D01*
X143081831Y-94923119D01*
X143086589Y-94947037D01*
X143120413Y-94980861D01*
X143168249Y-94980861D01*
X143202073Y-94947037D01*
X143206831Y-94923119D01*
X143206831Y-94158466D01*
X143661494Y-94954128D01*
X143677492Y-94972534D01*
X143685772Y-94974792D01*
X143691841Y-94980861D01*
X143708024Y-94980861D01*
X143723640Y-94985120D01*
X143731093Y-94980861D01*
X143739677Y-94980861D01*
X143751120Y-94969417D01*
X143765174Y-94961387D01*
X143767432Y-94953105D01*
X143773501Y-94947037D01*
X143778259Y-94923119D01*
X143778259Y-93923119D01*
X144129450Y-93923119D01*
X144129450Y-94923119D01*
X144134208Y-94947037D01*
X144168032Y-94980861D01*
X144191950Y-94985619D01*
X144430045Y-94985619D01*
X144439870Y-94983664D01*
X144449809Y-94982412D01*
X144592666Y-94934793D01*
X144595387Y-94933242D01*
X144596819Y-94933242D01*
X144605147Y-94927677D01*
X144613852Y-94922715D01*
X144614492Y-94921433D01*
X144617096Y-94919694D01*
X144712335Y-94824455D01*
X144717901Y-94816123D01*
X144724042Y-94808212D01*
X144771661Y-94712974D01*
X144773469Y-94706369D01*
X144776393Y-94700181D01*
X144824012Y-94509706D01*
X144824384Y-94502056D01*
X144825878Y-94494547D01*
X144825878Y-94351690D01*
X144824384Y-94344180D01*
X144824012Y-94336531D01*
X144776393Y-94146056D01*
X144773469Y-94139867D01*
X144771661Y-94133263D01*
X144724042Y-94038025D01*
X144717894Y-94030103D01*
X144712334Y-94021782D01*
X144617096Y-93926544D01*
X144614492Y-93924804D01*
X144613852Y-93923523D01*
X144605147Y-93918560D01*
X144596819Y-93912996D01*
X144595387Y-93912996D01*
X144592666Y-93911445D01*
X144449809Y-93863826D01*
X144439870Y-93862573D01*
X144430045Y-93860619D01*
X144191950Y-93860619D01*
X144168032Y-93865377D01*
X144134208Y-93899201D01*
X144129450Y-93923119D01*
X143778259Y-93923119D01*
X143773501Y-93899201D01*
X143739677Y-93865377D01*
X143691841Y-93865377D01*
X143658017Y-93899201D01*
X143653259Y-93923119D01*
X143653259Y-94687771D01*
X143198596Y-93892110D01*
X143182598Y-93873704D01*
X143174317Y-93871445D01*
X143168249Y-93865377D01*
X143152066Y-93865377D01*
X143136450Y-93861118D01*
X143128997Y-93865377D01*
X143120413Y-93865377D01*
X143108967Y-93876822D01*
X143094916Y-93884852D01*
X143092657Y-93893132D01*
X143086589Y-93899201D01*
X143081831Y-93923119D01*
X142706763Y-93923119D01*
X142696091Y-93914836D01*
X142600853Y-93867217D01*
X142597833Y-93866390D01*
X142596820Y-93865377D01*
X142586992Y-93863422D01*
X142577332Y-93860777D01*
X142575973Y-93861229D01*
X142572902Y-93860619D01*
X142430045Y-93860619D01*
X142420220Y-93862573D01*
X142410280Y-93863826D01*
X142267424Y-93911445D01*
X142264703Y-93912996D01*
X142263271Y-93912996D01*
X142254942Y-93918560D01*
X142246238Y-93923523D01*
X142245597Y-93924804D01*
X142242994Y-93926544D01*
X142147756Y-94021782D01*
X142142195Y-94030103D01*
X142136048Y-94038025D01*
X142088429Y-94133263D01*
X142086620Y-94139867D01*
X142083697Y-94146056D01*
X142036078Y-94336532D01*
X142035705Y-94344180D01*
X142034212Y-94351690D01*
X141923101Y-94351690D01*
X141923101Y-93749508D01*
X144936989Y-93749508D01*
X144936989Y-95096730D01*
G37*
D13*
X150866495Y-120754419D02*
X150866495Y-119754419D01*
X150866495Y-120230609D02*
X151437923Y-120230609D01*
X151437923Y-120754419D02*
X151437923Y-119754419D01*
X152342685Y-120087752D02*
X152342685Y-120754419D01*
X152104590Y-119706800D02*
X151866495Y-120421085D01*
X151866495Y-120421085D02*
X152485542Y-120421085D01*
X135847142Y-108873580D02*
X135799523Y-108921200D01*
X135799523Y-108921200D02*
X135656666Y-108968819D01*
X135656666Y-108968819D02*
X135561428Y-108968819D01*
X135561428Y-108968819D02*
X135418571Y-108921200D01*
X135418571Y-108921200D02*
X135323333Y-108825961D01*
X135323333Y-108825961D02*
X135275714Y-108730723D01*
X135275714Y-108730723D02*
X135228095Y-108540247D01*
X135228095Y-108540247D02*
X135228095Y-108397390D01*
X135228095Y-108397390D02*
X135275714Y-108206914D01*
X135275714Y-108206914D02*
X135323333Y-108111676D01*
X135323333Y-108111676D02*
X135418571Y-108016438D01*
X135418571Y-108016438D02*
X135561428Y-107968819D01*
X135561428Y-107968819D02*
X135656666Y-107968819D01*
X135656666Y-107968819D02*
X135799523Y-108016438D01*
X135799523Y-108016438D02*
X135847142Y-108064057D01*
X136799523Y-108968819D02*
X136228095Y-108968819D01*
X136513809Y-108968819D02*
X136513809Y-107968819D01*
X136513809Y-107968819D02*
X136418571Y-108111676D01*
X136418571Y-108111676D02*
X136323333Y-108206914D01*
X136323333Y-108206914D02*
X136228095Y-108254533D01*
X137418571Y-107968819D02*
X137513809Y-107968819D01*
X137513809Y-107968819D02*
X137609047Y-108016438D01*
X137609047Y-108016438D02*
X137656666Y-108064057D01*
X137656666Y-108064057D02*
X137704285Y-108159295D01*
X137704285Y-108159295D02*
X137751904Y-108349771D01*
X137751904Y-108349771D02*
X137751904Y-108587866D01*
X137751904Y-108587866D02*
X137704285Y-108778342D01*
X137704285Y-108778342D02*
X137656666Y-108873580D01*
X137656666Y-108873580D02*
X137609047Y-108921200D01*
X137609047Y-108921200D02*
X137513809Y-108968819D01*
X137513809Y-108968819D02*
X137418571Y-108968819D01*
X137418571Y-108968819D02*
X137323333Y-108921200D01*
X137323333Y-108921200D02*
X137275714Y-108873580D01*
X137275714Y-108873580D02*
X137228095Y-108778342D01*
X137228095Y-108778342D02*
X137180476Y-108587866D01*
X137180476Y-108587866D02*
X137180476Y-108349771D01*
X137180476Y-108349771D02*
X137228095Y-108159295D01*
X137228095Y-108159295D02*
X137275714Y-108064057D01*
X137275714Y-108064057D02*
X137323333Y-108016438D01*
X137323333Y-108016438D02*
X137418571Y-107968819D01*
X123104295Y-95405219D02*
X123104295Y-94405219D01*
X123104295Y-94881409D02*
X123675723Y-94881409D01*
X123675723Y-95405219D02*
X123675723Y-94405219D01*
X124675723Y-95405219D02*
X124104295Y-95405219D01*
X124390009Y-95405219D02*
X124390009Y-94405219D01*
X124390009Y-94405219D02*
X124294771Y-94548076D01*
X124294771Y-94548076D02*
X124199533Y-94643314D01*
X124199533Y-94643314D02*
X124104295Y-94690933D01*
X137922095Y-101054819D02*
X137922095Y-101864342D01*
X137922095Y-101864342D02*
X137969714Y-101959580D01*
X137969714Y-101959580D02*
X138017333Y-102007200D01*
X138017333Y-102007200D02*
X138112571Y-102054819D01*
X138112571Y-102054819D02*
X138303047Y-102054819D01*
X138303047Y-102054819D02*
X138398285Y-102007200D01*
X138398285Y-102007200D02*
X138445904Y-101959580D01*
X138445904Y-101959580D02*
X138493523Y-101864342D01*
X138493523Y-101864342D02*
X138493523Y-101054819D01*
X139493523Y-102054819D02*
X138922095Y-102054819D01*
X139207809Y-102054819D02*
X139207809Y-101054819D01*
X139207809Y-101054819D02*
X139112571Y-101197676D01*
X139112571Y-101197676D02*
X139017333Y-101292914D01*
X139017333Y-101292914D02*
X138922095Y-101340533D01*
X128474733Y-99373980D02*
X128427114Y-99421600D01*
X128427114Y-99421600D02*
X128284257Y-99469219D01*
X128284257Y-99469219D02*
X128189019Y-99469219D01*
X128189019Y-99469219D02*
X128046162Y-99421600D01*
X128046162Y-99421600D02*
X127950924Y-99326361D01*
X127950924Y-99326361D02*
X127903305Y-99231123D01*
X127903305Y-99231123D02*
X127855686Y-99040647D01*
X127855686Y-99040647D02*
X127855686Y-98897790D01*
X127855686Y-98897790D02*
X127903305Y-98707314D01*
X127903305Y-98707314D02*
X127950924Y-98612076D01*
X127950924Y-98612076D02*
X128046162Y-98516838D01*
X128046162Y-98516838D02*
X128189019Y-98469219D01*
X128189019Y-98469219D02*
X128284257Y-98469219D01*
X128284257Y-98469219D02*
X128427114Y-98516838D01*
X128427114Y-98516838D02*
X128474733Y-98564457D01*
X128808067Y-98469219D02*
X129474733Y-98469219D01*
X129474733Y-98469219D02*
X129046162Y-99469219D01*
X146891266Y-102838219D02*
X146891266Y-103552504D01*
X146891266Y-103552504D02*
X146843647Y-103695361D01*
X146843647Y-103695361D02*
X146748409Y-103790600D01*
X146748409Y-103790600D02*
X146605552Y-103838219D01*
X146605552Y-103838219D02*
X146510314Y-103838219D01*
X147891266Y-103838219D02*
X147319838Y-103838219D01*
X147605552Y-103838219D02*
X147605552Y-102838219D01*
X147605552Y-102838219D02*
X147510314Y-102981076D01*
X147510314Y-102981076D02*
X147415076Y-103076314D01*
X147415076Y-103076314D02*
X147319838Y-103123933D01*
X138517333Y-103483580D02*
X138469714Y-103531200D01*
X138469714Y-103531200D02*
X138326857Y-103578819D01*
X138326857Y-103578819D02*
X138231619Y-103578819D01*
X138231619Y-103578819D02*
X138088762Y-103531200D01*
X138088762Y-103531200D02*
X137993524Y-103435961D01*
X137993524Y-103435961D02*
X137945905Y-103340723D01*
X137945905Y-103340723D02*
X137898286Y-103150247D01*
X137898286Y-103150247D02*
X137898286Y-103007390D01*
X137898286Y-103007390D02*
X137945905Y-102816914D01*
X137945905Y-102816914D02*
X137993524Y-102721676D01*
X137993524Y-102721676D02*
X138088762Y-102626438D01*
X138088762Y-102626438D02*
X138231619Y-102578819D01*
X138231619Y-102578819D02*
X138326857Y-102578819D01*
X138326857Y-102578819D02*
X138469714Y-102626438D01*
X138469714Y-102626438D02*
X138517333Y-102674057D01*
X139374476Y-102912152D02*
X139374476Y-103578819D01*
X139136381Y-102531200D02*
X138898286Y-103245485D01*
X138898286Y-103245485D02*
X139517333Y-103245485D01*
X146408666Y-112342819D02*
X146408666Y-113057104D01*
X146408666Y-113057104D02*
X146361047Y-113199961D01*
X146361047Y-113199961D02*
X146265809Y-113295200D01*
X146265809Y-113295200D02*
X146122952Y-113342819D01*
X146122952Y-113342819D02*
X146027714Y-113342819D01*
X146789619Y-112342819D02*
X147408666Y-112342819D01*
X147408666Y-112342819D02*
X147075333Y-112723771D01*
X147075333Y-112723771D02*
X147218190Y-112723771D01*
X147218190Y-112723771D02*
X147313428Y-112771390D01*
X147313428Y-112771390D02*
X147361047Y-112819009D01*
X147361047Y-112819009D02*
X147408666Y-112914247D01*
X147408666Y-112914247D02*
X147408666Y-113152342D01*
X147408666Y-113152342D02*
X147361047Y-113247580D01*
X147361047Y-113247580D02*
X147313428Y-113295200D01*
X147313428Y-113295200D02*
X147218190Y-113342819D01*
X147218190Y-113342819D02*
X146932476Y-113342819D01*
X146932476Y-113342819D02*
X146837238Y-113295200D01*
X146837238Y-113295200D02*
X146789619Y-113247580D01*
X133691333Y-97133580D02*
X133643714Y-97181200D01*
X133643714Y-97181200D02*
X133500857Y-97228819D01*
X133500857Y-97228819D02*
X133405619Y-97228819D01*
X133405619Y-97228819D02*
X133262762Y-97181200D01*
X133262762Y-97181200D02*
X133167524Y-97085961D01*
X133167524Y-97085961D02*
X133119905Y-96990723D01*
X133119905Y-96990723D02*
X133072286Y-96800247D01*
X133072286Y-96800247D02*
X133072286Y-96657390D01*
X133072286Y-96657390D02*
X133119905Y-96466914D01*
X133119905Y-96466914D02*
X133167524Y-96371676D01*
X133167524Y-96371676D02*
X133262762Y-96276438D01*
X133262762Y-96276438D02*
X133405619Y-96228819D01*
X133405619Y-96228819D02*
X133500857Y-96228819D01*
X133500857Y-96228819D02*
X133643714Y-96276438D01*
X133643714Y-96276438D02*
X133691333Y-96324057D01*
X134024667Y-96228819D02*
X134643714Y-96228819D01*
X134643714Y-96228819D02*
X134310381Y-96609771D01*
X134310381Y-96609771D02*
X134453238Y-96609771D01*
X134453238Y-96609771D02*
X134548476Y-96657390D01*
X134548476Y-96657390D02*
X134596095Y-96705009D01*
X134596095Y-96705009D02*
X134643714Y-96800247D01*
X134643714Y-96800247D02*
X134643714Y-97038342D01*
X134643714Y-97038342D02*
X134596095Y-97133580D01*
X134596095Y-97133580D02*
X134548476Y-97181200D01*
X134548476Y-97181200D02*
X134453238Y-97228819D01*
X134453238Y-97228819D02*
X134167524Y-97228819D01*
X134167524Y-97228819D02*
X134072286Y-97181200D01*
X134072286Y-97181200D02*
X134024667Y-97133580D01*
X130135333Y-106842719D02*
X129802000Y-106366528D01*
X129563905Y-106842719D02*
X129563905Y-105842719D01*
X129563905Y-105842719D02*
X129944857Y-105842719D01*
X129944857Y-105842719D02*
X130040095Y-105890338D01*
X130040095Y-105890338D02*
X130087714Y-105937957D01*
X130087714Y-105937957D02*
X130135333Y-106033195D01*
X130135333Y-106033195D02*
X130135333Y-106176052D01*
X130135333Y-106176052D02*
X130087714Y-106271290D01*
X130087714Y-106271290D02*
X130040095Y-106318909D01*
X130040095Y-106318909D02*
X129944857Y-106366528D01*
X129944857Y-106366528D02*
X129563905Y-106366528D01*
X131040095Y-105842719D02*
X130563905Y-105842719D01*
X130563905Y-105842719D02*
X130516286Y-106318909D01*
X130516286Y-106318909D02*
X130563905Y-106271290D01*
X130563905Y-106271290D02*
X130659143Y-106223671D01*
X130659143Y-106223671D02*
X130897238Y-106223671D01*
X130897238Y-106223671D02*
X130992476Y-106271290D01*
X130992476Y-106271290D02*
X131040095Y-106318909D01*
X131040095Y-106318909D02*
X131087714Y-106414147D01*
X131087714Y-106414147D02*
X131087714Y-106652242D01*
X131087714Y-106652242D02*
X131040095Y-106747480D01*
X131040095Y-106747480D02*
X130992476Y-106795100D01*
X130992476Y-106795100D02*
X130897238Y-106842719D01*
X130897238Y-106842719D02*
X130659143Y-106842719D01*
X130659143Y-106842719D02*
X130563905Y-106795100D01*
X130563905Y-106795100D02*
X130516286Y-106747480D01*
X137768095Y-93490819D02*
X138339523Y-93490819D01*
X138053809Y-94490819D02*
X138053809Y-93490819D01*
X138672857Y-94490819D02*
X138672857Y-93490819D01*
X138672857Y-93490819D02*
X139053809Y-93490819D01*
X139053809Y-93490819D02*
X139149047Y-93538438D01*
X139149047Y-93538438D02*
X139196666Y-93586057D01*
X139196666Y-93586057D02*
X139244285Y-93681295D01*
X139244285Y-93681295D02*
X139244285Y-93824152D01*
X139244285Y-93824152D02*
X139196666Y-93919390D01*
X139196666Y-93919390D02*
X139149047Y-93967009D01*
X139149047Y-93967009D02*
X139053809Y-94014628D01*
X139053809Y-94014628D02*
X138672857Y-94014628D01*
X139577619Y-93490819D02*
X140196666Y-93490819D01*
X140196666Y-93490819D02*
X139863333Y-93871771D01*
X139863333Y-93871771D02*
X140006190Y-93871771D01*
X140006190Y-93871771D02*
X140101428Y-93919390D01*
X140101428Y-93919390D02*
X140149047Y-93967009D01*
X140149047Y-93967009D02*
X140196666Y-94062247D01*
X140196666Y-94062247D02*
X140196666Y-94300342D01*
X140196666Y-94300342D02*
X140149047Y-94395580D01*
X140149047Y-94395580D02*
X140101428Y-94443200D01*
X140101428Y-94443200D02*
X140006190Y-94490819D01*
X140006190Y-94490819D02*
X139720476Y-94490819D01*
X139720476Y-94490819D02*
X139625238Y-94443200D01*
X139625238Y-94443200D02*
X139577619Y-94395580D01*
X141311333Y-101451580D02*
X141263714Y-101499200D01*
X141263714Y-101499200D02*
X141120857Y-101546819D01*
X141120857Y-101546819D02*
X141025619Y-101546819D01*
X141025619Y-101546819D02*
X140882762Y-101499200D01*
X140882762Y-101499200D02*
X140787524Y-101403961D01*
X140787524Y-101403961D02*
X140739905Y-101308723D01*
X140739905Y-101308723D02*
X140692286Y-101118247D01*
X140692286Y-101118247D02*
X140692286Y-100975390D01*
X140692286Y-100975390D02*
X140739905Y-100784914D01*
X140739905Y-100784914D02*
X140787524Y-100689676D01*
X140787524Y-100689676D02*
X140882762Y-100594438D01*
X140882762Y-100594438D02*
X141025619Y-100546819D01*
X141025619Y-100546819D02*
X141120857Y-100546819D01*
X141120857Y-100546819D02*
X141263714Y-100594438D01*
X141263714Y-100594438D02*
X141311333Y-100642057D01*
X142263714Y-101546819D02*
X141692286Y-101546819D01*
X141978000Y-101546819D02*
X141978000Y-100546819D01*
X141978000Y-100546819D02*
X141882762Y-100689676D01*
X141882762Y-100689676D02*
X141787524Y-100784914D01*
X141787524Y-100784914D02*
X141692286Y-100832533D01*
X151371266Y-96716619D02*
X151371266Y-97430904D01*
X151371266Y-97430904D02*
X151323647Y-97573761D01*
X151323647Y-97573761D02*
X151228409Y-97669000D01*
X151228409Y-97669000D02*
X151085552Y-97716619D01*
X151085552Y-97716619D02*
X150990314Y-97716619D01*
X151799838Y-96811857D02*
X151847457Y-96764238D01*
X151847457Y-96764238D02*
X151942695Y-96716619D01*
X151942695Y-96716619D02*
X152180790Y-96716619D01*
X152180790Y-96716619D02*
X152276028Y-96764238D01*
X152276028Y-96764238D02*
X152323647Y-96811857D01*
X152323647Y-96811857D02*
X152371266Y-96907095D01*
X152371266Y-96907095D02*
X152371266Y-97002333D01*
X152371266Y-97002333D02*
X152323647Y-97145190D01*
X152323647Y-97145190D02*
X151752219Y-97716619D01*
X151752219Y-97716619D02*
X152371266Y-97716619D01*
X138517333Y-97228819D02*
X138184000Y-96752628D01*
X137945905Y-97228819D02*
X137945905Y-96228819D01*
X137945905Y-96228819D02*
X138326857Y-96228819D01*
X138326857Y-96228819D02*
X138422095Y-96276438D01*
X138422095Y-96276438D02*
X138469714Y-96324057D01*
X138469714Y-96324057D02*
X138517333Y-96419295D01*
X138517333Y-96419295D02*
X138517333Y-96562152D01*
X138517333Y-96562152D02*
X138469714Y-96657390D01*
X138469714Y-96657390D02*
X138422095Y-96705009D01*
X138422095Y-96705009D02*
X138326857Y-96752628D01*
X138326857Y-96752628D02*
X137945905Y-96752628D01*
X138850667Y-96228819D02*
X139469714Y-96228819D01*
X139469714Y-96228819D02*
X139136381Y-96609771D01*
X139136381Y-96609771D02*
X139279238Y-96609771D01*
X139279238Y-96609771D02*
X139374476Y-96657390D01*
X139374476Y-96657390D02*
X139422095Y-96705009D01*
X139422095Y-96705009D02*
X139469714Y-96800247D01*
X139469714Y-96800247D02*
X139469714Y-97038342D01*
X139469714Y-97038342D02*
X139422095Y-97133580D01*
X139422095Y-97133580D02*
X139374476Y-97181200D01*
X139374476Y-97181200D02*
X139279238Y-97228819D01*
X139279238Y-97228819D02*
X138993524Y-97228819D01*
X138993524Y-97228819D02*
X138898286Y-97181200D01*
X138898286Y-97181200D02*
X138850667Y-97133580D01*
X126087133Y-102872819D02*
X125753800Y-102396628D01*
X125515705Y-102872819D02*
X125515705Y-101872819D01*
X125515705Y-101872819D02*
X125896657Y-101872819D01*
X125896657Y-101872819D02*
X125991895Y-101920438D01*
X125991895Y-101920438D02*
X126039514Y-101968057D01*
X126039514Y-101968057D02*
X126087133Y-102063295D01*
X126087133Y-102063295D02*
X126087133Y-102206152D01*
X126087133Y-102206152D02*
X126039514Y-102301390D01*
X126039514Y-102301390D02*
X125991895Y-102349009D01*
X125991895Y-102349009D02*
X125896657Y-102396628D01*
X125896657Y-102396628D02*
X125515705Y-102396628D01*
X126944276Y-102206152D02*
X126944276Y-102872819D01*
X126706181Y-101825200D02*
X126468086Y-102539485D01*
X126468086Y-102539485D02*
X127087133Y-102539485D01*
X124359933Y-104580980D02*
X124312314Y-104628600D01*
X124312314Y-104628600D02*
X124169457Y-104676219D01*
X124169457Y-104676219D02*
X124074219Y-104676219D01*
X124074219Y-104676219D02*
X123931362Y-104628600D01*
X123931362Y-104628600D02*
X123836124Y-104533361D01*
X123836124Y-104533361D02*
X123788505Y-104438123D01*
X123788505Y-104438123D02*
X123740886Y-104247647D01*
X123740886Y-104247647D02*
X123740886Y-104104790D01*
X123740886Y-104104790D02*
X123788505Y-103914314D01*
X123788505Y-103914314D02*
X123836124Y-103819076D01*
X123836124Y-103819076D02*
X123931362Y-103723838D01*
X123931362Y-103723838D02*
X124074219Y-103676219D01*
X124074219Y-103676219D02*
X124169457Y-103676219D01*
X124169457Y-103676219D02*
X124312314Y-103723838D01*
X124312314Y-103723838D02*
X124359933Y-103771457D01*
X125264695Y-103676219D02*
X124788505Y-103676219D01*
X124788505Y-103676219D02*
X124740886Y-104152409D01*
X124740886Y-104152409D02*
X124788505Y-104104790D01*
X124788505Y-104104790D02*
X124883743Y-104057171D01*
X124883743Y-104057171D02*
X125121838Y-104057171D01*
X125121838Y-104057171D02*
X125217076Y-104104790D01*
X125217076Y-104104790D02*
X125264695Y-104152409D01*
X125264695Y-104152409D02*
X125312314Y-104247647D01*
X125312314Y-104247647D02*
X125312314Y-104485742D01*
X125312314Y-104485742D02*
X125264695Y-104580980D01*
X125264695Y-104580980D02*
X125217076Y-104628600D01*
X125217076Y-104628600D02*
X125121838Y-104676219D01*
X125121838Y-104676219D02*
X124883743Y-104676219D01*
X124883743Y-104676219D02*
X124788505Y-104628600D01*
X124788505Y-104628600D02*
X124740886Y-104580980D01*
X131913333Y-95450819D02*
X131580000Y-94974628D01*
X131341905Y-95450819D02*
X131341905Y-94450819D01*
X131341905Y-94450819D02*
X131722857Y-94450819D01*
X131722857Y-94450819D02*
X131818095Y-94498438D01*
X131818095Y-94498438D02*
X131865714Y-94546057D01*
X131865714Y-94546057D02*
X131913333Y-94641295D01*
X131913333Y-94641295D02*
X131913333Y-94784152D01*
X131913333Y-94784152D02*
X131865714Y-94879390D01*
X131865714Y-94879390D02*
X131818095Y-94927009D01*
X131818095Y-94927009D02*
X131722857Y-94974628D01*
X131722857Y-94974628D02*
X131341905Y-94974628D01*
X132294286Y-94546057D02*
X132341905Y-94498438D01*
X132341905Y-94498438D02*
X132437143Y-94450819D01*
X132437143Y-94450819D02*
X132675238Y-94450819D01*
X132675238Y-94450819D02*
X132770476Y-94498438D01*
X132770476Y-94498438D02*
X132818095Y-94546057D01*
X132818095Y-94546057D02*
X132865714Y-94641295D01*
X132865714Y-94641295D02*
X132865714Y-94736533D01*
X132865714Y-94736533D02*
X132818095Y-94879390D01*
X132818095Y-94879390D02*
X132246667Y-95450819D01*
X132246667Y-95450819D02*
X132865714Y-95450819D01*
X136485333Y-97228819D02*
X136152000Y-96752628D01*
X135913905Y-97228819D02*
X135913905Y-96228819D01*
X135913905Y-96228819D02*
X136294857Y-96228819D01*
X136294857Y-96228819D02*
X136390095Y-96276438D01*
X136390095Y-96276438D02*
X136437714Y-96324057D01*
X136437714Y-96324057D02*
X136485333Y-96419295D01*
X136485333Y-96419295D02*
X136485333Y-96562152D01*
X136485333Y-96562152D02*
X136437714Y-96657390D01*
X136437714Y-96657390D02*
X136390095Y-96705009D01*
X136390095Y-96705009D02*
X136294857Y-96752628D01*
X136294857Y-96752628D02*
X135913905Y-96752628D01*
X137437714Y-97228819D02*
X136866286Y-97228819D01*
X137152000Y-97228819D02*
X137152000Y-96228819D01*
X137152000Y-96228819D02*
X137056762Y-96371676D01*
X137056762Y-96371676D02*
X136961524Y-96466914D01*
X136961524Y-96466914D02*
X136866286Y-96514533D01*
X151044295Y-95354419D02*
X151044295Y-94354419D01*
X151044295Y-94830609D02*
X151615723Y-94830609D01*
X151615723Y-95354419D02*
X151615723Y-94354419D01*
X152044295Y-94449657D02*
X152091914Y-94402038D01*
X152091914Y-94402038D02*
X152187152Y-94354419D01*
X152187152Y-94354419D02*
X152425247Y-94354419D01*
X152425247Y-94354419D02*
X152520485Y-94402038D01*
X152520485Y-94402038D02*
X152568104Y-94449657D01*
X152568104Y-94449657D02*
X152615723Y-94544895D01*
X152615723Y-94544895D02*
X152615723Y-94640133D01*
X152615723Y-94640133D02*
X152568104Y-94782990D01*
X152568104Y-94782990D02*
X151996676Y-95354419D01*
X151996676Y-95354419D02*
X152615723Y-95354419D01*
X123536095Y-120652819D02*
X123536095Y-119652819D01*
X123536095Y-120129009D02*
X124107523Y-120129009D01*
X124107523Y-120652819D02*
X124107523Y-119652819D01*
X124488476Y-119652819D02*
X125107523Y-119652819D01*
X125107523Y-119652819D02*
X124774190Y-120033771D01*
X124774190Y-120033771D02*
X124917047Y-120033771D01*
X124917047Y-120033771D02*
X125012285Y-120081390D01*
X125012285Y-120081390D02*
X125059904Y-120129009D01*
X125059904Y-120129009D02*
X125107523Y-120224247D01*
X125107523Y-120224247D02*
X125107523Y-120462342D01*
X125107523Y-120462342D02*
X125059904Y-120557580D01*
X125059904Y-120557580D02*
X125012285Y-120605200D01*
X125012285Y-120605200D02*
X124917047Y-120652819D01*
X124917047Y-120652819D02*
X124631333Y-120652819D01*
X124631333Y-120652819D02*
X124536095Y-120605200D01*
X124536095Y-120605200D02*
X124488476Y-120557580D01*
X144867333Y-101451580D02*
X144819714Y-101499200D01*
X144819714Y-101499200D02*
X144676857Y-101546819D01*
X144676857Y-101546819D02*
X144581619Y-101546819D01*
X144581619Y-101546819D02*
X144438762Y-101499200D01*
X144438762Y-101499200D02*
X144343524Y-101403961D01*
X144343524Y-101403961D02*
X144295905Y-101308723D01*
X144295905Y-101308723D02*
X144248286Y-101118247D01*
X144248286Y-101118247D02*
X144248286Y-100975390D01*
X144248286Y-100975390D02*
X144295905Y-100784914D01*
X144295905Y-100784914D02*
X144343524Y-100689676D01*
X144343524Y-100689676D02*
X144438762Y-100594438D01*
X144438762Y-100594438D02*
X144581619Y-100546819D01*
X144581619Y-100546819D02*
X144676857Y-100546819D01*
X144676857Y-100546819D02*
X144819714Y-100594438D01*
X144819714Y-100594438D02*
X144867333Y-100642057D01*
X145248286Y-100642057D02*
X145295905Y-100594438D01*
X145295905Y-100594438D02*
X145391143Y-100546819D01*
X145391143Y-100546819D02*
X145629238Y-100546819D01*
X145629238Y-100546819D02*
X145724476Y-100594438D01*
X145724476Y-100594438D02*
X145772095Y-100642057D01*
X145772095Y-100642057D02*
X145819714Y-100737295D01*
X145819714Y-100737295D02*
X145819714Y-100832533D01*
X145819714Y-100832533D02*
X145772095Y-100975390D01*
X145772095Y-100975390D02*
X145200667Y-101546819D01*
X145200667Y-101546819D02*
X145819714Y-101546819D01*
X125560142Y-100999580D02*
X125512523Y-101047200D01*
X125512523Y-101047200D02*
X125369666Y-101094819D01*
X125369666Y-101094819D02*
X125274428Y-101094819D01*
X125274428Y-101094819D02*
X125131571Y-101047200D01*
X125131571Y-101047200D02*
X125036333Y-100951961D01*
X125036333Y-100951961D02*
X124988714Y-100856723D01*
X124988714Y-100856723D02*
X124941095Y-100666247D01*
X124941095Y-100666247D02*
X124941095Y-100523390D01*
X124941095Y-100523390D02*
X124988714Y-100332914D01*
X124988714Y-100332914D02*
X125036333Y-100237676D01*
X125036333Y-100237676D02*
X125131571Y-100142438D01*
X125131571Y-100142438D02*
X125274428Y-100094819D01*
X125274428Y-100094819D02*
X125369666Y-100094819D01*
X125369666Y-100094819D02*
X125512523Y-100142438D01*
X125512523Y-100142438D02*
X125560142Y-100190057D01*
X126512523Y-101094819D02*
X125941095Y-101094819D01*
X126226809Y-101094819D02*
X126226809Y-100094819D01*
X126226809Y-100094819D02*
X126131571Y-100237676D01*
X126131571Y-100237676D02*
X126036333Y-100332914D01*
X126036333Y-100332914D02*
X125941095Y-100380533D01*
X127464904Y-101094819D02*
X126893476Y-101094819D01*
X127179190Y-101094819D02*
X127179190Y-100094819D01*
X127179190Y-100094819D02*
X127083952Y-100237676D01*
X127083952Y-100237676D02*
X126988714Y-100332914D01*
X126988714Y-100332914D02*
X126893476Y-100380533D01*
X128357333Y-96879580D02*
X128309714Y-96927200D01*
X128309714Y-96927200D02*
X128166857Y-96974819D01*
X128166857Y-96974819D02*
X128071619Y-96974819D01*
X128071619Y-96974819D02*
X127928762Y-96927200D01*
X127928762Y-96927200D02*
X127833524Y-96831961D01*
X127833524Y-96831961D02*
X127785905Y-96736723D01*
X127785905Y-96736723D02*
X127738286Y-96546247D01*
X127738286Y-96546247D02*
X127738286Y-96403390D01*
X127738286Y-96403390D02*
X127785905Y-96212914D01*
X127785905Y-96212914D02*
X127833524Y-96117676D01*
X127833524Y-96117676D02*
X127928762Y-96022438D01*
X127928762Y-96022438D02*
X128071619Y-95974819D01*
X128071619Y-95974819D02*
X128166857Y-95974819D01*
X128166857Y-95974819D02*
X128309714Y-96022438D01*
X128309714Y-96022438D02*
X128357333Y-96070057D01*
X129214476Y-95974819D02*
X129024000Y-95974819D01*
X129024000Y-95974819D02*
X128928762Y-96022438D01*
X128928762Y-96022438D02*
X128881143Y-96070057D01*
X128881143Y-96070057D02*
X128785905Y-96212914D01*
X128785905Y-96212914D02*
X128738286Y-96403390D01*
X128738286Y-96403390D02*
X128738286Y-96784342D01*
X128738286Y-96784342D02*
X128785905Y-96879580D01*
X128785905Y-96879580D02*
X128833524Y-96927200D01*
X128833524Y-96927200D02*
X128928762Y-96974819D01*
X128928762Y-96974819D02*
X129119238Y-96974819D01*
X129119238Y-96974819D02*
X129214476Y-96927200D01*
X129214476Y-96927200D02*
X129262095Y-96879580D01*
X129262095Y-96879580D02*
X129309714Y-96784342D01*
X129309714Y-96784342D02*
X129309714Y-96546247D01*
X129309714Y-96546247D02*
X129262095Y-96451009D01*
X129262095Y-96451009D02*
X129214476Y-96403390D01*
X129214476Y-96403390D02*
X129119238Y-96355771D01*
X129119238Y-96355771D02*
X128928762Y-96355771D01*
X128928762Y-96355771D02*
X128833524Y-96403390D01*
X128833524Y-96403390D02*
X128785905Y-96451009D01*
X128785905Y-96451009D02*
X128738286Y-96546247D01*
X139787333Y-108817580D02*
X139739714Y-108865200D01*
X139739714Y-108865200D02*
X139596857Y-108912819D01*
X139596857Y-108912819D02*
X139501619Y-108912819D01*
X139501619Y-108912819D02*
X139358762Y-108865200D01*
X139358762Y-108865200D02*
X139263524Y-108769961D01*
X139263524Y-108769961D02*
X139215905Y-108674723D01*
X139215905Y-108674723D02*
X139168286Y-108484247D01*
X139168286Y-108484247D02*
X139168286Y-108341390D01*
X139168286Y-108341390D02*
X139215905Y-108150914D01*
X139215905Y-108150914D02*
X139263524Y-108055676D01*
X139263524Y-108055676D02*
X139358762Y-107960438D01*
X139358762Y-107960438D02*
X139501619Y-107912819D01*
X139501619Y-107912819D02*
X139596857Y-107912819D01*
X139596857Y-107912819D02*
X139739714Y-107960438D01*
X139739714Y-107960438D02*
X139787333Y-108008057D01*
X140263524Y-108912819D02*
X140454000Y-108912819D01*
X140454000Y-108912819D02*
X140549238Y-108865200D01*
X140549238Y-108865200D02*
X140596857Y-108817580D01*
X140596857Y-108817580D02*
X140692095Y-108674723D01*
X140692095Y-108674723D02*
X140739714Y-108484247D01*
X140739714Y-108484247D02*
X140739714Y-108103295D01*
X140739714Y-108103295D02*
X140692095Y-108008057D01*
X140692095Y-108008057D02*
X140644476Y-107960438D01*
X140644476Y-107960438D02*
X140549238Y-107912819D01*
X140549238Y-107912819D02*
X140358762Y-107912819D01*
X140358762Y-107912819D02*
X140263524Y-107960438D01*
X140263524Y-107960438D02*
X140215905Y-108008057D01*
X140215905Y-108008057D02*
X140168286Y-108103295D01*
X140168286Y-108103295D02*
X140168286Y-108341390D01*
X140168286Y-108341390D02*
X140215905Y-108436628D01*
X140215905Y-108436628D02*
X140263524Y-108484247D01*
X140263524Y-108484247D02*
X140358762Y-108531866D01*
X140358762Y-108531866D02*
X140549238Y-108531866D01*
X140549238Y-108531866D02*
X140644476Y-108484247D01*
X140644476Y-108484247D02*
X140692095Y-108436628D01*
X140692095Y-108436628D02*
X140739714Y-108341390D01*
X122353333Y-114302819D02*
X121877143Y-114302819D01*
X121877143Y-114302819D02*
X121877143Y-113302819D01*
X123210476Y-114302819D02*
X122639048Y-114302819D01*
X122924762Y-114302819D02*
X122924762Y-113302819D01*
X122924762Y-113302819D02*
X122829524Y-113445676D01*
X122829524Y-113445676D02*
X122734286Y-113540914D01*
X122734286Y-113540914D02*
X122639048Y-113588533D01*
D14*
%TO.C,C10*%
X137562000Y-110848748D02*
X137562000Y-112271252D01*
X135742000Y-110848748D02*
X135742000Y-112271252D01*
D10*
%TO.C,U1*%
G36*
X135560501Y-101536000D02*
G01*
X135179501Y-101536000D01*
X135179501Y-101282000D01*
X135560501Y-101282000D01*
X135560501Y-101536000D01*
G37*
G36*
X135060500Y-106998000D02*
G01*
X134679499Y-106998000D01*
X134679499Y-106744000D01*
X135060500Y-106744000D01*
X135060500Y-106998000D01*
G37*
D15*
X136797000Y-106317000D02*
X136797000Y-105847740D01*
X136797000Y-102432260D02*
X136797000Y-101963000D01*
X136797000Y-101963000D02*
X136327740Y-101963000D01*
X136327740Y-106317000D02*
X136797000Y-106317000D01*
X132912260Y-101963000D02*
X132443000Y-101963000D01*
X132443000Y-106317000D02*
X132912260Y-106317000D01*
X132443000Y-105847740D02*
X132443000Y-106317000D01*
X132443000Y-101963000D02*
X132443000Y-102432260D01*
D14*
%TO.C,C7*%
X130812000Y-98919420D02*
X130812000Y-99200580D01*
X129792000Y-98919420D02*
X129792000Y-99200580D01*
%TO.C,J1*%
X151078000Y-104191000D02*
X151078000Y-106841000D01*
X148318000Y-106841000D02*
X151078000Y-106841000D01*
X148318000Y-104191000D02*
X151078000Y-104191000D01*
X148318000Y-104191000D02*
X148318000Y-106841000D01*
X148318000Y-102921000D02*
X148318000Y-101541000D01*
X148318000Y-101541000D02*
X149698000Y-101541000D01*
%TO.C,C4*%
X139194000Y-105550580D02*
X139194000Y-105269420D01*
X138174000Y-105550580D02*
X138174000Y-105269420D01*
%TO.C,J3*%
X151078000Y-113963000D02*
X149698000Y-113963000D01*
X151078000Y-112583000D02*
X151078000Y-113963000D01*
X151078000Y-111313000D02*
X151078000Y-108663000D01*
X151078000Y-111313000D02*
X148318000Y-111313000D01*
X151078000Y-108663000D02*
X148318000Y-108663000D01*
X148318000Y-111313000D02*
X148318000Y-108663000D01*
%TO.C,C3*%
X134368000Y-98919420D02*
X134368000Y-99200580D01*
X133348000Y-98919420D02*
X133348000Y-99200580D01*
%TO.C,R5*%
X129523258Y-105424500D02*
X129048742Y-105424500D01*
X129523258Y-104379500D02*
X129048742Y-104379500D01*
%TO.C,TP3*%
X137352000Y-93980000D02*
G75*
G02*
X135952000Y-93980000I-700000J0D01*
G01*
X135952000Y-93980000D02*
G75*
G02*
X137352000Y-93980000I700000J0D01*
G01*
%TO.C,C1*%
X142388000Y-105105252D02*
X142388000Y-103682748D01*
X140568000Y-105105252D02*
X140568000Y-103682748D01*
%TO.C,J2*%
X149970000Y-95902000D02*
X149970000Y-97282000D01*
X148590000Y-95902000D02*
X149970000Y-95902000D01*
X147320000Y-98662000D02*
X142130000Y-98662000D01*
X147320000Y-95902000D02*
X147320000Y-98662000D01*
X147320000Y-95902000D02*
X142130000Y-95902000D01*
X142130000Y-95902000D02*
X142130000Y-98662000D01*
%TO.C,R3*%
X139206500Y-99297258D02*
X139206500Y-98822742D01*
X138161500Y-99297258D02*
X138161500Y-98822742D01*
%TO.C,R4*%
X130824500Y-102124742D02*
X130824500Y-102599258D01*
X129779500Y-102124742D02*
X129779500Y-102599258D01*
%TO.C,C5*%
X126748000Y-104507420D02*
X126748000Y-104788580D01*
X125728000Y-104507420D02*
X125728000Y-104788580D01*
%TO.C,R2*%
X132602500Y-99297258D02*
X132602500Y-98822742D01*
X131557500Y-99297258D02*
X131557500Y-98822742D01*
%TO.C,R1*%
X137174500Y-99297258D02*
X137174500Y-98822742D01*
X136129500Y-99297258D02*
X136129500Y-98822742D01*
%TO.C,C2*%
X145944000Y-105105252D02*
X145944000Y-103682748D01*
X144124000Y-105105252D02*
X144124000Y-103682748D01*
%TO.C,C11*%
X128780000Y-102489580D02*
X128780000Y-102208420D01*
X127760000Y-102489580D02*
X127760000Y-102208420D01*
%TO.C,C6*%
X131152020Y-97030000D02*
X131433180Y-97030000D01*
X131152020Y-96010000D02*
X131433180Y-96010000D01*
%TO.C,C9*%
X140912000Y-110848748D02*
X140912000Y-112271252D01*
X139092000Y-110848748D02*
X139092000Y-112271252D01*
D15*
%TO.C,L1*%
X129108200Y-106387900D02*
G75*
G02*
X128955800Y-106387900I-76200J0D01*
G01*
X128955800Y-106387900D02*
G75*
G02*
X129108200Y-106387900I76200J0D01*
G01*
X134302500Y-118960900D02*
X134302500Y-107530900D01*
X134302500Y-107530900D02*
X130990340Y-107530900D01*
X130990340Y-118960900D02*
X134302500Y-118960900D01*
X127073660Y-107530900D02*
X123761500Y-107530900D01*
X123761500Y-118960900D02*
X127073660Y-118960900D01*
X123761500Y-107530900D02*
X123761500Y-118960900D01*
%TD*%
M02*
