%TF.GenerationSoftware,KiCad,Pcbnew,9.0.5*%
%TF.CreationDate,2025-10-20T16:26:16+05:30*%
%TF.ProjectId,adp2384,61647032-3338-4342-9e6b-696361645f70,A1*%
%TF.SameCoordinates,Original*%
%TF.FileFunction,Soldermask,Top*%
%TF.FilePolarity,Negative*%
%FSLAX46Y46*%
G04 Gerber Fmt 4.6, Leading zero omitted, Abs format (unit mm)*
G04 Created by KiCad (PCBNEW 9.0.5) date 2025-10-20 16:26:16*
%MOMM*%
%LPD*%
G01*
G04 APERTURE LIST*
G04 Aperture macros list*
%AMRoundRect*
0 Rectangle with rounded corners*
0 $1 Rounding radius*
0 $2 $3 $4 $5 $6 $7 $8 $9 X,Y pos of 4 corners*
0 Add a 4 corners polygon primitive as box body*
4,1,4,$2,$3,$4,$5,$6,$7,$8,$9,$2,$3,0*
0 Add four circle primitives for the rounded corners*
1,1,$1+$1,$2,$3*
1,1,$1+$1,$4,$5*
1,1,$1+$1,$6,$7*
1,1,$1+$1,$8,$9*
0 Add four rect primitives between the rounded corners*
20,1,$1+$1,$2,$3,$4,$5,0*
20,1,$1+$1,$4,$5,$6,$7,0*
20,1,$1+$1,$6,$7,$8,$9,0*
20,1,$1+$1,$8,$9,$2,$3,0*%
%AMFreePoly0*
4,1,5,1.350000,-0.538000,-1.350000,-0.538000,-1.350000,0.412000,1.350000,0.412000,1.350000,-0.538000,1.350000,-0.538000,$1*%
%AMFreePoly1*
4,1,5,1.350000,-0.762000,-1.350000,-0.762000,-1.350000,0.638000,1.350000,0.638000,1.350000,-0.762000,1.350000,-0.762000,$1*%
G04 Aperture macros list end*
%ADD10C,5.600000*%
%ADD11C,3.600000*%
%ADD12RoundRect,0.250000X-0.650000X0.325000X-0.650000X-0.325000X0.650000X-0.325000X0.650000X0.325000X0*%
%ADD13FreePoly0,0.000000*%
%ADD14FreePoly1,0.000000*%
%ADD15R,0.250000X0.799999*%
%ADD16R,0.799999X0.250000*%
%ADD17RoundRect,0.225000X-0.250000X0.225000X-0.250000X-0.225000X0.250000X-0.225000X0.250000X0.225000X0*%
%ADD18C,1.700000*%
%ADD19R,1.700000X1.700000*%
%ADD20RoundRect,0.225000X0.250000X-0.225000X0.250000X0.225000X-0.250000X0.225000X-0.250000X-0.225000X0*%
%ADD21RoundRect,0.200000X0.200000X0.275000X-0.200000X0.275000X-0.200000X-0.275000X0.200000X-0.275000X0*%
%ADD22C,1.000000*%
%ADD23RoundRect,0.250000X0.650000X-0.325000X0.650000X0.325000X-0.650000X0.325000X-0.650000X-0.325000X0*%
%ADD24RoundRect,0.200000X0.275000X-0.200000X0.275000X0.200000X-0.275000X0.200000X-0.275000X-0.200000X0*%
%ADD25RoundRect,0.200000X-0.275000X0.200000X-0.275000X-0.200000X0.275000X-0.200000X0.275000X0.200000X0*%
%ADD26RoundRect,0.225000X-0.225000X-0.250000X0.225000X-0.250000X0.225000X0.250000X-0.225000X0.250000X0*%
%ADD27R,3.251200X2.921000*%
G04 APERTURE END LIST*
D10*
%TO.C,H4*%
X151984000Y-124008000D03*
D11*
X151984000Y-124008000D03*
%TD*%
D12*
%TO.C,C10*%
X136652000Y-113035000D03*
X136652000Y-110085000D03*
%TD*%
D10*
%TO.C,H1*%
X124298000Y-91242000D03*
D11*
X124298000Y-91242000D03*
%TD*%
D13*
%TO.C,U1*%
X134620000Y-104902000D03*
D14*
X134620000Y-103378000D03*
D15*
X133370000Y-102189999D03*
X133869999Y-102189999D03*
X134370000Y-102189999D03*
X134870000Y-102189999D03*
X135370001Y-102189999D03*
X135870000Y-102189999D03*
D16*
X136570001Y-102890000D03*
X136570001Y-103389999D03*
X136570001Y-103890000D03*
X136570001Y-104390000D03*
X136570001Y-104890001D03*
X136570001Y-105390000D03*
D15*
X135870000Y-106090001D03*
X135370001Y-106090001D03*
X134870000Y-106090001D03*
X134370000Y-106090001D03*
X133869999Y-106090001D03*
X133370000Y-106090001D03*
D16*
X132669999Y-105390000D03*
X132669999Y-104890001D03*
X132669999Y-104390000D03*
X132669999Y-103890000D03*
X132669999Y-103389999D03*
X132669999Y-102890000D03*
%TD*%
D17*
%TO.C,C7*%
X130302000Y-99835000D03*
X130302000Y-98285000D03*
%TD*%
D18*
%TO.C,J1*%
X149698000Y-105461000D03*
D19*
X149698000Y-102921000D03*
%TD*%
D20*
%TO.C,C4*%
X138684000Y-104635000D03*
X138684000Y-106185000D03*
%TD*%
D18*
%TO.C,J3*%
X149698000Y-110043000D03*
D19*
X149698000Y-112583000D03*
%TD*%
D17*
%TO.C,C3*%
X133858000Y-99835000D03*
X133858000Y-98285000D03*
%TD*%
D21*
%TO.C,R5*%
X128461000Y-104902000D03*
X130111000Y-104902000D03*
%TD*%
D22*
%TO.C,TP3*%
X136652000Y-93980000D03*
%TD*%
D23*
%TO.C,C1*%
X141478000Y-102919000D03*
X141478000Y-105869000D03*
%TD*%
D18*
%TO.C,J2*%
X143510000Y-97282000D03*
X146050000Y-97282000D03*
D19*
X148590000Y-97282000D03*
%TD*%
D24*
%TO.C,R3*%
X138684000Y-98235000D03*
X138684000Y-99885000D03*
%TD*%
D25*
%TO.C,R4*%
X130302000Y-103187000D03*
X130302000Y-101537000D03*
%TD*%
D17*
%TO.C,C5*%
X126238000Y-105423000D03*
X126238000Y-103873000D03*
%TD*%
D24*
%TO.C,R2*%
X132080000Y-98235000D03*
X132080000Y-99885000D03*
%TD*%
%TO.C,R1*%
X136652000Y-98235000D03*
X136652000Y-99885000D03*
%TD*%
D10*
%TO.C,H2*%
X151984000Y-91242000D03*
D11*
X151984000Y-91242000D03*
%TD*%
D10*
%TO.C,H3*%
X124298000Y-124008000D03*
D11*
X124298000Y-124008000D03*
%TD*%
D23*
%TO.C,C2*%
X145034000Y-102919000D03*
X145034000Y-105869000D03*
%TD*%
D20*
%TO.C,C11*%
X128270000Y-101574000D03*
X128270000Y-103124000D03*
%TD*%
D26*
%TO.C,C6*%
X132067600Y-96520000D03*
X130517600Y-96520000D03*
%TD*%
D12*
%TO.C,C9*%
X140002000Y-113035000D03*
X140002000Y-110085000D03*
%TD*%
D27*
%TO.C,L1*%
X129032000Y-117525800D03*
X129032000Y-108966000D03*
%TD*%
M02*
