%TF.GenerationSoftware,KiCad,Pcbnew,9.0.5*%
%TF.CreationDate,2025-10-20T16:26:16+05:30*%
%TF.ProjectId,adp2384,61647032-3338-4342-9e6b-696361645f70,A1*%
%TF.SameCoordinates,Original*%
%TF.FileFunction,Legend,Bot*%
%TF.FilePolarity,Positive*%
%FSLAX46Y46*%
G04 Gerber Fmt 4.6, Leading zero omitted, Abs format (unit mm)*
G04 Created by KiCad (PCBNEW 9.0.5) date 2025-10-20 16:26:16*
%MOMM*%
%LPD*%
G01*
G04 APERTURE LIST*
%ADD10C,0.000000*%
%ADD11C,0.250000*%
G04 APERTURE END LIST*
D10*
G36*
X150798667Y-116811334D02*
G01*
X149066969Y-118543032D01*
X150798667Y-120274730D01*
X150413698Y-120659698D01*
X148682000Y-118928000D01*
X146950302Y-120659698D01*
X146565334Y-120274730D01*
X148297032Y-118543032D01*
X146565334Y-116811334D01*
X146950302Y-116426365D01*
X148682000Y-118158063D01*
X150413698Y-116426365D01*
X150798667Y-116811334D01*
G37*
G36*
X150594386Y-116430420D02*
G01*
X150597752Y-116430676D01*
X150601069Y-116431098D01*
X150604334Y-116431681D01*
X150607540Y-116432421D01*
X150610686Y-116433314D01*
X150613766Y-116434356D01*
X150616776Y-116435543D01*
X150619712Y-116436871D01*
X150622570Y-116438334D01*
X150625345Y-116439930D01*
X150628035Y-116441655D01*
X150630634Y-116443503D01*
X150633138Y-116445470D01*
X150635543Y-116447554D01*
X150637845Y-116449749D01*
X150640040Y-116452051D01*
X150642123Y-116454456D01*
X150644091Y-116456960D01*
X150645939Y-116459558D01*
X150647663Y-116462248D01*
X150649259Y-116465024D01*
X150650723Y-116467882D01*
X150652050Y-116470818D01*
X150653237Y-116473828D01*
X150654279Y-116476908D01*
X150655173Y-116480053D01*
X150655913Y-116483260D01*
X150656496Y-116486524D01*
X150656917Y-116489841D01*
X150657173Y-116493207D01*
X150657259Y-116496618D01*
X150657173Y-116500029D01*
X150656917Y-116503395D01*
X150656496Y-116506712D01*
X150655913Y-116509976D01*
X150655173Y-116513183D01*
X150654279Y-116516328D01*
X150653237Y-116519408D01*
X150652050Y-116522418D01*
X150650723Y-116525354D01*
X150649259Y-116528212D01*
X150647663Y-116530988D01*
X150645939Y-116533677D01*
X150644091Y-116536276D01*
X150642123Y-116538780D01*
X150640040Y-116541185D01*
X150637845Y-116543487D01*
X150635543Y-116545682D01*
X150633138Y-116547765D01*
X150630634Y-116549733D01*
X150628035Y-116551581D01*
X150625345Y-116553305D01*
X150622570Y-116554901D01*
X150619712Y-116556365D01*
X150616776Y-116557693D01*
X150613766Y-116558880D01*
X150610686Y-116559922D01*
X150607540Y-116560815D01*
X150604334Y-116561555D01*
X150601069Y-116562138D01*
X150597752Y-116562560D01*
X150594386Y-116562816D01*
X150590975Y-116562902D01*
X150437665Y-116562902D01*
X150232892Y-118267053D01*
X150232821Y-118268448D01*
X150232726Y-118269836D01*
X150232606Y-118271216D01*
X150232460Y-118272587D01*
X150232286Y-118273950D01*
X150232083Y-118275302D01*
X150231849Y-118276645D01*
X150231584Y-118277976D01*
X149981579Y-120358673D01*
X149979105Y-120374867D01*
X149975910Y-120390792D01*
X149972011Y-120406432D01*
X149967426Y-120421770D01*
X149962174Y-120436791D01*
X149956274Y-120451478D01*
X149949743Y-120465815D01*
X149942600Y-120479786D01*
X149934864Y-120493376D01*
X149926552Y-120506568D01*
X149917684Y-120519346D01*
X149908276Y-120531694D01*
X149898349Y-120543596D01*
X149887919Y-120555036D01*
X149877006Y-120565998D01*
X149865628Y-120576466D01*
X149853803Y-120586424D01*
X149841550Y-120595856D01*
X149828886Y-120604745D01*
X149815831Y-120613076D01*
X149802402Y-120620833D01*
X149788618Y-120628000D01*
X149774497Y-120634560D01*
X149760058Y-120640498D01*
X149745319Y-120645797D01*
X149730298Y-120650442D01*
X149715014Y-120654416D01*
X149699485Y-120657704D01*
X149683729Y-120660289D01*
X149667765Y-120662155D01*
X149651611Y-120663286D01*
X149635285Y-120663667D01*
X147728712Y-120663667D01*
X147712386Y-120663286D01*
X147696232Y-120662155D01*
X147680268Y-120660289D01*
X147664513Y-120657705D01*
X147648984Y-120654418D01*
X147633700Y-120650446D01*
X147618679Y-120645803D01*
X147603940Y-120640507D01*
X147589501Y-120634573D01*
X147575381Y-120628017D01*
X147561598Y-120620857D01*
X147548170Y-120613107D01*
X147535115Y-120604784D01*
X147522452Y-120595904D01*
X147510200Y-120586483D01*
X147498376Y-120576538D01*
X147487000Y-120566084D01*
X147476089Y-120555138D01*
X147465661Y-120543716D01*
X147455736Y-120531834D01*
X147446331Y-120519508D01*
X147437465Y-120506754D01*
X147429156Y-120493589D01*
X147421423Y-120480029D01*
X147414283Y-120466089D01*
X147407756Y-120451786D01*
X147401860Y-120437136D01*
X147396612Y-120422155D01*
X147392032Y-120406860D01*
X147388138Y-120391266D01*
X147384948Y-120375389D01*
X147382480Y-120359247D01*
X147342600Y-120027341D01*
X147476126Y-120027341D01*
X147514032Y-120342861D01*
X147515556Y-120352821D01*
X147517528Y-120362619D01*
X147519938Y-120372245D01*
X147522773Y-120381688D01*
X147526023Y-120390940D01*
X147529675Y-120399989D01*
X147533719Y-120408826D01*
X147538144Y-120417440D01*
X147542937Y-120425822D01*
X147548087Y-120433961D01*
X147553583Y-120441847D01*
X147559414Y-120449470D01*
X147565568Y-120456820D01*
X147572033Y-120463886D01*
X147578799Y-120470659D01*
X147585854Y-120477129D01*
X147593186Y-120483284D01*
X147600784Y-120489116D01*
X147608637Y-120494615D01*
X147616733Y-120499769D01*
X147625061Y-120504569D01*
X147633610Y-120509004D01*
X147642367Y-120513066D01*
X147651323Y-120516743D01*
X147660464Y-120520025D01*
X147669781Y-120522902D01*
X147679260Y-120525365D01*
X147688892Y-120527402D01*
X147698665Y-120529004D01*
X147708566Y-120530161D01*
X147718586Y-120530863D01*
X147728712Y-120531099D01*
X149635285Y-120531099D01*
X149645411Y-120530863D01*
X149655431Y-120530161D01*
X149665332Y-120529004D01*
X149675105Y-120527401D01*
X149684737Y-120525362D01*
X149694217Y-120522898D01*
X149703533Y-120520019D01*
X149712675Y-120516733D01*
X149721631Y-120513053D01*
X149730389Y-120508987D01*
X149738938Y-120504545D01*
X149747267Y-120499738D01*
X149755364Y-120494576D01*
X149763218Y-120489068D01*
X149770818Y-120483224D01*
X149778151Y-120477056D01*
X149785207Y-120470572D01*
X149791975Y-120463782D01*
X149798442Y-120456698D01*
X149804598Y-120449327D01*
X149810431Y-120441682D01*
X149815930Y-120433772D01*
X149821083Y-120425606D01*
X149825879Y-120417194D01*
X149830307Y-120408548D01*
X149834355Y-120399677D01*
X149838011Y-120390590D01*
X149841265Y-120381298D01*
X149844105Y-120371811D01*
X149846520Y-120362138D01*
X149848498Y-120352291D01*
X149850027Y-120342279D01*
X149887862Y-120027341D01*
X149565943Y-120027341D01*
X149565854Y-120027341D01*
X149565749Y-120027341D01*
X147798239Y-120027341D01*
X147798133Y-120027341D01*
X147798045Y-120027341D01*
X147476126Y-120027341D01*
X147342600Y-120027341D01*
X147291628Y-119603124D01*
X147425158Y-119603124D01*
X147460200Y-119894774D01*
X147726176Y-119894774D01*
X147701871Y-119603124D01*
X147834899Y-119603124D01*
X147859203Y-119894774D01*
X148171002Y-119894774D01*
X148158851Y-119603124D01*
X148291533Y-119603124D01*
X148303685Y-119894774D01*
X148615715Y-119894774D01*
X148748282Y-119894774D01*
X149060312Y-119894774D01*
X149192995Y-119894774D01*
X149504794Y-119894774D01*
X149637822Y-119894774D01*
X149903797Y-119894774D01*
X149938839Y-119603124D01*
X149662126Y-119603124D01*
X149637822Y-119894774D01*
X149504794Y-119894774D01*
X149529098Y-119603124D01*
X149205146Y-119603124D01*
X149192995Y-119894774D01*
X149060312Y-119894774D01*
X149072464Y-119603124D01*
X148748282Y-119603124D01*
X148748282Y-119894774D01*
X148615715Y-119894774D01*
X148615715Y-119603124D01*
X148291533Y-119603124D01*
X148158851Y-119603124D01*
X147834899Y-119603124D01*
X147701871Y-119603124D01*
X147425158Y-119603124D01*
X147291628Y-119603124D01*
X147240657Y-119178907D01*
X147374181Y-119178907D01*
X147409224Y-119470565D01*
X147409347Y-119470556D01*
X147690824Y-119470556D01*
X147666520Y-119178907D01*
X147799547Y-119178907D01*
X147823852Y-119470556D01*
X148153327Y-119470556D01*
X148141175Y-119178907D01*
X148273858Y-119178907D01*
X148286009Y-119470556D01*
X148615715Y-119470556D01*
X148615715Y-119178907D01*
X148748282Y-119178907D01*
X148748282Y-119470556D01*
X149077987Y-119470556D01*
X149210670Y-119470556D01*
X149540146Y-119470556D01*
X149673173Y-119470556D01*
X149954650Y-119470556D01*
X149954774Y-119470565D01*
X149989816Y-119178907D01*
X149697477Y-119178907D01*
X149673173Y-119470556D01*
X149540146Y-119470556D01*
X149564450Y-119178907D01*
X149222822Y-119178907D01*
X149210670Y-119470556D01*
X149077987Y-119470556D01*
X149090140Y-119178907D01*
X148748282Y-119178907D01*
X148615715Y-119178907D01*
X148273858Y-119178907D01*
X148141175Y-119178907D01*
X147799547Y-119178907D01*
X147666520Y-119178907D01*
X147374181Y-119178907D01*
X147240657Y-119178907D01*
X147189685Y-118754690D01*
X147323213Y-118754690D01*
X147358256Y-119046339D01*
X147655473Y-119046339D01*
X147631169Y-118754690D01*
X147764196Y-118754690D01*
X147788500Y-119046339D01*
X148135651Y-119046339D01*
X148123499Y-118754690D01*
X148256182Y-118754690D01*
X148268334Y-119046339D01*
X148615715Y-119046339D01*
X148748282Y-119046339D01*
X149095663Y-119046339D01*
X149228346Y-119046339D01*
X149575497Y-119046339D01*
X149708524Y-119046339D01*
X150005742Y-119046339D01*
X150040784Y-118754690D01*
X149732828Y-118754690D01*
X149708524Y-119046339D01*
X149575497Y-119046339D01*
X149599801Y-118754690D01*
X149240498Y-118754690D01*
X149228346Y-119046339D01*
X149095663Y-119046339D01*
X149107815Y-118754690D01*
X148748282Y-118754690D01*
X148748282Y-119046339D01*
X148615715Y-119046339D01*
X148615715Y-118754690D01*
X148256182Y-118754690D01*
X148123499Y-118754690D01*
X147764196Y-118754690D01*
X147631169Y-118754690D01*
X147323213Y-118754690D01*
X147189685Y-118754690D01*
X147138713Y-118330473D01*
X147272237Y-118330473D01*
X147307279Y-118622122D01*
X147620121Y-118622122D01*
X147595817Y-118330473D01*
X147728845Y-118330473D01*
X147753149Y-118622122D01*
X148117975Y-118622122D01*
X148105823Y-118330473D01*
X148238506Y-118330473D01*
X148250658Y-118622122D01*
X148615715Y-118622122D01*
X148748282Y-118622122D01*
X149113339Y-118622122D01*
X149246022Y-118622122D01*
X149610848Y-118622122D01*
X149743876Y-118622122D01*
X150056718Y-118622122D01*
X150091760Y-118330473D01*
X149768180Y-118330473D01*
X149743876Y-118622122D01*
X149610848Y-118622122D01*
X149635153Y-118330473D01*
X149258174Y-118330473D01*
X149246022Y-118622122D01*
X149113339Y-118622122D01*
X149125491Y-118330473D01*
X148748282Y-118330473D01*
X148748282Y-118622122D01*
X148615715Y-118622122D01*
X148615715Y-118330473D01*
X148238506Y-118330473D01*
X148105823Y-118330473D01*
X147728845Y-118330473D01*
X147595817Y-118330473D01*
X147272237Y-118330473D01*
X147138713Y-118330473D01*
X147132404Y-118277967D01*
X147132141Y-118276636D01*
X147131909Y-118275294D01*
X147131706Y-118273941D01*
X147131531Y-118272580D01*
X147131384Y-118271209D01*
X147131263Y-118269831D01*
X147131168Y-118268445D01*
X147131096Y-118267053D01*
X147087744Y-117906256D01*
X147221269Y-117906256D01*
X147256311Y-118197905D01*
X147584770Y-118197905D01*
X147560466Y-117906256D01*
X147693493Y-117906256D01*
X147717797Y-118197905D01*
X148100300Y-118197905D01*
X148088148Y-117906256D01*
X148220830Y-117906256D01*
X148232982Y-118197905D01*
X148615715Y-118197905D01*
X148748282Y-118197905D01*
X149131015Y-118197905D01*
X149263697Y-118197905D01*
X149646200Y-118197905D01*
X149779227Y-118197905D01*
X150107686Y-118197905D01*
X150142728Y-117906256D01*
X149803531Y-117906256D01*
X149779227Y-118197905D01*
X149646200Y-118197905D01*
X149670504Y-117906256D01*
X149275850Y-117906256D01*
X149263697Y-118197905D01*
X149131015Y-118197905D01*
X149143167Y-117906256D01*
X148748282Y-117906256D01*
X148748282Y-118197905D01*
X148615715Y-118197905D01*
X148615715Y-117906256D01*
X148220830Y-117906256D01*
X148088148Y-117906256D01*
X147693493Y-117906256D01*
X147560466Y-117906256D01*
X147221269Y-117906256D01*
X147087744Y-117906256D01*
X147036772Y-117482039D01*
X147170292Y-117482039D01*
X147205334Y-117773688D01*
X147549418Y-117773688D01*
X147525114Y-117482039D01*
X147658142Y-117482039D01*
X147682446Y-117773688D01*
X148082624Y-117773688D01*
X148070472Y-117482039D01*
X148203155Y-117482039D01*
X148215307Y-117773688D01*
X148615715Y-117773688D01*
X148748282Y-117773688D01*
X149148690Y-117773688D01*
X149281373Y-117773688D01*
X149681551Y-117773688D01*
X149814579Y-117773688D01*
X150158663Y-117773688D01*
X150193705Y-117482039D01*
X149838883Y-117482039D01*
X149814579Y-117773688D01*
X149681551Y-117773688D01*
X149705855Y-117482039D01*
X149293525Y-117482039D01*
X149281373Y-117773688D01*
X149148690Y-117773688D01*
X149160842Y-117482039D01*
X148748282Y-117482039D01*
X148748282Y-117773688D01*
X148615715Y-117773688D01*
X148615715Y-117482039D01*
X148203155Y-117482039D01*
X148070472Y-117482039D01*
X147658142Y-117482039D01*
X147525114Y-117482039D01*
X147170292Y-117482039D01*
X147036772Y-117482039D01*
X146985800Y-117057822D01*
X147119324Y-117057822D01*
X147154366Y-117349471D01*
X147514067Y-117349471D01*
X147489763Y-117057822D01*
X147622790Y-117057822D01*
X147647094Y-117349471D01*
X148064948Y-117349471D01*
X148052796Y-117057822D01*
X148185479Y-117057822D01*
X148197631Y-117349471D01*
X148615715Y-117349471D01*
X148748282Y-117349471D01*
X149166366Y-117349471D01*
X149299049Y-117349471D01*
X149716903Y-117349471D01*
X149849930Y-117349471D01*
X150209631Y-117349471D01*
X150244673Y-117057822D01*
X149874234Y-117057822D01*
X149849930Y-117349471D01*
X149716903Y-117349471D01*
X149741207Y-117057822D01*
X149311201Y-117057822D01*
X149299049Y-117349471D01*
X149166366Y-117349471D01*
X149178518Y-117057822D01*
X148748282Y-117057822D01*
X148748282Y-117349471D01*
X148615715Y-117349471D01*
X148615715Y-117057822D01*
X148185479Y-117057822D01*
X148052796Y-117057822D01*
X147622790Y-117057822D01*
X147489763Y-117057822D01*
X147119324Y-117057822D01*
X146985800Y-117057822D01*
X146926332Y-116562902D01*
X147059854Y-116562902D01*
X147103390Y-116925254D01*
X150260608Y-116925254D01*
X150304143Y-116562902D01*
X147059854Y-116562902D01*
X146926332Y-116562902D01*
X146773022Y-116562902D01*
X146769611Y-116562816D01*
X146766245Y-116562560D01*
X146762928Y-116562138D01*
X146759663Y-116561555D01*
X146756457Y-116560815D01*
X146753311Y-116559922D01*
X146750231Y-116558880D01*
X146747221Y-116557693D01*
X146744285Y-116556365D01*
X146741427Y-116554901D01*
X146738652Y-116553305D01*
X146735962Y-116551581D01*
X146733363Y-116549733D01*
X146730859Y-116547765D01*
X146728454Y-116545682D01*
X146726152Y-116543487D01*
X146723957Y-116541185D01*
X146721874Y-116538780D01*
X146719906Y-116536276D01*
X146718058Y-116533677D01*
X146716334Y-116530988D01*
X146714738Y-116528212D01*
X146713274Y-116525354D01*
X146711947Y-116522418D01*
X146710760Y-116519408D01*
X146709718Y-116516328D01*
X146708825Y-116513183D01*
X146708084Y-116509976D01*
X146707501Y-116506712D01*
X146707080Y-116503395D01*
X146706824Y-116500029D01*
X146706738Y-116496618D01*
X146706824Y-116493207D01*
X146707080Y-116489841D01*
X146707501Y-116486524D01*
X146708084Y-116483260D01*
X146708825Y-116480053D01*
X146709718Y-116476908D01*
X146710760Y-116473828D01*
X146711947Y-116470818D01*
X146713274Y-116467882D01*
X146714738Y-116465024D01*
X146716334Y-116462248D01*
X146718058Y-116459558D01*
X146719906Y-116456960D01*
X146721874Y-116454456D01*
X146723957Y-116452051D01*
X146726152Y-116449749D01*
X146728454Y-116447554D01*
X146730859Y-116445470D01*
X146733363Y-116443503D01*
X146735962Y-116441655D01*
X146738652Y-116439930D01*
X146741427Y-116438334D01*
X146744285Y-116436871D01*
X146747221Y-116435543D01*
X146750231Y-116434356D01*
X146753311Y-116433314D01*
X146756457Y-116432421D01*
X146759663Y-116431681D01*
X146762928Y-116431098D01*
X146766245Y-116430676D01*
X146769611Y-116430420D01*
X146773022Y-116430334D01*
X150379972Y-116430334D01*
X150380025Y-116430334D01*
X150590975Y-116430334D01*
X150594386Y-116430420D01*
G37*
G36*
X149700509Y-120107019D02*
G01*
X149703911Y-120107324D01*
X149707290Y-120107801D01*
X149710604Y-120108441D01*
X149713852Y-120109240D01*
X149717027Y-120110193D01*
X149720128Y-120111296D01*
X149723150Y-120112544D01*
X149726090Y-120113932D01*
X149728944Y-120115456D01*
X149731709Y-120117112D01*
X149734380Y-120118893D01*
X149736954Y-120120797D01*
X149739428Y-120122818D01*
X149741797Y-120124951D01*
X149744059Y-120127193D01*
X149746209Y-120129539D01*
X149748244Y-120131983D01*
X149750160Y-120134521D01*
X149751953Y-120137149D01*
X149753621Y-120139862D01*
X149755158Y-120142656D01*
X149756562Y-120145525D01*
X149757829Y-120148466D01*
X149758956Y-120151473D01*
X149759937Y-120154542D01*
X149760771Y-120157669D01*
X149761453Y-120160849D01*
X149761979Y-120164076D01*
X149762347Y-120167347D01*
X149762551Y-120170657D01*
X149762590Y-120174002D01*
X149762458Y-120177376D01*
X149762152Y-120180775D01*
X149737680Y-120392884D01*
X149737243Y-120396025D01*
X149736664Y-120399111D01*
X149735948Y-120402139D01*
X149735097Y-120405107D01*
X149734117Y-120408010D01*
X149733009Y-120410847D01*
X149731779Y-120413614D01*
X149730430Y-120416309D01*
X149728965Y-120418928D01*
X149727388Y-120421468D01*
X149725704Y-120423927D01*
X149723915Y-120426302D01*
X149722025Y-120428590D01*
X149720038Y-120430787D01*
X149717958Y-120432892D01*
X149715789Y-120434900D01*
X149713533Y-120436809D01*
X149711196Y-120438617D01*
X149708780Y-120440319D01*
X149706289Y-120441914D01*
X149703727Y-120443398D01*
X149701098Y-120444769D01*
X149698406Y-120446022D01*
X149695653Y-120447157D01*
X149692844Y-120448169D01*
X149689982Y-120449055D01*
X149687072Y-120449813D01*
X149684117Y-120450440D01*
X149681120Y-120450933D01*
X149678085Y-120451288D01*
X149675017Y-120451504D01*
X149671918Y-120451576D01*
X149670965Y-120451569D01*
X149670011Y-120451549D01*
X149669054Y-120451516D01*
X149668094Y-120451468D01*
X149667133Y-120451406D01*
X149666170Y-120451330D01*
X149665205Y-120451239D01*
X149664238Y-120451134D01*
X149660859Y-120450657D01*
X149657544Y-120450016D01*
X149654297Y-120449216D01*
X149651121Y-120448262D01*
X149648020Y-120447158D01*
X149644998Y-120445910D01*
X149642057Y-120444521D01*
X149639203Y-120442997D01*
X149636438Y-120441341D01*
X149633767Y-120439559D01*
X149631192Y-120437655D01*
X149628718Y-120435634D01*
X149626348Y-120433500D01*
X149624086Y-120431258D01*
X149621936Y-120428913D01*
X149619900Y-120426469D01*
X149617984Y-120423930D01*
X149616190Y-120421302D01*
X149614522Y-120418589D01*
X149612984Y-120415796D01*
X149611580Y-120412927D01*
X149610312Y-120409986D01*
X149609186Y-120406979D01*
X149608204Y-120403911D01*
X149607370Y-120400784D01*
X149606688Y-120397606D01*
X149606161Y-120394378D01*
X149605793Y-120391108D01*
X149605589Y-120387799D01*
X149605550Y-120384455D01*
X149605682Y-120381081D01*
X149605988Y-120377683D01*
X149630460Y-120165574D01*
X149630937Y-120162195D01*
X149631578Y-120158881D01*
X149632377Y-120155634D01*
X149633330Y-120152458D01*
X149634433Y-120149357D01*
X149635680Y-120146335D01*
X149637068Y-120143395D01*
X149638591Y-120140541D01*
X149640245Y-120137776D01*
X149642026Y-120135105D01*
X149643928Y-120132531D01*
X149645948Y-120130057D01*
X149648080Y-120127687D01*
X149650321Y-120125426D01*
X149652665Y-120123275D01*
X149655108Y-120121240D01*
X149657646Y-120119324D01*
X149660273Y-120117530D01*
X149662985Y-120115863D01*
X149665778Y-120114325D01*
X149668647Y-120112920D01*
X149671588Y-120111653D01*
X149674595Y-120110526D01*
X149677665Y-120109544D01*
X149680792Y-120108710D01*
X149683972Y-120108028D01*
X149687201Y-120107501D01*
X149690473Y-120107133D01*
X149693785Y-120106927D01*
X149697132Y-120106888D01*
X149700509Y-120107019D01*
G37*
G36*
X150100251Y-116642571D02*
G01*
X150103647Y-116642876D01*
X150107026Y-116643353D01*
X150110341Y-116643994D01*
X150113588Y-116644794D01*
X150116764Y-116645748D01*
X150119865Y-116646851D01*
X150122887Y-116648100D01*
X150125828Y-116649488D01*
X150128682Y-116651013D01*
X150131447Y-116652668D01*
X150134118Y-116654451D01*
X150136693Y-116656354D01*
X150139167Y-116658376D01*
X150141537Y-116660509D01*
X150143799Y-116662751D01*
X150145949Y-116665097D01*
X150147985Y-116667541D01*
X150149901Y-116670079D01*
X150151695Y-116672707D01*
X150153363Y-116675420D01*
X150154901Y-116678214D01*
X150156305Y-116681083D01*
X150157573Y-116684023D01*
X150158699Y-116687030D01*
X150159681Y-116690099D01*
X150160515Y-116693225D01*
X150161197Y-116696404D01*
X150161724Y-116699631D01*
X150162092Y-116702902D01*
X150162296Y-116706211D01*
X150162335Y-116709555D01*
X150162203Y-116712929D01*
X150161898Y-116716327D01*
X150153740Y-116786994D01*
X150153303Y-116790136D01*
X150152724Y-116793222D01*
X150152008Y-116796250D01*
X150151157Y-116799217D01*
X150150177Y-116802121D01*
X150149069Y-116804957D01*
X150147839Y-116807725D01*
X150146490Y-116810419D01*
X150145025Y-116813038D01*
X150143448Y-116815579D01*
X150141764Y-116818038D01*
X150139975Y-116820413D01*
X150138085Y-116822701D01*
X150136098Y-116824898D01*
X150134018Y-116827002D01*
X150131849Y-116829011D01*
X150129593Y-116830920D01*
X150127256Y-116832728D01*
X150124840Y-116834430D01*
X150122349Y-116836025D01*
X150119787Y-116837509D01*
X150117158Y-116838879D01*
X150114465Y-116840133D01*
X150111713Y-116841267D01*
X150108904Y-116842279D01*
X150106042Y-116843166D01*
X150103132Y-116843924D01*
X150100177Y-116844551D01*
X150097180Y-116845043D01*
X150094145Y-116845399D01*
X150091076Y-116845614D01*
X150087978Y-116845687D01*
X150087025Y-116845680D01*
X150086070Y-116845660D01*
X150085113Y-116845626D01*
X150084154Y-116845578D01*
X150083193Y-116845517D01*
X150082230Y-116845441D01*
X150081265Y-116845350D01*
X150080298Y-116845245D01*
X150076920Y-116844768D01*
X150073606Y-116844128D01*
X150070359Y-116843328D01*
X150067184Y-116842375D01*
X150064083Y-116841272D01*
X150061062Y-116840024D01*
X150058122Y-116838635D01*
X150055268Y-116837111D01*
X150052503Y-116835456D01*
X150049832Y-116833674D01*
X150047258Y-116831770D01*
X150044784Y-116829749D01*
X150042414Y-116827615D01*
X150040152Y-116825373D01*
X150038001Y-116823027D01*
X150035966Y-116820583D01*
X150034049Y-116818044D01*
X150032255Y-116815416D01*
X150030587Y-116812703D01*
X150029048Y-116809909D01*
X150027643Y-116807039D01*
X150026375Y-116804099D01*
X150025248Y-116801092D01*
X150024265Y-116798023D01*
X150023430Y-116794896D01*
X150022747Y-116791717D01*
X150022219Y-116788490D01*
X150021850Y-116785219D01*
X150021644Y-116781909D01*
X150021604Y-116778565D01*
X150021735Y-116775192D01*
X150022039Y-116771793D01*
X150030196Y-116701126D01*
X150030674Y-116697747D01*
X150031315Y-116694432D01*
X150032115Y-116691185D01*
X150033069Y-116688010D01*
X150034173Y-116684909D01*
X150035422Y-116681887D01*
X150036812Y-116678947D01*
X150038337Y-116676093D01*
X150039993Y-116673328D01*
X150041776Y-116670657D01*
X150043681Y-116668082D01*
X150045703Y-116665609D01*
X150047838Y-116663239D01*
X150050080Y-116660977D01*
X150052426Y-116658827D01*
X150054871Y-116656792D01*
X150057410Y-116654876D01*
X150060039Y-116653082D01*
X150062752Y-116651414D01*
X150065546Y-116649876D01*
X150068415Y-116648472D01*
X150071356Y-116647204D01*
X150074362Y-116646078D01*
X150077431Y-116645096D01*
X150080556Y-116644262D01*
X150083735Y-116643579D01*
X150086961Y-116643052D01*
X150090230Y-116642684D01*
X150093538Y-116642479D01*
X150096880Y-116642440D01*
X150100251Y-116642571D01*
G37*
D11*
X143453431Y-117096731D02*
X143453431Y-116096731D01*
X142977241Y-116430064D02*
X142977241Y-117096731D01*
X142977241Y-116525302D02*
X142929622Y-116477683D01*
X142929622Y-116477683D02*
X142834384Y-116430064D01*
X142834384Y-116430064D02*
X142691527Y-116430064D01*
X142691527Y-116430064D02*
X142596289Y-116477683D01*
X142596289Y-116477683D02*
X142548670Y-116572921D01*
X142548670Y-116572921D02*
X142548670Y-117096731D01*
X142072479Y-116430064D02*
X142072479Y-117430064D01*
X142072479Y-116477683D02*
X141977241Y-116430064D01*
X141977241Y-116430064D02*
X141786765Y-116430064D01*
X141786765Y-116430064D02*
X141691527Y-116477683D01*
X141691527Y-116477683D02*
X141643908Y-116525302D01*
X141643908Y-116525302D02*
X141596289Y-116620540D01*
X141596289Y-116620540D02*
X141596289Y-116906254D01*
X141596289Y-116906254D02*
X141643908Y-117001492D01*
X141643908Y-117001492D02*
X141691527Y-117049112D01*
X141691527Y-117049112D02*
X141786765Y-117096731D01*
X141786765Y-117096731D02*
X141977241Y-117096731D01*
X141977241Y-117096731D02*
X142072479Y-117049112D01*
X140739146Y-116430064D02*
X140739146Y-117096731D01*
X141167717Y-116430064D02*
X141167717Y-116953873D01*
X141167717Y-116953873D02*
X141120098Y-117049112D01*
X141120098Y-117049112D02*
X141024860Y-117096731D01*
X141024860Y-117096731D02*
X140882003Y-117096731D01*
X140882003Y-117096731D02*
X140786765Y-117049112D01*
X140786765Y-117049112D02*
X140739146Y-117001492D01*
X140405812Y-116430064D02*
X140024860Y-116430064D01*
X140262955Y-116096731D02*
X140262955Y-116953873D01*
X140262955Y-116953873D02*
X140215336Y-117049112D01*
X140215336Y-117049112D02*
X140120098Y-117096731D01*
X140120098Y-117096731D02*
X140024860Y-117096731D01*
X139691526Y-117001492D02*
X139643907Y-117049112D01*
X139643907Y-117049112D02*
X139691526Y-117096731D01*
X139691526Y-117096731D02*
X139739145Y-117049112D01*
X139739145Y-117049112D02*
X139691526Y-117001492D01*
X139691526Y-117001492D02*
X139691526Y-117096731D01*
X139691526Y-116477683D02*
X139643907Y-116525302D01*
X139643907Y-116525302D02*
X139691526Y-116572921D01*
X139691526Y-116572921D02*
X139739145Y-116525302D01*
X139739145Y-116525302D02*
X139691526Y-116477683D01*
X139691526Y-116477683D02*
X139691526Y-116572921D01*
X137929622Y-117096731D02*
X138501050Y-117096731D01*
X138215336Y-117096731D02*
X138215336Y-116096731D01*
X138215336Y-116096731D02*
X138310574Y-116239588D01*
X138310574Y-116239588D02*
X138405812Y-116334826D01*
X138405812Y-116334826D02*
X138501050Y-116382445D01*
X137548669Y-116191969D02*
X137501050Y-116144350D01*
X137501050Y-116144350D02*
X137405812Y-116096731D01*
X137405812Y-116096731D02*
X137167717Y-116096731D01*
X137167717Y-116096731D02*
X137072479Y-116144350D01*
X137072479Y-116144350D02*
X137024860Y-116191969D01*
X137024860Y-116191969D02*
X136977241Y-116287207D01*
X136977241Y-116287207D02*
X136977241Y-116382445D01*
X136977241Y-116382445D02*
X137024860Y-116525302D01*
X137024860Y-116525302D02*
X137596288Y-117096731D01*
X137596288Y-117096731D02*
X136977241Y-117096731D01*
X136691526Y-116096731D02*
X136358193Y-117096731D01*
X136358193Y-117096731D02*
X136024860Y-116096731D01*
X143262955Y-117706675D02*
X143072479Y-117706675D01*
X143072479Y-117706675D02*
X142977241Y-117754294D01*
X142977241Y-117754294D02*
X142882003Y-117849532D01*
X142882003Y-117849532D02*
X142834384Y-118040008D01*
X142834384Y-118040008D02*
X142834384Y-118373341D01*
X142834384Y-118373341D02*
X142882003Y-118563817D01*
X142882003Y-118563817D02*
X142977241Y-118659056D01*
X142977241Y-118659056D02*
X143072479Y-118706675D01*
X143072479Y-118706675D02*
X143262955Y-118706675D01*
X143262955Y-118706675D02*
X143358193Y-118659056D01*
X143358193Y-118659056D02*
X143453431Y-118563817D01*
X143453431Y-118563817D02*
X143501050Y-118373341D01*
X143501050Y-118373341D02*
X143501050Y-118040008D01*
X143501050Y-118040008D02*
X143453431Y-117849532D01*
X143453431Y-117849532D02*
X143358193Y-117754294D01*
X143358193Y-117754294D02*
X143262955Y-117706675D01*
X141977241Y-118040008D02*
X141977241Y-118706675D01*
X142405812Y-118040008D02*
X142405812Y-118563817D01*
X142405812Y-118563817D02*
X142358193Y-118659056D01*
X142358193Y-118659056D02*
X142262955Y-118706675D01*
X142262955Y-118706675D02*
X142120098Y-118706675D01*
X142120098Y-118706675D02*
X142024860Y-118659056D01*
X142024860Y-118659056D02*
X141977241Y-118611436D01*
X141643907Y-118040008D02*
X141262955Y-118040008D01*
X141501050Y-117706675D02*
X141501050Y-118563817D01*
X141501050Y-118563817D02*
X141453431Y-118659056D01*
X141453431Y-118659056D02*
X141358193Y-118706675D01*
X141358193Y-118706675D02*
X141262955Y-118706675D01*
X140929621Y-118040008D02*
X140929621Y-119040008D01*
X140929621Y-118087627D02*
X140834383Y-118040008D01*
X140834383Y-118040008D02*
X140643907Y-118040008D01*
X140643907Y-118040008D02*
X140548669Y-118087627D01*
X140548669Y-118087627D02*
X140501050Y-118135246D01*
X140501050Y-118135246D02*
X140453431Y-118230484D01*
X140453431Y-118230484D02*
X140453431Y-118516198D01*
X140453431Y-118516198D02*
X140501050Y-118611436D01*
X140501050Y-118611436D02*
X140548669Y-118659056D01*
X140548669Y-118659056D02*
X140643907Y-118706675D01*
X140643907Y-118706675D02*
X140834383Y-118706675D01*
X140834383Y-118706675D02*
X140929621Y-118659056D01*
X139596288Y-118040008D02*
X139596288Y-118706675D01*
X140024859Y-118040008D02*
X140024859Y-118563817D01*
X140024859Y-118563817D02*
X139977240Y-118659056D01*
X139977240Y-118659056D02*
X139882002Y-118706675D01*
X139882002Y-118706675D02*
X139739145Y-118706675D01*
X139739145Y-118706675D02*
X139643907Y-118659056D01*
X139643907Y-118659056D02*
X139596288Y-118611436D01*
X139262954Y-118040008D02*
X138882002Y-118040008D01*
X139120097Y-117706675D02*
X139120097Y-118563817D01*
X139120097Y-118563817D02*
X139072478Y-118659056D01*
X139072478Y-118659056D02*
X138977240Y-118706675D01*
X138977240Y-118706675D02*
X138882002Y-118706675D01*
X138548668Y-118611436D02*
X138501049Y-118659056D01*
X138501049Y-118659056D02*
X138548668Y-118706675D01*
X138548668Y-118706675D02*
X138596287Y-118659056D01*
X138596287Y-118659056D02*
X138548668Y-118611436D01*
X138548668Y-118611436D02*
X138548668Y-118706675D01*
X138548668Y-118087627D02*
X138501049Y-118135246D01*
X138501049Y-118135246D02*
X138548668Y-118182865D01*
X138548668Y-118182865D02*
X138596287Y-118135246D01*
X138596287Y-118135246D02*
X138548668Y-118087627D01*
X138548668Y-118087627D02*
X138548668Y-118182865D01*
X137405811Y-117706675D02*
X136786764Y-117706675D01*
X136786764Y-117706675D02*
X137120097Y-118087627D01*
X137120097Y-118087627D02*
X136977240Y-118087627D01*
X136977240Y-118087627D02*
X136882002Y-118135246D01*
X136882002Y-118135246D02*
X136834383Y-118182865D01*
X136834383Y-118182865D02*
X136786764Y-118278103D01*
X136786764Y-118278103D02*
X136786764Y-118516198D01*
X136786764Y-118516198D02*
X136834383Y-118611436D01*
X136834383Y-118611436D02*
X136882002Y-118659056D01*
X136882002Y-118659056D02*
X136977240Y-118706675D01*
X136977240Y-118706675D02*
X137262954Y-118706675D01*
X137262954Y-118706675D02*
X137358192Y-118659056D01*
X137358192Y-118659056D02*
X137405811Y-118611436D01*
X136358192Y-118611436D02*
X136310573Y-118659056D01*
X136310573Y-118659056D02*
X136358192Y-118706675D01*
X136358192Y-118706675D02*
X136405811Y-118659056D01*
X136405811Y-118659056D02*
X136358192Y-118611436D01*
X136358192Y-118611436D02*
X136358192Y-118706675D01*
X135977240Y-117706675D02*
X135358193Y-117706675D01*
X135358193Y-117706675D02*
X135691526Y-118087627D01*
X135691526Y-118087627D02*
X135548669Y-118087627D01*
X135548669Y-118087627D02*
X135453431Y-118135246D01*
X135453431Y-118135246D02*
X135405812Y-118182865D01*
X135405812Y-118182865D02*
X135358193Y-118278103D01*
X135358193Y-118278103D02*
X135358193Y-118516198D01*
X135358193Y-118516198D02*
X135405812Y-118611436D01*
X135405812Y-118611436D02*
X135453431Y-118659056D01*
X135453431Y-118659056D02*
X135548669Y-118706675D01*
X135548669Y-118706675D02*
X135834383Y-118706675D01*
X135834383Y-118706675D02*
X135929621Y-118659056D01*
X135929621Y-118659056D02*
X135977240Y-118611436D01*
X135072478Y-117706675D02*
X134739145Y-118706675D01*
X134739145Y-118706675D02*
X134405812Y-117706675D01*
X143453431Y-120316619D02*
X143453431Y-119316619D01*
X143453431Y-119316619D02*
X143120098Y-120030904D01*
X143120098Y-120030904D02*
X142786765Y-119316619D01*
X142786765Y-119316619D02*
X142786765Y-120316619D01*
X141882003Y-120316619D02*
X141882003Y-119792809D01*
X141882003Y-119792809D02*
X141929622Y-119697571D01*
X141929622Y-119697571D02*
X142024860Y-119649952D01*
X142024860Y-119649952D02*
X142215336Y-119649952D01*
X142215336Y-119649952D02*
X142310574Y-119697571D01*
X141882003Y-120269000D02*
X141977241Y-120316619D01*
X141977241Y-120316619D02*
X142215336Y-120316619D01*
X142215336Y-120316619D02*
X142310574Y-120269000D01*
X142310574Y-120269000D02*
X142358193Y-120173761D01*
X142358193Y-120173761D02*
X142358193Y-120078523D01*
X142358193Y-120078523D02*
X142310574Y-119983285D01*
X142310574Y-119983285D02*
X142215336Y-119935666D01*
X142215336Y-119935666D02*
X141977241Y-119935666D01*
X141977241Y-119935666D02*
X141882003Y-119888047D01*
X141501050Y-120316619D02*
X140977241Y-119649952D01*
X141501050Y-119649952D02*
X140977241Y-120316619D01*
X139262955Y-120221380D02*
X139310574Y-120269000D01*
X139310574Y-120269000D02*
X139453431Y-120316619D01*
X139453431Y-120316619D02*
X139548669Y-120316619D01*
X139548669Y-120316619D02*
X139691526Y-120269000D01*
X139691526Y-120269000D02*
X139786764Y-120173761D01*
X139786764Y-120173761D02*
X139834383Y-120078523D01*
X139834383Y-120078523D02*
X139882002Y-119888047D01*
X139882002Y-119888047D02*
X139882002Y-119745190D01*
X139882002Y-119745190D02*
X139834383Y-119554714D01*
X139834383Y-119554714D02*
X139786764Y-119459476D01*
X139786764Y-119459476D02*
X139691526Y-119364238D01*
X139691526Y-119364238D02*
X139548669Y-119316619D01*
X139548669Y-119316619D02*
X139453431Y-119316619D01*
X139453431Y-119316619D02*
X139310574Y-119364238D01*
X139310574Y-119364238D02*
X139262955Y-119411857D01*
X138405812Y-119649952D02*
X138405812Y-120316619D01*
X138834383Y-119649952D02*
X138834383Y-120173761D01*
X138834383Y-120173761D02*
X138786764Y-120269000D01*
X138786764Y-120269000D02*
X138691526Y-120316619D01*
X138691526Y-120316619D02*
X138548669Y-120316619D01*
X138548669Y-120316619D02*
X138453431Y-120269000D01*
X138453431Y-120269000D02*
X138405812Y-120221380D01*
X137929621Y-120316619D02*
X137929621Y-119649952D01*
X137929621Y-119840428D02*
X137882002Y-119745190D01*
X137882002Y-119745190D02*
X137834383Y-119697571D01*
X137834383Y-119697571D02*
X137739145Y-119649952D01*
X137739145Y-119649952D02*
X137643907Y-119649952D01*
X137310573Y-120316619D02*
X137310573Y-119649952D01*
X137310573Y-119840428D02*
X137262954Y-119745190D01*
X137262954Y-119745190D02*
X137215335Y-119697571D01*
X137215335Y-119697571D02*
X137120097Y-119649952D01*
X137120097Y-119649952D02*
X137024859Y-119649952D01*
X136310573Y-120269000D02*
X136405811Y-120316619D01*
X136405811Y-120316619D02*
X136596287Y-120316619D01*
X136596287Y-120316619D02*
X136691525Y-120269000D01*
X136691525Y-120269000D02*
X136739144Y-120173761D01*
X136739144Y-120173761D02*
X136739144Y-119792809D01*
X136739144Y-119792809D02*
X136691525Y-119697571D01*
X136691525Y-119697571D02*
X136596287Y-119649952D01*
X136596287Y-119649952D02*
X136405811Y-119649952D01*
X136405811Y-119649952D02*
X136310573Y-119697571D01*
X136310573Y-119697571D02*
X136262954Y-119792809D01*
X136262954Y-119792809D02*
X136262954Y-119888047D01*
X136262954Y-119888047D02*
X136739144Y-119983285D01*
X135834382Y-119649952D02*
X135834382Y-120316619D01*
X135834382Y-119745190D02*
X135786763Y-119697571D01*
X135786763Y-119697571D02*
X135691525Y-119649952D01*
X135691525Y-119649952D02*
X135548668Y-119649952D01*
X135548668Y-119649952D02*
X135453430Y-119697571D01*
X135453430Y-119697571D02*
X135405811Y-119792809D01*
X135405811Y-119792809D02*
X135405811Y-120316619D01*
X135072477Y-119649952D02*
X134691525Y-119649952D01*
X134929620Y-119316619D02*
X134929620Y-120173761D01*
X134929620Y-120173761D02*
X134882001Y-120269000D01*
X134882001Y-120269000D02*
X134786763Y-120316619D01*
X134786763Y-120316619D02*
X134691525Y-120316619D01*
X134358191Y-120221380D02*
X134310572Y-120269000D01*
X134310572Y-120269000D02*
X134358191Y-120316619D01*
X134358191Y-120316619D02*
X134405810Y-120269000D01*
X134405810Y-120269000D02*
X134358191Y-120221380D01*
X134358191Y-120221380D02*
X134358191Y-120316619D01*
X134358191Y-119697571D02*
X134310572Y-119745190D01*
X134310572Y-119745190D02*
X134358191Y-119792809D01*
X134358191Y-119792809D02*
X134405810Y-119745190D01*
X134405810Y-119745190D02*
X134358191Y-119697571D01*
X134358191Y-119697571D02*
X134358191Y-119792809D01*
X132691525Y-119649952D02*
X132691525Y-120316619D01*
X132929620Y-119269000D02*
X133167715Y-119983285D01*
X133167715Y-119983285D02*
X132548668Y-119983285D01*
X132215334Y-120030904D02*
X131739144Y-120030904D01*
X132310572Y-120316619D02*
X131977239Y-119316619D01*
X131977239Y-119316619D02*
X131643906Y-120316619D01*
M02*
