%TF.GenerationSoftware,KiCad,Pcbnew,9.0.5*%
%TF.CreationDate,2025-10-20T16:26:15+05:30*%
%TF.ProjectId,adp2384,61647032-3338-4342-9e6b-696361645f70,A1*%
%TF.SameCoordinates,Original*%
%TF.FileFunction,Copper,L2,Bot*%
%TF.FilePolarity,Positive*%
%FSLAX46Y46*%
G04 Gerber Fmt 4.6, Leading zero omitted, Abs format (unit mm)*
G04 Created by KiCad (PCBNEW 9.0.5) date 2025-10-20 16:26:15*
%MOMM*%
%LPD*%
G01*
G04 APERTURE LIST*
%TA.AperFunction,EtchedComponent*%
%ADD10C,0.000000*%
%TD*%
%TA.AperFunction,ConnectorPad*%
%ADD11C,5.600000*%
%TD*%
%TA.AperFunction,ComponentPad*%
%ADD12C,3.600000*%
%TD*%
%TA.AperFunction,ComponentPad*%
%ADD13C,1.700000*%
%TD*%
%TA.AperFunction,ComponentPad*%
%ADD14R,1.700000X1.700000*%
%TD*%
%TA.AperFunction,ComponentPad*%
%ADD15C,0.600000*%
%TD*%
%TA.AperFunction,ViaPad*%
%ADD16C,0.600000*%
%TD*%
%TA.AperFunction,Conductor*%
%ADD17C,0.500000*%
%TD*%
%TA.AperFunction,Conductor*%
%ADD18C,0.200000*%
%TD*%
%TA.AperFunction,Conductor*%
%ADD19C,0.400000*%
%TD*%
G04 APERTURE END LIST*
D10*
%TA.AperFunction,EtchedComponent*%
%TO.C,NT1*%
G36*
X126330000Y-100004018D02*
G01*
X125130000Y-100004018D01*
X125130000Y-99404018D01*
X126330000Y-99404018D01*
X126330000Y-100004018D01*
G37*
%TD.AperFunction*%
%TD*%
D11*
%TO.P,H4,1,1*%
%TO.N,GND*%
X151984000Y-124008000D03*
D12*
X151984000Y-124008000D03*
%TD*%
D11*
%TO.P,H1,1,1*%
%TO.N,GND*%
X124298000Y-91242000D03*
D12*
X124298000Y-91242000D03*
%TD*%
D13*
%TO.P,J1,2,Pin_2*%
%TO.N,GND*%
X149698000Y-105461000D03*
D14*
%TO.P,J1,1,Pin_1*%
%TO.N,VIN*%
X149698000Y-102921000D03*
%TD*%
D13*
%TO.P,J3,2,Pin_2*%
%TO.N,GND*%
X149698000Y-110043000D03*
D14*
%TO.P,J3,1,Pin_1*%
%TO.N,VCC_3V3*%
X149698000Y-112583000D03*
%TD*%
D13*
%TO.P,J2,3,Pin_3*%
%TO.N,GND*%
X143510000Y-97282000D03*
%TO.P,J2,2,Pin_2*%
%TO.N,/EN*%
X146050000Y-97282000D03*
D14*
%TO.P,J2,1,Pin_1*%
%TO.N,VIN*%
X148590000Y-97282000D03*
%TD*%
D11*
%TO.P,H2,1,1*%
%TO.N,GND*%
X151984000Y-91242000D03*
D12*
X151984000Y-91242000D03*
%TD*%
D11*
%TO.P,H3,1,1*%
%TO.N,GND*%
X124298000Y-124008000D03*
D12*
X124298000Y-124008000D03*
%TD*%
D15*
%TO.P,NT1,1,1*%
%TO.N,GNDA*%
X126330000Y-99704018D03*
%TO.P,NT1,2,2*%
%TO.N,GND*%
X125130000Y-99704018D03*
%TD*%
D16*
%TO.N,GND*%
X127600000Y-125532000D03*
X122520000Y-97592000D03*
X142840000Y-105212000D03*
X134620000Y-103378000D03*
X122520000Y-100132000D03*
X135347000Y-103053000D03*
X140300000Y-95052000D03*
X153000000Y-100132000D03*
X153000000Y-105212000D03*
X153000000Y-107752000D03*
X142840000Y-89972000D03*
X140300000Y-125532000D03*
X135220000Y-92512000D03*
X147920000Y-92512000D03*
X130140000Y-89972000D03*
X132680000Y-89972000D03*
X145380000Y-122992000D03*
X122520000Y-115372000D03*
X133823000Y-103815000D03*
X135347000Y-103789600D03*
X135220000Y-110292000D03*
X137760000Y-92512000D03*
X153000000Y-110292000D03*
X147920000Y-89972000D03*
X145380000Y-125532000D03*
X153000000Y-97592000D03*
X153000000Y-120452000D03*
X127600000Y-122992000D03*
X122520000Y-117912000D03*
X137760000Y-107752000D03*
X137760000Y-122992000D03*
X145380000Y-89972000D03*
X127600000Y-92512000D03*
X135220000Y-89972000D03*
X127600000Y-95052000D03*
X150460000Y-97592000D03*
X142840000Y-125532000D03*
X137760000Y-89972000D03*
X142840000Y-122992000D03*
X122520000Y-107752000D03*
X132680000Y-92512000D03*
X145380000Y-92512000D03*
X122520000Y-112832000D03*
X140300000Y-122992000D03*
X142840000Y-110292000D03*
X135220000Y-122992000D03*
X125060000Y-95052000D03*
X137760000Y-125532000D03*
X122520000Y-110292000D03*
X140300000Y-97592000D03*
X147920000Y-95052000D03*
X137760000Y-95052000D03*
X150460000Y-95052000D03*
X140300000Y-107752000D03*
X132680000Y-122992000D03*
X153000000Y-115372000D03*
X122520000Y-102672000D03*
X125060000Y-97592000D03*
X127600000Y-89972000D03*
X153000000Y-112832000D03*
X140300000Y-92512000D03*
X137760000Y-110292000D03*
X122520000Y-95052000D03*
X147920000Y-122992000D03*
X150460000Y-107752000D03*
X135220000Y-107752000D03*
X153000000Y-117912000D03*
X147920000Y-125532000D03*
X147920000Y-105212000D03*
X142840000Y-92512000D03*
X153000000Y-102672000D03*
X145380000Y-107752000D03*
X145380000Y-95052000D03*
X147920000Y-110292000D03*
X142840000Y-95052000D03*
X132680000Y-125532000D03*
X122520000Y-105212000D03*
X135220000Y-125532000D03*
X122520000Y-120452000D03*
X130140000Y-125532000D03*
X130140000Y-92512000D03*
X140300000Y-89972000D03*
X130140000Y-122992000D03*
X153000000Y-95052000D03*
X147920000Y-107752000D03*
X133823000Y-103053000D03*
%TO.N,VCC_3V3*%
X131495800Y-101549200D03*
X144618000Y-112882800D03*
%TO.N,/SYNC*%
X135077200Y-99695000D03*
X135077200Y-93980000D03*
%TO.N,GNDA*%
X131664000Y-104555213D03*
X126746000Y-102336600D03*
%TD*%
D17*
%TO.N,VCC_3V3*%
X144618000Y-110215800D02*
X144618000Y-112882800D01*
X135951400Y-101549200D02*
X144618000Y-110215800D01*
X131495800Y-101549200D02*
X135951400Y-101549200D01*
D18*
%TO.N,/SYNC*%
X135077200Y-99695000D02*
X135077200Y-93980000D01*
D19*
%TO.N,GNDA*%
X131642600Y-104533813D02*
X131664000Y-104555213D01*
X131673600Y-103225600D02*
X130784600Y-102336600D01*
X126746000Y-102336600D02*
X130784600Y-102336600D01*
X131642600Y-104490000D02*
X131642600Y-104533813D01*
X131673600Y-104459000D02*
X131642600Y-104490000D01*
X131673600Y-103225600D02*
X131673600Y-104459000D01*
%TD*%
%TA.AperFunction,Conductor*%
%TO.N,GND*%
G36*
X155184539Y-88084185D02*
G01*
X155230294Y-88136989D01*
X155241500Y-88188500D01*
X155241500Y-126939500D01*
X155221815Y-127006539D01*
X155169011Y-127052294D01*
X155117500Y-127063500D01*
X121366500Y-127063500D01*
X121299461Y-127043815D01*
X121253706Y-126991011D01*
X121242500Y-126939500D01*
X121242500Y-102257753D01*
X125945500Y-102257753D01*
X125945500Y-102415446D01*
X125976261Y-102570089D01*
X125976264Y-102570101D01*
X126036602Y-102715772D01*
X126036609Y-102715785D01*
X126124210Y-102846888D01*
X126124213Y-102846892D01*
X126235707Y-102958386D01*
X126235711Y-102958389D01*
X126366814Y-103045990D01*
X126366827Y-103045997D01*
X126433031Y-103073419D01*
X126512503Y-103106337D01*
X126667153Y-103137099D01*
X126667156Y-103137100D01*
X126667158Y-103137100D01*
X126824844Y-103137100D01*
X126824845Y-103137099D01*
X126979497Y-103106337D01*
X127058969Y-103073419D01*
X127123864Y-103046539D01*
X127171316Y-103037100D01*
X130443081Y-103037100D01*
X130510120Y-103056785D01*
X130530762Y-103073419D01*
X130936781Y-103479438D01*
X130970266Y-103540761D01*
X130973100Y-103567119D01*
X130973100Y-104110740D01*
X130955773Y-104169748D01*
X130957479Y-104170660D01*
X130954602Y-104176041D01*
X130894264Y-104321711D01*
X130894261Y-104321723D01*
X130863500Y-104476366D01*
X130863500Y-104634059D01*
X130894261Y-104788702D01*
X130894264Y-104788714D01*
X130954602Y-104934385D01*
X130954609Y-104934398D01*
X131042210Y-105065501D01*
X131042213Y-105065505D01*
X131153707Y-105176999D01*
X131153711Y-105177002D01*
X131284814Y-105264603D01*
X131284827Y-105264610D01*
X131430498Y-105324948D01*
X131430503Y-105324950D01*
X131580332Y-105354753D01*
X131585153Y-105355712D01*
X131585156Y-105355713D01*
X131585158Y-105355713D01*
X131742844Y-105355713D01*
X131742845Y-105355712D01*
X131897497Y-105324950D01*
X132043179Y-105264607D01*
X132174289Y-105177002D01*
X132285789Y-105065502D01*
X132373394Y-104934392D01*
X132433737Y-104788710D01*
X132464500Y-104634055D01*
X132464500Y-104476371D01*
X132464500Y-104476368D01*
X132464499Y-104476366D01*
X132433739Y-104321724D01*
X132433736Y-104321714D01*
X132414110Y-104274333D01*
X132383539Y-104200526D01*
X132374100Y-104153074D01*
X132374100Y-103156604D01*
X132347181Y-103021277D01*
X132347180Y-103021276D01*
X132347180Y-103021272D01*
X132294375Y-102893789D01*
X132294370Y-102893780D01*
X132285640Y-102880715D01*
X132217714Y-102779057D01*
X132217711Y-102779053D01*
X131950038Y-102511381D01*
X131916553Y-102450058D01*
X131921537Y-102380367D01*
X131963408Y-102324433D01*
X132028873Y-102300016D01*
X132037719Y-102299700D01*
X135589170Y-102299700D01*
X135656209Y-102319385D01*
X135676851Y-102336019D01*
X143831181Y-110490348D01*
X143864666Y-110551671D01*
X143867500Y-110578029D01*
X143867500Y-112578196D01*
X143858062Y-112625644D01*
X143848263Y-112649303D01*
X143848262Y-112649306D01*
X143848260Y-112649311D01*
X143817500Y-112803953D01*
X143817500Y-112961646D01*
X143848261Y-113116289D01*
X143848264Y-113116301D01*
X143908602Y-113261972D01*
X143908609Y-113261985D01*
X143996210Y-113393088D01*
X143996213Y-113393092D01*
X144107707Y-113504586D01*
X144107711Y-113504589D01*
X144238814Y-113592190D01*
X144238827Y-113592197D01*
X144384498Y-113652535D01*
X144384503Y-113652537D01*
X144499116Y-113675335D01*
X144539153Y-113683299D01*
X144539156Y-113683300D01*
X144539158Y-113683300D01*
X144696844Y-113683300D01*
X144696845Y-113683299D01*
X144851497Y-113652537D01*
X144997179Y-113592194D01*
X145128289Y-113504589D01*
X145239789Y-113393089D01*
X145327394Y-113261979D01*
X145387737Y-113116297D01*
X145418500Y-112961642D01*
X145418500Y-112803958D01*
X145418500Y-112803955D01*
X145418499Y-112803953D01*
X145387739Y-112649311D01*
X145387738Y-112649308D01*
X145387737Y-112649303D01*
X145377937Y-112625644D01*
X145368500Y-112578196D01*
X145368500Y-111685135D01*
X148347500Y-111685135D01*
X148347500Y-113480870D01*
X148347501Y-113480876D01*
X148353908Y-113540483D01*
X148404202Y-113675328D01*
X148404206Y-113675335D01*
X148490452Y-113790544D01*
X148490455Y-113790547D01*
X148605664Y-113876793D01*
X148605671Y-113876797D01*
X148740517Y-113927091D01*
X148740516Y-113927091D01*
X148747444Y-113927835D01*
X148800127Y-113933500D01*
X150595872Y-113933499D01*
X150655483Y-113927091D01*
X150790331Y-113876796D01*
X150905546Y-113790546D01*
X150991796Y-113675331D01*
X151042091Y-113540483D01*
X151048500Y-113480873D01*
X151048499Y-111685128D01*
X151042091Y-111625517D01*
X150991796Y-111490669D01*
X150991795Y-111490668D01*
X150991793Y-111490664D01*
X150905547Y-111375455D01*
X150905544Y-111375452D01*
X150790335Y-111289206D01*
X150790328Y-111289202D01*
X150655482Y-111238908D01*
X150655483Y-111238908D01*
X150595883Y-111232501D01*
X150595881Y-111232500D01*
X150595873Y-111232500D01*
X150595865Y-111232500D01*
X150585309Y-111232500D01*
X150518270Y-111212815D01*
X150497628Y-111196181D01*
X149827408Y-110525962D01*
X149890993Y-110508925D01*
X150005007Y-110443099D01*
X150098099Y-110350007D01*
X150163925Y-110235993D01*
X150180962Y-110172409D01*
X150813270Y-110804717D01*
X150813270Y-110804716D01*
X150852622Y-110750554D01*
X150949095Y-110561217D01*
X151014757Y-110359130D01*
X151014757Y-110359127D01*
X151048000Y-110149246D01*
X151048000Y-109936753D01*
X151014757Y-109726872D01*
X151014757Y-109726869D01*
X150949095Y-109524782D01*
X150852624Y-109335449D01*
X150813270Y-109281282D01*
X150813269Y-109281282D01*
X150180962Y-109913590D01*
X150163925Y-109850007D01*
X150098099Y-109735993D01*
X150005007Y-109642901D01*
X149890993Y-109577075D01*
X149827409Y-109560037D01*
X150459716Y-108927728D01*
X150405550Y-108888375D01*
X150216217Y-108791904D01*
X150014129Y-108726242D01*
X149804246Y-108693000D01*
X149591754Y-108693000D01*
X149381872Y-108726242D01*
X149381869Y-108726242D01*
X149179782Y-108791904D01*
X148990439Y-108888380D01*
X148936282Y-108927727D01*
X148936282Y-108927728D01*
X149568591Y-109560037D01*
X149505007Y-109577075D01*
X149390993Y-109642901D01*
X149297901Y-109735993D01*
X149232075Y-109850007D01*
X149215037Y-109913591D01*
X148582728Y-109281282D01*
X148582727Y-109281282D01*
X148543380Y-109335439D01*
X148446904Y-109524782D01*
X148381242Y-109726869D01*
X148381242Y-109726872D01*
X148348000Y-109936753D01*
X148348000Y-110149246D01*
X148381242Y-110359127D01*
X148381242Y-110359130D01*
X148446904Y-110561217D01*
X148543375Y-110750550D01*
X148582728Y-110804716D01*
X149215037Y-110172408D01*
X149232075Y-110235993D01*
X149297901Y-110350007D01*
X149390993Y-110443099D01*
X149505007Y-110508925D01*
X149568590Y-110525962D01*
X148898370Y-111196181D01*
X148837047Y-111229666D01*
X148810698Y-111232500D01*
X148800134Y-111232500D01*
X148800123Y-111232501D01*
X148740516Y-111238908D01*
X148605671Y-111289202D01*
X148605664Y-111289206D01*
X148490455Y-111375452D01*
X148490452Y-111375455D01*
X148404206Y-111490664D01*
X148404202Y-111490671D01*
X148353908Y-111625517D01*
X148347501Y-111685116D01*
X148347501Y-111685123D01*
X148347500Y-111685135D01*
X145368500Y-111685135D01*
X145368500Y-110141879D01*
X145339659Y-109996892D01*
X145339658Y-109996891D01*
X145339658Y-109996887D01*
X145308195Y-109920928D01*
X145283087Y-109860311D01*
X145283080Y-109860298D01*
X145200952Y-109737385D01*
X145153013Y-109689446D01*
X145096416Y-109632849D01*
X144156567Y-108693000D01*
X142080260Y-106616692D01*
X140901130Y-105437562D01*
X137571056Y-102107487D01*
X137486704Y-102023135D01*
X148347500Y-102023135D01*
X148347500Y-103818870D01*
X148347501Y-103818876D01*
X148353908Y-103878483D01*
X148404202Y-104013328D01*
X148404206Y-104013335D01*
X148490452Y-104128544D01*
X148490455Y-104128547D01*
X148605664Y-104214793D01*
X148605671Y-104214797D01*
X148650618Y-104231561D01*
X148740517Y-104265091D01*
X148800127Y-104271500D01*
X148810685Y-104271499D01*
X148877723Y-104291179D01*
X148898372Y-104307818D01*
X149568591Y-104978037D01*
X149505007Y-104995075D01*
X149390993Y-105060901D01*
X149297901Y-105153993D01*
X149232075Y-105268007D01*
X149215037Y-105331591D01*
X148582728Y-104699282D01*
X148582727Y-104699282D01*
X148543380Y-104753439D01*
X148446904Y-104942782D01*
X148381242Y-105144869D01*
X148381242Y-105144872D01*
X148348000Y-105354753D01*
X148348000Y-105567246D01*
X148381242Y-105777127D01*
X148381242Y-105777130D01*
X148446904Y-105979217D01*
X148543375Y-106168550D01*
X148582728Y-106222716D01*
X149215037Y-105590408D01*
X149232075Y-105653993D01*
X149297901Y-105768007D01*
X149390993Y-105861099D01*
X149505007Y-105926925D01*
X149568590Y-105943962D01*
X148936282Y-106576269D01*
X148936282Y-106576270D01*
X148990449Y-106615624D01*
X149179782Y-106712095D01*
X149381870Y-106777757D01*
X149591754Y-106811000D01*
X149804246Y-106811000D01*
X150014127Y-106777757D01*
X150014130Y-106777757D01*
X150216217Y-106712095D01*
X150405554Y-106615622D01*
X150459716Y-106576270D01*
X150459717Y-106576270D01*
X149827408Y-105943962D01*
X149890993Y-105926925D01*
X150005007Y-105861099D01*
X150098099Y-105768007D01*
X150163925Y-105653993D01*
X150180962Y-105590409D01*
X150813270Y-106222717D01*
X150813270Y-106222716D01*
X150852622Y-106168554D01*
X150949095Y-105979217D01*
X151014757Y-105777130D01*
X151014757Y-105777127D01*
X151048000Y-105567246D01*
X151048000Y-105354753D01*
X151014757Y-105144872D01*
X151014757Y-105144869D01*
X150949095Y-104942782D01*
X150852624Y-104753449D01*
X150813270Y-104699282D01*
X150813269Y-104699282D01*
X150180962Y-105331590D01*
X150163925Y-105268007D01*
X150098099Y-105153993D01*
X150005007Y-105060901D01*
X149890993Y-104995075D01*
X149827409Y-104978037D01*
X150497627Y-104307818D01*
X150558950Y-104274333D01*
X150585307Y-104271499D01*
X150595872Y-104271499D01*
X150655483Y-104265091D01*
X150790331Y-104214796D01*
X150905546Y-104128546D01*
X150991796Y-104013331D01*
X151042091Y-103878483D01*
X151048500Y-103818873D01*
X151048499Y-102023128D01*
X151042091Y-101963517D01*
X151039817Y-101957421D01*
X150991797Y-101828671D01*
X150991793Y-101828664D01*
X150905547Y-101713455D01*
X150905544Y-101713452D01*
X150790335Y-101627206D01*
X150790328Y-101627202D01*
X150655482Y-101576908D01*
X150655483Y-101576908D01*
X150595883Y-101570501D01*
X150595881Y-101570500D01*
X150595873Y-101570500D01*
X150595864Y-101570500D01*
X148800129Y-101570500D01*
X148800123Y-101570501D01*
X148740516Y-101576908D01*
X148605671Y-101627202D01*
X148605664Y-101627206D01*
X148490455Y-101713452D01*
X148490452Y-101713455D01*
X148404206Y-101828664D01*
X148404202Y-101828671D01*
X148353908Y-101963517D01*
X148347501Y-102023116D01*
X148347501Y-102023123D01*
X148347500Y-102023135D01*
X137486704Y-102023135D01*
X136429821Y-100966252D01*
X136429814Y-100966246D01*
X136356129Y-100917012D01*
X136356129Y-100917013D01*
X136306891Y-100884113D01*
X136170317Y-100827543D01*
X136170307Y-100827540D01*
X136025320Y-100798700D01*
X136025318Y-100798700D01*
X131800404Y-100798700D01*
X131752955Y-100789262D01*
X131729297Y-100779463D01*
X131729293Y-100779462D01*
X131729288Y-100779460D01*
X131574645Y-100748700D01*
X131574642Y-100748700D01*
X131416958Y-100748700D01*
X131416955Y-100748700D01*
X131262310Y-100779461D01*
X131262298Y-100779464D01*
X131116627Y-100839802D01*
X131116614Y-100839809D01*
X130985511Y-100927410D01*
X130985507Y-100927413D01*
X130874013Y-101038907D01*
X130874010Y-101038911D01*
X130786409Y-101170014D01*
X130786402Y-101170027D01*
X130726064Y-101315698D01*
X130726061Y-101315710D01*
X130695300Y-101470353D01*
X130695300Y-101512100D01*
X130675615Y-101579139D01*
X130622811Y-101624894D01*
X130571300Y-101636100D01*
X127171316Y-101636100D01*
X127123864Y-101626661D01*
X126979501Y-101566864D01*
X126979489Y-101566861D01*
X126824845Y-101536100D01*
X126824842Y-101536100D01*
X126667158Y-101536100D01*
X126667155Y-101536100D01*
X126512510Y-101566861D01*
X126512498Y-101566864D01*
X126366827Y-101627202D01*
X126366814Y-101627209D01*
X126235711Y-101714810D01*
X126235707Y-101714813D01*
X126124213Y-101826307D01*
X126124210Y-101826311D01*
X126036609Y-101957414D01*
X126036602Y-101957427D01*
X125976264Y-102103098D01*
X125976261Y-102103110D01*
X125945500Y-102257753D01*
X121242500Y-102257753D01*
X121242500Y-100419863D01*
X124767706Y-100419863D01*
X124896652Y-100473275D01*
X124896656Y-100473276D01*
X125051202Y-100504017D01*
X125051206Y-100504018D01*
X125208794Y-100504018D01*
X125208797Y-100504017D01*
X125363343Y-100473276D01*
X125363347Y-100473275D01*
X125492293Y-100419863D01*
X125130001Y-100057571D01*
X125130000Y-100057571D01*
X124767706Y-100419863D01*
X121242500Y-100419863D01*
X121242500Y-99625220D01*
X124330000Y-99625220D01*
X124330000Y-99782815D01*
X124360741Y-99937361D01*
X124360743Y-99937369D01*
X124414153Y-100066311D01*
X124776446Y-99704019D01*
X124776446Y-99704017D01*
X124746610Y-99674181D01*
X124980000Y-99674181D01*
X124980000Y-99733855D01*
X125002836Y-99788986D01*
X125045032Y-99831182D01*
X125100163Y-99854018D01*
X125159837Y-99854018D01*
X125214968Y-99831182D01*
X125257164Y-99788986D01*
X125280000Y-99733855D01*
X125280000Y-99704017D01*
X125483553Y-99704017D01*
X125483553Y-99704018D01*
X125494731Y-99715196D01*
X125528218Y-99776518D01*
X125528669Y-99778687D01*
X125560261Y-99937509D01*
X125560264Y-99937519D01*
X125620602Y-100083190D01*
X125620609Y-100083203D01*
X125708210Y-100214306D01*
X125708213Y-100214310D01*
X125819707Y-100325804D01*
X125819711Y-100325807D01*
X125950814Y-100413408D01*
X125950827Y-100413415D01*
X126096498Y-100473753D01*
X126096503Y-100473755D01*
X126205817Y-100495499D01*
X126251153Y-100504517D01*
X126251156Y-100504518D01*
X126251158Y-100504518D01*
X126408844Y-100504518D01*
X126408845Y-100504517D01*
X126563497Y-100473755D01*
X126709179Y-100413412D01*
X126840289Y-100325807D01*
X126951789Y-100214307D01*
X127039394Y-100083197D01*
X127099737Y-99937515D01*
X127130500Y-99782860D01*
X127130500Y-99625176D01*
X127130500Y-99625173D01*
X127130499Y-99625171D01*
X127099767Y-99470674D01*
X127099737Y-99470521D01*
X127096000Y-99461498D01*
X127039397Y-99324845D01*
X127039390Y-99324832D01*
X126951789Y-99193729D01*
X126951786Y-99193725D01*
X126840292Y-99082231D01*
X126840288Y-99082228D01*
X126709185Y-98994627D01*
X126709172Y-98994620D01*
X126563501Y-98934282D01*
X126563489Y-98934279D01*
X126408845Y-98903518D01*
X126408842Y-98903518D01*
X126251158Y-98903518D01*
X126251155Y-98903518D01*
X126096510Y-98934279D01*
X126096498Y-98934282D01*
X125950827Y-98994620D01*
X125950814Y-98994627D01*
X125819711Y-99082228D01*
X125819707Y-99082231D01*
X125708213Y-99193725D01*
X125708210Y-99193729D01*
X125620609Y-99324832D01*
X125620602Y-99324845D01*
X125560264Y-99470516D01*
X125560261Y-99470526D01*
X125528669Y-99629348D01*
X125519904Y-99646103D01*
X125515885Y-99664582D01*
X125497140Y-99689620D01*
X125496284Y-99691259D01*
X125494734Y-99692836D01*
X125483553Y-99704017D01*
X125280000Y-99704017D01*
X125280000Y-99674181D01*
X125257164Y-99619050D01*
X125214968Y-99576854D01*
X125159837Y-99554018D01*
X125100163Y-99554018D01*
X125045032Y-99576854D01*
X125002836Y-99619050D01*
X124980000Y-99674181D01*
X124746610Y-99674181D01*
X124414153Y-99341723D01*
X124360743Y-99470666D01*
X124360741Y-99470674D01*
X124330000Y-99625220D01*
X121242500Y-99625220D01*
X121242500Y-98988171D01*
X124767705Y-98988171D01*
X125130000Y-99350464D01*
X125130001Y-99350464D01*
X125492293Y-98988171D01*
X125363351Y-98934761D01*
X125363343Y-98934759D01*
X125208797Y-98904018D01*
X125051202Y-98904018D01*
X124896656Y-98934759D01*
X124896648Y-98934761D01*
X124767705Y-98988171D01*
X121242500Y-98988171D01*
X121242500Y-93901153D01*
X134276700Y-93901153D01*
X134276700Y-94058846D01*
X134307461Y-94213489D01*
X134307464Y-94213501D01*
X134367802Y-94359172D01*
X134367809Y-94359185D01*
X134455802Y-94490874D01*
X134476680Y-94557551D01*
X134476700Y-94559765D01*
X134476700Y-99115234D01*
X134457015Y-99182273D01*
X134455802Y-99184125D01*
X134367809Y-99315814D01*
X134367802Y-99315827D01*
X134307464Y-99461498D01*
X134307461Y-99461510D01*
X134276700Y-99616153D01*
X134276700Y-99773846D01*
X134307461Y-99928489D01*
X134307464Y-99928501D01*
X134367802Y-100074172D01*
X134367809Y-100074185D01*
X134455410Y-100205288D01*
X134455413Y-100205292D01*
X134566907Y-100316786D01*
X134566911Y-100316789D01*
X134698014Y-100404390D01*
X134698027Y-100404397D01*
X134843698Y-100464735D01*
X134843703Y-100464737D01*
X134998353Y-100495499D01*
X134998356Y-100495500D01*
X134998358Y-100495500D01*
X135156044Y-100495500D01*
X135156045Y-100495499D01*
X135310697Y-100464737D01*
X135434600Y-100413415D01*
X135456372Y-100404397D01*
X135456372Y-100404396D01*
X135456379Y-100404394D01*
X135587489Y-100316789D01*
X135698989Y-100205289D01*
X135786594Y-100074179D01*
X135846937Y-99928497D01*
X135877700Y-99773842D01*
X135877700Y-99616158D01*
X135877700Y-99616155D01*
X135877699Y-99616153D01*
X135869882Y-99576854D01*
X135846937Y-99461503D01*
X135846935Y-99461498D01*
X135786597Y-99315827D01*
X135786590Y-99315814D01*
X135698598Y-99184125D01*
X135677720Y-99117447D01*
X135677700Y-99115234D01*
X135677700Y-97175753D01*
X142160000Y-97175753D01*
X142160000Y-97388246D01*
X142193242Y-97598127D01*
X142193242Y-97598130D01*
X142258904Y-97800217D01*
X142355375Y-97989550D01*
X142394728Y-98043716D01*
X143027037Y-97411408D01*
X143044075Y-97474993D01*
X143109901Y-97589007D01*
X143202993Y-97682099D01*
X143317007Y-97747925D01*
X143380590Y-97764962D01*
X142748282Y-98397269D01*
X142748282Y-98397270D01*
X142802449Y-98436624D01*
X142991782Y-98533095D01*
X143193870Y-98598757D01*
X143403754Y-98632000D01*
X143616246Y-98632000D01*
X143826127Y-98598757D01*
X143826130Y-98598757D01*
X144028217Y-98533095D01*
X144217554Y-98436622D01*
X144271716Y-98397270D01*
X144271717Y-98397270D01*
X143639408Y-97764962D01*
X143702993Y-97747925D01*
X143817007Y-97682099D01*
X143910099Y-97589007D01*
X143975925Y-97474993D01*
X143992962Y-97411409D01*
X144625270Y-98043717D01*
X144625270Y-98043716D01*
X144664622Y-97989555D01*
X144669232Y-97980507D01*
X144717205Y-97929709D01*
X144785025Y-97912912D01*
X144851161Y-97935447D01*
X144890204Y-97980504D01*
X144894949Y-97989817D01*
X145019890Y-98161786D01*
X145170213Y-98312109D01*
X145342179Y-98437048D01*
X145342181Y-98437049D01*
X145342184Y-98437051D01*
X145531588Y-98533557D01*
X145733757Y-98599246D01*
X145943713Y-98632500D01*
X145943714Y-98632500D01*
X146156286Y-98632500D01*
X146156287Y-98632500D01*
X146366243Y-98599246D01*
X146568412Y-98533557D01*
X146757816Y-98437051D01*
X146929792Y-98312104D01*
X147043329Y-98198566D01*
X147104648Y-98165084D01*
X147174340Y-98170068D01*
X147230274Y-98211939D01*
X147247189Y-98242917D01*
X147296202Y-98374328D01*
X147296206Y-98374335D01*
X147382452Y-98489544D01*
X147382455Y-98489547D01*
X147497664Y-98575793D01*
X147497671Y-98575797D01*
X147632517Y-98626091D01*
X147632516Y-98626091D01*
X147639444Y-98626835D01*
X147692127Y-98632500D01*
X149487872Y-98632499D01*
X149547483Y-98626091D01*
X149682331Y-98575796D01*
X149797546Y-98489546D01*
X149883796Y-98374331D01*
X149934091Y-98239483D01*
X149940500Y-98179873D01*
X149940499Y-96384128D01*
X149934091Y-96324517D01*
X149932810Y-96321083D01*
X149883797Y-96189671D01*
X149883793Y-96189664D01*
X149797547Y-96074455D01*
X149797544Y-96074452D01*
X149682335Y-95988206D01*
X149682328Y-95988202D01*
X149547482Y-95937908D01*
X149547483Y-95937908D01*
X149487883Y-95931501D01*
X149487881Y-95931500D01*
X149487873Y-95931500D01*
X149487864Y-95931500D01*
X147692129Y-95931500D01*
X147692123Y-95931501D01*
X147632516Y-95937908D01*
X147497671Y-95988202D01*
X147497664Y-95988206D01*
X147382455Y-96074452D01*
X147382452Y-96074455D01*
X147296206Y-96189664D01*
X147296203Y-96189669D01*
X147247189Y-96321083D01*
X147205317Y-96377016D01*
X147139853Y-96401433D01*
X147071580Y-96386581D01*
X147043326Y-96365430D01*
X146929786Y-96251890D01*
X146757820Y-96126951D01*
X146568414Y-96030444D01*
X146568413Y-96030443D01*
X146568412Y-96030443D01*
X146366243Y-95964754D01*
X146366241Y-95964753D01*
X146366240Y-95964753D01*
X146204957Y-95939208D01*
X146156287Y-95931500D01*
X145943713Y-95931500D01*
X145895042Y-95939208D01*
X145733760Y-95964753D01*
X145531585Y-96030444D01*
X145342179Y-96126951D01*
X145170213Y-96251890D01*
X145019890Y-96402213D01*
X144894949Y-96574182D01*
X144890202Y-96583499D01*
X144842227Y-96634293D01*
X144774405Y-96651087D01*
X144708271Y-96628548D01*
X144669234Y-96583495D01*
X144664626Y-96574452D01*
X144625270Y-96520282D01*
X144625269Y-96520282D01*
X143992962Y-97152590D01*
X143975925Y-97089007D01*
X143910099Y-96974993D01*
X143817007Y-96881901D01*
X143702993Y-96816075D01*
X143639409Y-96799037D01*
X144271716Y-96166728D01*
X144217550Y-96127375D01*
X144028217Y-96030904D01*
X143826129Y-95965242D01*
X143616246Y-95932000D01*
X143403754Y-95932000D01*
X143193872Y-95965242D01*
X143193869Y-95965242D01*
X142991782Y-96030904D01*
X142802439Y-96127380D01*
X142748282Y-96166727D01*
X142748282Y-96166728D01*
X143380591Y-96799037D01*
X143317007Y-96816075D01*
X143202993Y-96881901D01*
X143109901Y-96974993D01*
X143044075Y-97089007D01*
X143027037Y-97152591D01*
X142394728Y-96520282D01*
X142394727Y-96520282D01*
X142355380Y-96574439D01*
X142258904Y-96763782D01*
X142193242Y-96965869D01*
X142193242Y-96965872D01*
X142160000Y-97175753D01*
X135677700Y-97175753D01*
X135677700Y-94559765D01*
X135697385Y-94492726D01*
X135698598Y-94490874D01*
X135786590Y-94359185D01*
X135786590Y-94359184D01*
X135786594Y-94359179D01*
X135846937Y-94213497D01*
X135877700Y-94058842D01*
X135877700Y-93901158D01*
X135877700Y-93901155D01*
X135877699Y-93901153D01*
X135846938Y-93746510D01*
X135846937Y-93746503D01*
X135846935Y-93746498D01*
X135786597Y-93600827D01*
X135786590Y-93600814D01*
X135698989Y-93469711D01*
X135698986Y-93469707D01*
X135587492Y-93358213D01*
X135587488Y-93358210D01*
X135456385Y-93270609D01*
X135456372Y-93270602D01*
X135310701Y-93210264D01*
X135310689Y-93210261D01*
X135156045Y-93179500D01*
X135156042Y-93179500D01*
X134998358Y-93179500D01*
X134998355Y-93179500D01*
X134843710Y-93210261D01*
X134843698Y-93210264D01*
X134698027Y-93270602D01*
X134698014Y-93270609D01*
X134566911Y-93358210D01*
X134566907Y-93358213D01*
X134455413Y-93469707D01*
X134455410Y-93469711D01*
X134367809Y-93600814D01*
X134367802Y-93600827D01*
X134307464Y-93746498D01*
X134307461Y-93746510D01*
X134276700Y-93901153D01*
X121242500Y-93901153D01*
X121242500Y-88188500D01*
X121262185Y-88121461D01*
X121314989Y-88075706D01*
X121366500Y-88064500D01*
X155117500Y-88064500D01*
X155184539Y-88084185D01*
G37*
%TD.AperFunction*%
%TD*%
M02*
